<svg width="121" height="199" viewBox="0 0 121 199" fill="none" xmlns="http://www.w3.org/2000/svg">
<g filter="url(#filter0_i_187_3804)">
<path d="M57 165C61.5 165 61.5 185.5 57.5 193.5C54.5 198.035 47.245 198.035 43.5 198.035C34.3873 198.035 32 196.319 32 188.035C32 179.751 37.3873 179.531 46.5 179.531C55.6127 179.531 44.5 165 57 165Z" fill="url(#paint0_linear_187_3804)"/>
</g>
<path d="M57 165.5C57.3455 165.5 57.7053 165.689 58.0744 166.192C58.4463 166.699 58.7797 167.465 59.0574 168.462C59.6112 170.45 59.9065 173.214 59.9375 176.255C59.9996 182.338 59.0044 189.35 57.0664 193.249C55.6698 195.34 53.2688 196.426 50.675 196.979C48.077 197.533 45.3775 197.535 43.5 197.535C41.2321 197.535 39.4117 197.428 37.9534 197.146C36.4972 196.866 35.4351 196.417 34.6551 195.759C33.1079 194.454 32.5 192.172 32.5 188.035C32.5 186.013 32.8295 184.538 33.423 183.451C34.0102 182.376 34.8772 181.642 36.0336 181.134C37.2029 180.621 38.6673 180.341 40.4318 180.193C42.1942 180.045 44.2191 180.031 46.5 180.031C47.7019 180.031 48.6325 179.792 49.3333 179.322C50.041 178.848 50.4604 178.174 50.7035 177.413C50.9434 176.662 51.0171 175.809 51.0309 174.941C51.0404 174.347 51.0213 173.718 51.0025 173.094C50.994 172.812 50.9855 172.531 50.9797 172.255C50.9411 170.425 51.0222 168.756 51.7904 167.537C52.5229 166.375 53.9704 165.5 57 165.5Z" stroke="#9A7660"/>
<g filter="url(#filter1_i_187_3804)">
<path d="M70.4414 165C65.9414 165 65.9414 185.5 69.9414 193.5C72.9414 198.035 80.1964 198.035 83.9414 198.035C93.0541 198.035 95.4414 196.319 95.4414 188.035C95.4414 179.751 90.0541 179.531 80.9414 179.531C71.8287 179.531 82.9414 165 70.4414 165Z" fill="url(#paint1_linear_187_3804)"/>
</g>
<path d="M70.4414 165.5C70.0959 165.5 69.7361 165.689 69.367 166.192C68.9951 166.699 68.6618 167.465 68.384 168.462C67.8302 170.45 67.5349 173.214 67.5039 176.255C67.4418 182.338 68.437 189.35 70.375 193.249C71.7717 195.34 74.1726 196.426 76.7664 196.979C79.3644 197.533 82.0639 197.535 83.9414 197.535C86.2093 197.535 88.0297 197.428 89.488 197.146C90.9442 196.866 92.0063 196.417 92.7863 195.759C94.3335 194.454 94.9414 192.172 94.9414 188.035C94.9414 186.013 94.6119 184.538 94.0184 183.451C93.4312 182.376 92.5642 181.642 91.4078 181.134C90.2385 180.621 88.7741 180.341 87.0096 180.193C85.2472 180.045 83.2223 180.031 80.9414 180.031C79.7395 180.031 78.8089 179.792 78.1082 179.322C77.4004 178.848 76.981 178.174 76.7379 177.413C76.498 176.662 76.4243 175.809 76.4105 174.941C76.401 174.347 76.4201 173.718 76.4389 173.094C76.4474 172.812 76.4559 172.531 76.4618 172.255C76.5003 170.425 76.4192 168.756 75.651 167.537C74.9186 166.375 73.4711 165.5 70.4414 165.5Z" stroke="#9A7660"/>
<mask id="path-5-inside-1_187_3804" fill="white">
<path fill-rule="evenodd" clip-rule="evenodd" d="M89.5338 148.443C89.8197 150.116 90.1496 151.745 90.4686 153.32C93.2167 166.889 95.1624 176.496 61.3348 176.496C27.5072 176.496 29.453 166.889 32.201 153.32C32.7628 150.546 33.3581 147.607 33.6882 144.55C32.9878 144.817 32.2699 145.062 31.536 145.284C19.1147 149.028 6.0454 147.42 2.58816 135.951C-4.37424 112.854 3.81406 114.163 14.0677 115.803C16.9549 116.265 20.0059 116.753 22.9286 116.729C26.1217 116.704 29.1295 116.471 31.8946 116.257L31.8946 116.257C34.8429 116.029 37.5153 115.823 39.8421 115.911C44.4446 108.3 51.6809 103.496 61.3348 103.496C71.2643 103.496 78.6361 108.578 83.2151 116.569C85.0883 116.89 87.1306 117.373 89.3303 117.893C92.0292 118.532 94.9649 119.227 98.1157 119.746C101 120.22 104.089 120.21 107.013 120.2C117.397 120.165 125.689 120.136 115.241 141.88C110.687 151.357 99.9894 152.183 89.5338 148.443Z"/>
</mask>
<path fill-rule="evenodd" clip-rule="evenodd" d="M89.5338 148.443C89.8197 150.116 90.1496 151.745 90.4686 153.32C93.2167 166.889 95.1624 176.496 61.3348 176.496C27.5072 176.496 29.453 166.889 32.201 153.32C32.7628 150.546 33.3581 147.607 33.6882 144.55C32.9878 144.817 32.2699 145.062 31.536 145.284C19.1147 149.028 6.0454 147.42 2.58816 135.951C-4.37424 112.854 3.81406 114.163 14.0677 115.803C16.9549 116.265 20.0059 116.753 22.9286 116.729C26.1217 116.704 29.1295 116.471 31.8946 116.257L31.8946 116.257C34.8429 116.029 37.5153 115.823 39.8421 115.911C44.4446 108.3 51.6809 103.496 61.3348 103.496C71.2643 103.496 78.6361 108.578 83.2151 116.569C85.0883 116.89 87.1306 117.373 89.3303 117.893C92.0292 118.532 94.9649 119.227 98.1157 119.746C101 120.22 104.089 120.21 107.013 120.2C117.397 120.165 125.689 120.136 115.241 141.88C110.687 151.357 99.9894 152.183 89.5338 148.443Z" fill="url(#paint2_linear_187_3804)"/>
<path d="M89.5338 148.443L89.8706 147.501L88.2599 146.925L88.5481 148.611L89.5338 148.443ZM90.4686 153.32L91.4487 153.121L90.4686 153.32ZM32.201 153.32L31.2209 153.121L32.201 153.32ZM33.6882 144.55L34.6824 144.657L34.8578 143.034L33.3318 143.616L33.6882 144.55ZM31.536 145.284L31.8246 146.241L31.8246 146.241L31.536 145.284ZM2.58816 135.951L3.54561 135.662L2.58816 135.951ZM14.0677 115.803L13.9097 116.791L14.0677 115.803ZM22.9286 116.729L22.9366 117.729H22.9366L22.9286 116.729ZM31.8946 116.257L31.9717 117.254L32.0156 117.251L32.059 117.244L31.8946 116.257ZM31.8946 116.257L31.8175 115.26L31.7737 115.264L31.7302 115.271L31.8946 116.257ZM39.8421 115.911L39.8042 116.91L40.3929 116.932L40.6978 116.428L39.8421 115.911ZM83.2151 116.569L82.3475 117.066L82.5818 117.475L83.0465 117.555L83.2151 116.569ZM89.3303 117.893L89.5606 116.92L89.3303 117.893ZM98.1157 119.746L97.9532 120.732L97.9532 120.732L98.1157 119.746ZM107.013 120.2L107.017 121.2L107.013 120.2ZM115.241 141.88L116.142 142.313L115.241 141.88ZM88.5481 148.611C88.837 150.302 89.1699 151.945 89.4885 153.518L91.4487 153.121C91.1292 151.544 90.8025 149.93 90.5195 148.274L88.5481 148.611ZM89.4885 153.518C90.1808 156.937 90.7942 159.983 90.8329 162.68C90.8712 165.349 90.3425 167.556 88.8479 169.358C87.3386 171.178 84.7283 172.726 80.306 173.812C75.8863 174.897 69.7561 175.496 61.3348 175.496V177.496C69.8274 177.496 76.1393 176.894 80.7829 175.754C85.4239 174.615 88.4981 172.913 90.3873 170.635C92.2912 168.339 92.875 165.6 92.8327 162.651C92.7908 159.731 92.1304 156.487 91.4487 153.121L89.4885 153.518ZM61.3348 175.496C52.9136 175.496 46.7833 174.897 42.3636 173.812C37.9413 172.726 35.331 171.178 33.8218 169.358C32.3271 167.556 31.7984 165.349 31.8367 162.68C31.8754 159.983 32.4888 156.937 33.1811 153.518L31.2209 153.121C30.5392 156.487 29.8789 159.731 29.8369 162.651C29.7946 165.6 30.3785 168.339 32.2823 170.635C34.1716 172.913 37.2457 174.615 41.8867 175.754C46.5304 176.894 52.8423 177.496 61.3348 177.496V175.496ZM33.1811 153.518C33.7417 150.751 34.3466 147.767 34.6824 144.657L32.694 144.443C32.3696 147.446 31.7839 150.342 31.2209 153.121L33.1811 153.518ZM31.8246 146.241C32.5814 146.013 33.3218 145.76 34.0445 145.484L33.3318 143.616C32.6537 143.874 31.9585 144.112 31.2474 144.326L31.8246 146.241ZM1.63072 136.239C3.47554 142.359 7.91459 145.849 13.4486 147.29C18.9348 148.718 25.5039 148.146 31.8246 146.241L31.2474 144.326C25.1468 146.165 18.9705 146.661 13.9525 145.354C8.98223 144.06 5.15802 141.011 3.54561 135.662L1.63072 136.239ZM14.2256 114.816C11.6862 114.41 9.1644 114.004 6.96558 114.011C4.77149 114.019 2.68607 114.436 1.1802 115.879C-0.336283 117.331 -1.05059 119.614 -0.997205 122.845C-0.943737 126.08 -0.119984 130.432 1.63072 136.239L3.54561 135.662C1.81511 129.921 1.0515 125.775 1.00252 122.812C0.953466 119.843 1.62163 118.225 2.56362 117.323C3.51623 116.41 4.96528 116.019 6.97275 116.011C8.97548 116.004 11.3223 116.377 13.9097 116.791L14.2256 114.816ZM22.9206 115.729C20.0961 115.752 17.1292 115.28 14.2256 114.816L13.9097 116.791C16.7807 117.25 19.9158 117.754 22.9366 117.729L22.9206 115.729ZM31.8175 115.26C29.0488 115.474 26.0741 115.704 22.9205 115.729L22.9366 117.729C26.1693 117.703 29.2102 117.468 31.9717 117.254L31.8175 115.26ZM31.7302 115.271L31.7302 115.271L32.059 117.244L32.059 117.244L31.7302 115.271ZM39.88 114.911C37.4837 114.821 34.7488 115.033 31.8175 115.26L31.9718 117.254C34.937 117.025 37.5468 116.824 39.8042 116.91L39.88 114.911ZM40.6978 116.428C45.1406 109.081 52.0705 104.496 61.3348 104.496V102.496C51.2913 102.496 43.7485 107.518 38.9864 115.393L40.6978 116.428ZM61.3348 104.496C70.8605 104.496 77.9229 109.344 82.3475 117.066L84.0828 116.072C79.3493 107.811 71.668 102.496 61.3348 102.496V104.496ZM83.0465 117.555C84.8826 117.869 86.8924 118.344 89.1001 118.867L89.5606 116.92C87.3688 116.402 85.294 115.91 83.3838 115.583L83.0465 117.555ZM89.1001 118.867C91.7954 119.504 94.7634 120.207 97.9532 120.732L98.2782 118.759C95.1665 118.246 92.2629 117.56 89.5606 116.92L89.1001 118.867ZM97.9532 120.732C100.934 121.223 104.109 121.21 107.017 121.2L107.01 119.2C104.069 119.21 101.065 119.218 98.2782 118.759L97.9532 120.732ZM107.017 121.2C109.637 121.191 112.013 121.186 113.991 121.502C115.973 121.82 117.344 122.431 118.144 123.479C118.935 124.516 119.346 126.218 118.838 129.143C118.332 132.064 116.937 136.042 114.34 141.447L116.142 142.313C118.77 136.845 120.256 132.673 120.809 129.485C121.361 126.301 121.008 123.936 119.734 122.266C118.469 120.608 116.473 119.874 114.307 119.527C112.136 119.18 109.581 119.191 107.01 119.2L107.017 121.2ZM114.34 141.447C112.21 145.878 108.674 148.271 104.402 149.138C100.087 150.014 94.9914 149.333 89.8706 147.501L89.197 149.384C94.5318 151.293 100.013 152.069 104.799 151.098C109.628 150.118 113.718 147.359 116.142 142.313L114.34 141.447Z" fill="#9A7660" mask="url(#path-5-inside-1_187_3804)"/>
<path d="M89.3776 118.461C89.3522 110.832 78.0357 115.568 64.8706 115.612C51.7056 115.656 41.6774 110.991 41.7029 118.62C41.7283 126.249 52.4145 130.389 65.5796 130.345C78.7446 130.302 89.403 126.091 89.3776 118.461Z" fill="#F3E0C1"/>
<mask id="path-8-inside-2_187_3804" fill="white">
<path fill-rule="evenodd" clip-rule="evenodd" d="M57.5259 9.75271C55.9147 10.6072 54.3435 11.4406 52.8326 12.2668C26.941 16.6551 7.21981 39.2646 7.21981 66.4965C7.21981 69.1937 7.16904 71.8456 7.11938 74.4389C6.60984 101.051 6.21837 121.497 62.0254 121.497C117.832 121.497 117.441 101.051 116.931 74.4389C116.882 71.8456 116.831 69.1937 116.831 66.4965C116.831 55.1428 113.403 44.5925 107.529 35.8314C111.996 32.1569 114.258 28.3706 113.364 25.1723C112.339 21.5067 107.369 19.3299 100.224 18.8014C102.731 14.0759 103.297 9.57836 101.392 6.06968C96.7404 -2.50074 79.1094 -1.92553 62.0122 7.35444C60.4941 8.17845 58.9937 8.97423 57.5264 9.75243L57.5263 9.75247L57.5259 9.75271Z"/>
</mask>
<g filter="url(#filter2_i_187_3804)">
<path fill-rule="evenodd" clip-rule="evenodd" d="M57.5259 9.75271C55.9147 10.6072 54.3435 11.4406 52.8326 12.2668C26.941 16.6551 7.21981 39.2646 7.21981 66.4965C7.21981 69.1937 7.16904 71.8456 7.11938 74.4389C6.60984 101.051 6.21837 121.497 62.0254 121.497C117.832 121.497 117.441 101.051 116.931 74.4389C116.882 71.8456 116.831 69.1937 116.831 66.4965C116.831 55.1428 113.403 44.5925 107.529 35.8314C111.996 32.1569 114.258 28.3706 113.364 25.1723C112.339 21.5067 107.369 19.3299 100.224 18.8014C102.731 14.0759 103.297 9.57836 101.392 6.06968C96.7404 -2.50074 79.1094 -1.92553 62.0122 7.35444C60.4941 8.17845 58.9937 8.97423 57.5264 9.75243L57.5263 9.75247L57.5259 9.75271Z" fill="url(#paint3_linear_187_3804)"/>
</g>
<path d="M52.8326 12.2668L52.9997 13.2528L53.1652 13.2247L53.3124 13.1442L52.8326 12.2668ZM57.5259 9.75271L57.0606 8.86754L57.0573 8.86927L57.5259 9.75271ZM7.11938 74.4389L6.11957 74.4198L7.11938 74.4389ZM116.931 74.4389L115.932 74.4581L116.931 74.4389ZM107.529 35.8314L106.894 35.0591L106.193 35.6351L106.698 36.3883L107.529 35.8314ZM113.364 25.1723L112.401 25.4415L113.364 25.1723ZM100.224 18.8014L99.3409 18.3329L98.6234 19.6857L100.151 19.7987L100.224 18.8014ZM101.392 6.06968L100.513 6.54672L101.392 6.06968ZM62.0122 7.35444L62.4893 8.23332L62.0122 7.35444ZM57.5264 9.75243L57.0578 8.86896L57.0501 8.87314L57.5264 9.75243ZM57.5263 9.75247L57.9916 10.6377L58.0026 10.6318L57.5263 9.75247ZM53.3124 13.1442C54.8167 12.3216 56.3821 11.4913 57.9944 10.6361L57.0573 8.86927C55.4473 9.72321 53.8703 10.5596 52.3528 11.3895L53.3124 13.1442ZM8.21981 66.4965C8.21981 39.7579 27.5835 17.5604 52.9997 13.2528L52.6655 11.2809C26.2984 15.7497 6.21981 38.7712 6.21981 66.4965H8.21981ZM8.1192 74.4581C8.16883 71.8662 8.21981 69.2048 8.21981 66.4965H6.21981C6.21981 69.1826 6.16925 71.8251 6.11957 74.4198L8.1192 74.4581ZM62.0254 120.497C34.1584 120.497 20.7359 115.373 14.2317 107.319C10.9784 103.291 9.37571 98.4361 8.62664 92.885C7.87526 87.3167 7.99144 81.1306 8.1192 74.4581L6.11957 74.4198C5.99255 81.0534 5.86872 87.4025 6.6446 93.1524C7.42279 98.9194 9.11466 104.166 12.6757 108.576C19.8 117.397 34.0854 122.497 62.0254 122.497V120.497ZM115.932 74.4581C116.059 81.1306 116.176 87.3167 115.424 92.885C114.675 98.4362 113.072 103.291 109.819 107.319C103.315 115.373 89.8924 120.497 62.0254 120.497V122.497C89.9654 122.497 104.251 117.397 111.375 108.576C114.936 104.166 116.628 98.9194 117.406 93.1524C118.182 87.4025 118.058 81.0534 117.931 74.4198L115.932 74.4581ZM115.831 66.4965C115.831 69.2048 115.882 71.8662 115.932 74.4581L117.931 74.4198C117.882 71.8251 117.831 69.1826 117.831 66.4965H115.831ZM106.698 36.3883C112.465 44.9897 115.831 55.347 115.831 66.4965H117.831C117.831 54.9385 114.341 44.1954 108.359 35.2745L106.698 36.3883ZM112.401 25.4415C112.755 26.7087 112.513 28.1785 111.584 29.8344C110.654 31.4949 109.07 33.2686 106.894 35.0591L108.164 36.6037C110.454 34.7197 112.236 32.7631 113.329 30.8122C114.425 28.8567 114.867 26.8343 114.327 24.9031L112.401 25.4415ZM100.151 19.7987C103.653 20.0578 106.549 20.7172 108.662 21.7148C110.779 22.7137 111.995 23.9911 112.401 25.4415L114.327 24.9031C113.708 22.6879 111.927 21.0441 109.516 19.9061C107.102 18.7668 103.941 18.0736 100.298 17.8041L100.151 19.7987ZM100.513 6.54672C102.19 9.63501 101.772 13.7494 99.3409 18.3329L101.108 19.2699C103.689 14.4025 104.404 9.52171 102.271 5.59264L100.513 6.54672ZM62.4893 8.23332C70.9307 3.6515 79.4614 1.24406 86.4018 1.01763C93.4083 0.789046 98.4648 2.77257 100.513 6.54672L102.271 5.59264C99.6678 0.796373 93.5829 -1.21771 86.3366 -0.981307C79.0243 -0.742744 70.1909 1.7774 61.5352 6.47556L62.4893 8.23332ZM57.995 10.6359C59.4616 9.858 60.9662 9.06 62.4893 8.23332L61.5352 6.47556C60.022 7.2969 58.5258 8.09046 57.0579 8.869L57.995 10.6359ZM58.0026 10.6318L58.0027 10.6317L57.0501 8.87314L57.0501 8.87318L58.0026 10.6318ZM57.9912 10.6379L57.9916 10.6376L57.0611 8.86731L57.0606 8.86754L57.9912 10.6379Z" fill="#9A7660" mask="url(#path-8-inside-2_187_3804)"/>
<circle cx="27.5254" cy="90.9961" r="15.5" fill="#FFC3D8"/>
<circle cx="95.5254" cy="91.9961" r="15.5" fill="#FFC3D8"/>
<path d="M44.0254 79.9052C44.0254 84.0473 41.7868 85.4961 39.0254 85.4961C36.264 85.4961 34.0254 84.0473 34.0254 79.9052C34.0254 75.763 36.264 73.4961 39.0254 73.4961C41.7868 73.4961 44.0254 75.763 44.0254 79.9052Z" fill="black"/>
<path d="M89.0254 79.9052C89.0254 84.0473 86.7868 85.4961 84.0254 85.4961C81.264 85.4961 79.0254 84.0473 79.0254 79.9052C79.0254 75.763 81.264 73.4961 84.0254 73.4961C86.7868 73.4961 89.0254 75.763 89.0254 79.9052Z" fill="black"/>
<path d="M49.6772 70.4148C48.3261 71.7659 46.1012 70.486 43.9395 68.3243C41.7777 66.1626 40.4979 63.9377 41.849 62.5866C43.2 61.2355 45.6919 62.2485 47.8536 64.4102C50.0153 66.5719 51.0283 69.0638 49.6772 70.4148Z" fill="#C6A590"/>
<path d="M5.16129 128.322C5.28372 127.301 7.23869 128.173 9.59745 128.456C11.9562 128.739 13.8255 128.325 13.7031 129.346C13.5807 130.367 11.6015 130.696 9.24276 130.414C6.88401 130.131 5.03886 129.343 5.16129 128.322Z" fill="#ECD3AA"/>
<path d="M98.0765 8.79799C97.0837 8.53034 97.1628 10.6696 96.5444 12.9634C95.926 15.2571 94.8442 16.8368 95.837 17.1044C96.8297 17.3721 97.8744 15.6591 98.4928 13.3653C99.1112 11.0716 99.0692 9.06565 98.0765 8.79799Z" fill="#ECD3AA"/>
<path d="M94.3063 6.34488C93.4733 5.74209 93.076 7.37118 92.0186 8.83246C90.9611 10.2937 89.6438 11.0338 90.4768 11.6366C91.3097 12.2394 92.6229 11.3847 93.6804 9.92346C94.7378 8.46218 95.1392 6.94767 94.3063 6.34488Z" fill="#ECD3AA"/>
<path d="M109.652 26.4775C109.053 25.6419 108.16 27.0611 106.694 28.112C105.228 29.1629 103.744 29.4475 104.343 30.2831C104.942 31.1188 106.458 30.7243 107.924 29.6734C109.39 28.6225 110.251 27.3132 109.652 26.4775Z" fill="#ECD3AA"/>
<path d="M112.653 131.584C112.531 130.563 110.576 131.435 108.217 131.718C105.858 132.001 103.989 131.587 104.111 132.608C104.234 133.629 106.213 133.958 108.572 133.675C110.93 133.392 112.776 132.604 112.653 131.584Z" fill="#ECD3AA"/>
<path d="M8.07217 137.715C7.92458 136.697 10.0392 137.031 12.3903 136.69C14.7413 136.349 16.4385 135.463 16.5861 136.48C16.7337 137.498 14.9085 138.331 12.5575 138.672C10.2064 139.013 8.21975 138.733 8.07217 137.715Z" fill="#ECD3AA"/>
<path d="M109.742 140.977C109.89 139.959 107.775 140.292 105.424 139.951C103.073 139.61 101.376 138.724 101.228 139.742C101.081 140.76 102.906 141.593 105.257 141.934C107.608 142.275 109.595 141.994 109.742 140.977Z" fill="#ECD3AA"/>
<path d="M73.1158 70.4148C74.4668 71.7659 76.6918 70.486 78.8535 68.3243C81.0152 66.1626 82.2951 63.9377 80.944 62.5866C79.5929 61.2355 77.1011 62.2485 74.9394 64.4102C72.7777 66.5719 71.7647 69.0638 73.1158 70.4148Z" fill="#C6A590"/>
<path d="M71.2168 87.1458C71.2168 91.0578 63.0739 97.0625 61.7168 97.0625C59.0025 97.0625 52.2168 91.0578 52.2168 87.1458C52.2168 83.2338 56.4701 80.0625 61.7168 80.0625C66.9635 80.0625 71.2168 83.2338 71.2168 87.1458Z" fill="#F5A327"/>
<path d="M44.231 98.7317C48.7147 94.1909 62.8023 86.4031 83.2831 91.5777" stroke="url(#paint4_linear_187_3804)" stroke-width="2.8" stroke-linecap="round"/>
<mask id="path-25-outside-3_187_3804" maskUnits="userSpaceOnUse" x="30.7199" y="87.4269" width="24.7699" height="24.7699" fill="black">
<rect fill="white" x="30.7199" y="87.4269" width="24.7699" height="24.7699"/>
<path fill-rule="evenodd" clip-rule="evenodd" d="M43.0969 92.4867C42.7396 91.868 42.3442 91.3341 41.9457 90.9428C40.0414 89.073 36.8352 89.2502 34.7844 91.3388C32.7335 93.4274 32.6147 96.6363 34.519 98.5062C34.9882 98.9669 35.6549 99.4197 36.424 99.8092C35.5432 100.244 34.7781 100.765 34.2615 101.291C32.3917 103.195 32.569 106.401 34.6575 108.452C36.7461 110.503 39.955 110.622 41.8249 108.717C42.3359 108.197 42.8371 107.434 43.2532 106.557C43.6364 107.272 44.0745 107.889 44.5181 108.324C46.3916 110.164 49.573 109.962 51.6238 107.874C53.6746 105.785 53.8183 102.601 51.9448 100.761C51.5715 100.395 51.0702 100.034 50.4904 99.7087C50.7942 99.5198 51.0562 99.3165 51.2629 99.1061C52.7708 97.5704 52.3001 94.663 50.2116 92.6121C48.123 90.5613 45.2075 90.1437 43.6995 91.6794C43.4875 91.8953 43.2841 92.1694 43.0969 92.4867Z"/>
</mask>
<path fill-rule="evenodd" clip-rule="evenodd" d="M43.0969 92.4867C42.7396 91.868 42.3442 91.3341 41.9457 90.9428C40.0414 89.073 36.8352 89.2502 34.7844 91.3388C32.7335 93.4274 32.6147 96.6363 34.519 98.5062C34.9882 98.9669 35.6549 99.4197 36.424 99.8092C35.5432 100.244 34.7781 100.765 34.2615 101.291C32.3917 103.195 32.569 106.401 34.6575 108.452C36.7461 110.503 39.955 110.622 41.8249 108.717C42.3359 108.197 42.8371 107.434 43.2532 106.557C43.6364 107.272 44.0745 107.889 44.5181 108.324C46.3916 110.164 49.573 109.962 51.6238 107.874C53.6746 105.785 53.8183 102.601 51.9448 100.761C51.5715 100.395 51.0702 100.034 50.4904 99.7087C50.7942 99.5198 51.0562 99.3165 51.2629 99.1061C52.7708 97.5704 52.3001 94.663 50.2116 92.6121C48.123 90.5613 45.2075 90.1437 43.6995 91.6794C43.4875 91.8953 43.2841 92.1694 43.0969 92.4867Z" fill="#EABA34"/>
<path d="M41.9457 90.9428L41.2451 91.6564L41.2451 91.6564L41.9457 90.9428ZM43.0969 92.4867L42.2309 92.9868L43.0875 94.4702L43.9581 92.9949L43.0969 92.4867ZM34.7844 91.3388L35.4979 92.0394L34.7844 91.3388ZM34.519 98.5062L35.2197 97.7927L34.519 98.5062ZM36.424 99.8092L36.8666 100.706L38.6598 99.8207L36.8758 98.9171L36.424 99.8092ZM34.2615 101.291L33.548 100.59L33.548 100.59L34.2615 101.291ZM34.6575 108.452L33.9569 109.166L34.6575 108.452ZM41.8249 108.717L42.5384 109.418L42.5384 109.418L41.8249 108.717ZM43.2532 106.557L44.1346 106.085L43.1991 104.339L42.3498 106.128L43.2532 106.557ZM44.5181 108.324L43.8174 109.038L44.5181 108.324ZM51.6238 107.874L52.3373 108.574L51.6238 107.874ZM51.9448 100.761L51.2441 101.475L51.2441 101.475L51.9448 100.761ZM50.4904 99.7087L49.9623 98.8595L48.526 99.7527L50.0008 100.581L50.4904 99.7087ZM51.2629 99.1061L50.5493 98.4055L50.5493 98.4055L51.2629 99.1061ZM50.2116 92.6121L49.511 93.3257L49.511 93.3257L50.2116 92.6121ZM43.6995 91.6794L44.413 92.3801L44.413 92.3801L43.6995 91.6794ZM41.2451 91.6564C41.5619 91.9674 41.9049 92.4223 42.2309 92.9868L43.9629 91.9866C43.5742 91.3136 43.1265 90.7008 42.6463 90.2293L41.2451 91.6564ZM35.4979 92.0394C37.2241 90.2815 39.7955 90.2329 41.2451 91.6564L42.6463 90.2293C40.2874 87.913 36.4463 88.219 34.0708 90.6382L35.4979 92.0394ZM35.2197 97.7927C33.77 96.3692 33.7717 93.7974 35.4979 92.0394L34.0708 90.6382C31.6954 93.0573 31.4594 96.9034 33.8184 99.2197L35.2197 97.7927ZM36.8758 98.9171C36.1679 98.5585 35.5947 98.1609 35.2197 97.7927L33.8184 99.2197C34.3818 99.7729 35.1419 100.281 35.9721 100.701L36.8758 98.9171ZM34.9751 101.991C35.3897 101.569 36.0516 101.108 36.8666 100.706L35.9813 98.9125C35.0347 99.3798 34.1665 99.9602 33.548 100.59L34.9751 101.991ZM35.3581 107.739C33.6002 106.012 33.5516 103.441 34.9751 101.991L33.548 100.59C31.2317 102.949 31.5377 106.79 33.9569 109.166L35.3581 107.739ZM41.1114 108.017C39.6879 109.466 37.1161 109.465 35.3581 107.739L33.9569 109.166C36.3761 111.541 40.2221 111.777 42.5384 109.418L41.1114 108.017ZM42.3498 106.128C41.965 106.939 41.5214 107.599 41.1114 108.017L42.5384 109.418C43.1504 108.795 43.7093 107.928 44.1566 106.986L42.3498 106.128ZM45.2187 107.611C44.8676 107.266 44.4858 106.74 44.1346 106.085L42.3717 107.029C42.787 107.804 43.2814 108.512 43.8174 109.038L45.2187 107.611ZM50.9103 107.173C49.1729 108.943 46.6273 108.994 45.2187 107.611L43.8174 109.038C46.156 111.334 49.9731 110.982 52.3373 108.574L50.9103 107.173ZM51.2441 101.475C52.6527 102.858 52.6477 105.404 50.9103 107.173L52.3373 108.574C54.7016 106.167 54.9839 102.344 52.6454 100.048L51.2441 101.475ZM50.0008 100.581C50.5266 100.876 50.9504 101.186 51.2441 101.475L52.6454 100.048C52.1927 99.603 51.6137 99.1926 50.9799 98.8368L50.0008 100.581ZM50.5493 98.4055C50.4105 98.5469 50.215 98.7024 49.9623 98.8595L51.0184 100.558C51.3734 100.337 51.702 100.086 51.9764 99.8068L50.5493 98.4055ZM49.511 93.3257C50.419 94.2173 50.946 95.2683 51.0988 96.2121C51.2517 97.1565 51.0273 97.9187 50.5493 98.4055L51.9764 99.8068C53.0064 98.7578 53.3007 97.2984 53.0731 95.8925C52.8454 94.486 52.0927 93.0578 50.9122 91.8986L49.511 93.3257ZM44.413 92.3801C44.891 91.8933 45.649 91.6551 46.596 91.7907C47.5425 91.9263 48.6029 92.434 49.511 93.3257L50.9122 91.8986C49.7317 90.7395 48.29 90.013 46.8796 89.8109C45.4697 89.609 44.016 89.9299 42.986 90.9788L44.413 92.3801ZM43.9581 92.9949C44.1143 92.7302 44.2705 92.5253 44.413 92.3801L42.986 90.9788C42.7046 91.2653 42.4539 91.6086 42.2356 91.9785L43.9581 92.9949Z" fill="#9A7660" mask="url(#path-25-outside-3_187_3804)"/>
<path d="M34.2618 101.29C36.1317 99.3861 41.2571 97.5532 43.3456 99.604C45.4342 101.655 43.695 106.813 41.8252 108.717C39.9553 110.621 36.7463 110.503 34.6578 108.452C32.5692 106.401 32.3919 103.195 34.2618 101.29Z" fill="#FFFA67"/>
<path d="M41.945 90.9425C43.8493 92.8123 45.6822 97.9377 43.6313 100.026C41.5805 102.115 36.4226 100.376 34.5183 98.5058C32.614 96.6359 32.7328 93.427 34.7837 91.3384C36.8345 89.2499 40.0407 89.0726 41.945 90.9425Z" fill="#FFE252"/>
<path d="M51.2626 99.1058C49.7547 100.641 45.2936 101.798 43.205 99.747C41.1165 97.6962 42.1913 93.2148 43.6993 91.6791C45.2072 90.1434 48.1228 90.561 50.2114 92.6118C52.2999 94.6626 52.7706 97.5701 51.2626 99.1058Z" fill="#FFFA67"/>
<path d="M44.5188 108.324C42.6453 106.484 40.8687 101.414 42.9196 99.3258C44.9704 97.2372 50.0719 98.921 51.9455 100.761C53.8191 102.6 53.6754 105.785 51.6245 107.873C49.5737 109.962 46.3924 110.164 44.5188 108.324Z" fill="#FFE252"/>
<path d="M40.4005 97.7377C41.3286 97.2508 42.0307 97.3285 42.257 97.76C42.4834 98.1914 42.1113 98.8327 41.2202 99.3001C40.5927 99.6293 39.8907 99.5516 39.6644 99.1202C39.438 98.6887 39.736 98.0863 40.4005 97.7377Z" fill="#EABA34"/>
<path d="M43.3464 101.486C43.3002 100.439 43.669 99.8365 44.1558 99.8151C44.6425 99.7936 45.0648 100.403 45.109 101.408C45.1402 102.116 44.7714 102.719 44.2847 102.74C43.7979 102.761 43.3794 102.236 43.3464 101.486Z" fill="#EABA34"/>
<path d="M39.6866 101.474C40.5393 100.606 41.3033 100.403 41.6579 100.751C42.0126 101.099 41.7897 101.901 40.9709 102.735C40.3944 103.322 39.6305 103.525 39.2758 103.177C38.9211 102.829 39.076 102.096 39.6866 101.474Z" fill="#EABA34"/>
<path d="M71.0254 85.9128C71.0254 88.9043 62.8825 93.4961 61.5254 93.4961C58.8111 93.4961 52.0254 88.9043 52.0254 85.9128C52.0254 82.9212 56.2787 77.4961 61.5254 77.4961C66.7721 77.4961 71.0254 82.9212 71.0254 85.9128Z" fill="#FFCB52"/>
<defs>
<filter id="filter0_i_187_3804" x="29" y="162" width="31.4395" height="36.0352" filterUnits="userSpaceOnUse" color-interpolation-filters="sRGB">
<feFlood flood-opacity="0" result="BackgroundImageFix"/>
<feBlend mode="normal" in="SourceGraphic" in2="BackgroundImageFix" result="shape"/>
<feColorMatrix in="SourceAlpha" type="matrix" values="0 0 0 0 0 0 0 0 0 0 0 0 0 0 0 0 0 0 127 0" result="hardAlpha"/>
<feOffset dx="-3" dy="-3"/>
<feGaussianBlur stdDeviation="2"/>
<feComposite in2="hardAlpha" operator="arithmetic" k2="-1" k3="1"/>
<feColorMatrix type="matrix" values="0 0 0 0 0.87451 0 0 0 0 0.32366 0 0 0 0 0.2 0 0 0 1 0"/>
<feBlend mode="normal" in2="shape" result="effect1_innerShadow_187_3804"/>
</filter>
<filter id="filter1_i_187_3804" x="64.002" y="162" width="31.4395" height="36.0352" filterUnits="userSpaceOnUse" color-interpolation-filters="sRGB">
<feFlood flood-opacity="0" result="BackgroundImageFix"/>
<feBlend mode="normal" in="SourceGraphic" in2="BackgroundImageFix" result="shape"/>
<feColorMatrix in="SourceAlpha" type="matrix" values="0 0 0 0 0 0 0 0 0 0 0 0 0 0 0 0 0 0 127 0" result="hardAlpha"/>
<feOffset dx="-3" dy="-3"/>
<feGaussianBlur stdDeviation="2"/>
<feComposite in2="hardAlpha" operator="arithmetic" k2="-1" k3="1"/>
<feColorMatrix type="matrix" values="0 0 0 0 0.87451 0 0 0 0 0.32366 0 0 0 0 0.2 0 0 0 1 0"/>
<feBlend mode="normal" in2="shape" result="effect1_innerShadow_187_3804"/>
</filter>
<filter id="filter2_i_187_3804" x="2.02539" y="-2" width="115" height="123.496" filterUnits="userSpaceOnUse" color-interpolation-filters="sRGB">
<feFlood flood-opacity="0" result="BackgroundImageFix"/>
<feBlend mode="normal" in="SourceGraphic" in2="BackgroundImageFix" result="shape"/>
<feColorMatrix in="SourceAlpha" type="matrix" values="0 0 0 0 0 0 0 0 0 0 0 0 0 0 0 0 0 0 127 0" result="hardAlpha"/>
<feOffset dx="-5" dy="-2"/>
<feGaussianBlur stdDeviation="10"/>
<feComposite in2="hardAlpha" operator="arithmetic" k2="-1" k3="1"/>
<feColorMatrix type="matrix" values="0 0 0 0 0.92549 0 0 0 0 0.827451 0 0 0 0 0.666667 0 0 0 1 0"/>
<feBlend mode="normal" in2="shape" result="effect1_innerShadow_187_3804"/>
</filter>
<linearGradient id="paint0_linear_187_3804" x1="46.2201" y1="165" x2="46.2201" y2="198.035" gradientUnits="userSpaceOnUse">
<stop stop-color="#FF8266"/>
<stop offset="1" stop-color="#FF6846"/>
</linearGradient>
<linearGradient id="paint1_linear_187_3804" x1="81.2213" y1="165" x2="81.2213" y2="198.035" gradientUnits="userSpaceOnUse">
<stop stop-color="#FF8266"/>
<stop offset="1" stop-color="#FF6846"/>
</linearGradient>
<linearGradient id="paint2_linear_187_3804" x1="22.5205" y1="103.496" x2="22.5205" y2="143.406" gradientUnits="userSpaceOnUse">
<stop stop-color="#FFFBEC"/>
<stop offset="1" stop-color="#FDECCC"/>
</linearGradient>
<linearGradient id="paint3_linear_187_3804" x1="62" y1="27.5" x2="62.0254" y2="121.497" gradientUnits="userSpaceOnUse">
<stop stop-color="#FFFBEC"/>
<stop offset="1" stop-color="#FDECCC"/>
</linearGradient>
<linearGradient id="paint4_linear_187_3804" x1="68.001" y1="92.5" x2="49.7403" y2="87.4318" gradientUnits="userSpaceOnUse">
<stop stop-color="#00C38C"/>
<stop offset="1" stop-color="#00A375"/>
</linearGradient>
</defs>
</svg>
