<svg width="110" height="195" viewBox="0 0 110 195" fill="none" xmlns="http://www.w3.org/2000/svg">
<g filter="url(#filter0_i_187_3850)">
<path d="M46 161C50.5 161 50.5 181.5 46.5 189.5C43.5 194.035 36.245 194.035 32.5 194.035C23.3873 194.035 21 192.319 21 184.035C21 175.751 26.3873 175.531 35.5 175.531C44.6127 175.531 33.5 161 46 161Z" fill="url(#paint0_linear_187_3850)"/>
</g>
<path d="M46 161.5C46.3455 161.5 46.7053 161.689 47.0744 162.192C47.4463 162.699 47.7797 163.465 48.0574 164.462C48.6112 166.45 48.9065 169.214 48.9375 172.255C48.9996 178.338 48.0044 185.35 46.0664 189.249C44.6698 191.34 42.2688 192.426 39.675 192.979C37.077 193.533 34.3775 193.535 32.5 193.535C30.2321 193.535 28.4117 193.428 26.9534 193.146C25.4972 192.866 24.4351 192.417 23.6551 191.759C22.1079 190.454 21.5 188.172 21.5 184.035C21.5 182.013 21.8295 180.538 22.423 179.451C23.0102 178.376 23.8772 177.642 25.0336 177.134C26.2029 176.621 27.6673 176.341 29.4318 176.193C31.1942 176.045 33.2191 176.031 35.5 176.031C36.7019 176.031 37.6325 175.792 38.3333 175.322C39.041 174.848 39.4604 174.174 39.7035 173.413C39.9434 172.662 40.0171 171.809 40.0309 170.941C40.0404 170.347 40.0213 169.718 40.0025 169.094C39.994 168.812 39.9855 168.531 39.9797 168.255C39.9411 166.425 40.0222 164.756 40.7904 163.537C41.5229 162.375 42.9704 161.5 46 161.5Z" stroke="#9A7660"/>
<g filter="url(#filter1_i_187_3850)">
<path d="M59.4414 161C54.9414 161 54.9414 181.5 58.9414 189.5C61.9414 194.035 69.1964 194.035 72.9414 194.035C82.0541 194.035 84.4414 192.319 84.4414 184.035C84.4414 175.751 79.0541 175.531 69.9414 175.531C60.8287 175.531 71.9414 161 59.4414 161Z" fill="url(#paint1_linear_187_3850)"/>
</g>
<path d="M59.4414 161.5C59.0959 161.5 58.7361 161.689 58.367 162.192C57.9951 162.699 57.6618 163.465 57.384 164.462C56.8302 166.45 56.5349 169.214 56.5039 172.255C56.4418 178.338 57.437 185.35 59.375 189.249C60.7717 191.34 63.1726 192.426 65.7664 192.979C68.3644 193.533 71.0639 193.535 72.9414 193.535C75.2093 193.535 77.0297 193.428 78.488 193.146C79.9442 192.866 81.0063 192.417 81.7863 191.759C83.3335 190.454 83.9414 188.172 83.9414 184.035C83.9414 182.013 83.6119 180.538 83.0184 179.451C82.4312 178.376 81.5642 177.642 80.4078 177.134C79.2385 176.621 77.7741 176.341 76.0096 176.193C74.2472 176.045 72.2223 176.031 69.9414 176.031C68.7395 176.031 67.8089 175.792 67.1082 175.322C66.4004 174.848 65.981 174.174 65.7379 173.413C65.498 172.662 65.4243 171.809 65.4105 170.941C65.401 170.347 65.4201 169.718 65.4389 169.094C65.4474 168.812 65.4559 168.531 65.4618 168.255C65.5003 166.425 65.4192 164.756 64.651 163.537C63.9186 162.375 62.4711 161.5 59.4414 161.5Z" stroke="#9A7660"/>
<mask id="path-5-inside-1_187_3850" fill="white">
<path d="M79.8876 133.5C79.8876 153.658 96.6181 170 52.5 170C8.38193 170 25.1124 153.658 25.1124 133.5C25.1124 113.342 34.6939 97 52.5 97C70.3061 97 79.8876 113.342 79.8876 133.5Z"/>
</mask>
<path d="M79.8876 133.5C79.8876 153.658 96.6181 170 52.5 170C8.38193 170 25.1124 153.658 25.1124 133.5C25.1124 113.342 34.6939 97 52.5 97C70.3061 97 79.8876 113.342 79.8876 133.5Z" fill="url(#paint2_linear_187_3850)"/>
<path d="M78.8876 133.5C78.8876 138.66 79.9587 143.567 80.8321 147.905C81.7205 152.318 82.3767 156.043 81.7578 159.112C81.4554 160.611 80.849 161.936 79.8082 163.1C78.7615 164.269 77.2335 165.321 75.0215 166.203C70.5684 167.977 63.4989 169 52.5 169V171C63.5601 171 70.9436 169.98 75.7618 168.061C78.1854 167.095 79.9976 165.887 81.2986 164.433C82.6057 162.973 83.3546 161.31 83.7183 159.507C84.4316 155.971 83.6625 151.831 82.7927 147.51C81.9078 143.115 80.8876 138.42 80.8876 133.5H78.8876ZM52.5 169C41.5011 169 34.4316 167.977 29.9785 166.203C27.7665 165.321 26.2385 164.269 25.1918 163.1C24.151 161.936 23.5446 160.611 23.2422 159.112C22.6233 156.043 23.2795 152.318 24.1679 147.905C25.0413 143.567 26.1124 138.66 26.1124 133.5H24.1124C24.1124 138.42 23.0922 143.115 22.2073 147.51C21.3375 151.831 20.5684 155.971 21.2817 159.507C21.6454 161.31 22.3943 162.973 23.7014 164.433C25.0024 165.887 26.8146 167.095 29.2382 168.061C34.0564 169.98 41.4399 171 52.5 171V169ZM26.1124 133.5C26.1124 123.563 28.4762 114.656 32.9483 108.264C37.3974 101.905 43.9487 98 52.5 98V96C43.2451 96 36.1027 100.266 31.3095 107.117C26.5394 113.936 24.1124 123.278 24.1124 133.5H26.1124ZM52.5 98C61.0512 98 67.6026 101.905 72.0517 108.264C76.5238 114.656 78.8876 123.563 78.8876 133.5H80.8876C80.8876 123.278 78.4606 113.936 73.6905 107.117C68.8973 100.266 61.7549 96 52.5 96V98Z" fill="#9A7660" mask="url(#path-5-inside-1_187_3850)"/>
<mask id="path-7-inside-2_187_3850" fill="white">
<path fill-rule="evenodd" clip-rule="evenodd" d="M50.5005 9.75271C48.8893 10.6072 47.3181 11.4406 45.8072 12.2668C19.9156 16.6551 0.194421 39.2646 0.194421 66.4965C0.194421 69.1937 0.143646 71.8456 0.0939911 74.4389C-0.415552 101.051 -0.807023 121.497 55 121.497C110.807 121.497 110.416 101.051 109.906 74.4389C109.856 71.8456 109.806 69.1937 109.806 66.4965C109.806 55.1428 106.377 44.5925 100.503 35.8314C104.971 32.1569 107.232 28.3706 106.338 25.1723C105.314 21.5067 100.344 19.3299 93.1989 18.8014C95.7051 14.0759 96.2713 9.57836 94.3669 6.06968C89.715 -2.50074 72.084 -1.92553 54.9868 7.35444C53.4687 8.17845 51.9683 8.97423 50.501 9.75243L50.5009 9.75247L50.5005 9.75271Z"/>
</mask>
<g filter="url(#filter2_i_187_3850)">
<path fill-rule="evenodd" clip-rule="evenodd" d="M50.5005 9.75271C48.8893 10.6072 47.3181 11.4406 45.8072 12.2668C19.9156 16.6551 0.194421 39.2646 0.194421 66.4965C0.194421 69.1937 0.143646 71.8456 0.0939911 74.4389C-0.415552 101.051 -0.807023 121.497 55 121.497C110.807 121.497 110.416 101.051 109.906 74.4389C109.856 71.8456 109.806 69.1937 109.806 66.4965C109.806 55.1428 106.377 44.5925 100.503 35.8314C104.971 32.1569 107.232 28.3706 106.338 25.1723C105.314 21.5067 100.344 19.3299 93.1989 18.8014C95.7051 14.0759 96.2713 9.57836 94.3669 6.06968C89.715 -2.50074 72.084 -1.92553 54.9868 7.35444C53.4687 8.17845 51.9683 8.97423 50.501 9.75243L50.5009 9.75247L50.5005 9.75271Z" fill="url(#paint3_linear_187_3850)"/>
</g>
<path d="M45.8072 12.2668L45.9743 13.2528L46.1398 13.2247L46.287 13.1442L45.8072 12.2668ZM50.5005 9.75271L50.0352 8.86754L50.0319 8.86927L50.5005 9.75271ZM0.0939911 74.4389L-0.905826 74.4198L0.0939911 74.4389ZM109.906 74.4389L108.906 74.4581L109.906 74.4389ZM100.503 35.8314L99.8681 35.0591L99.1678 35.6351L99.6728 36.3883L100.503 35.8314ZM106.338 25.1723L105.375 25.4415L106.338 25.1723ZM93.1989 18.8014L92.3155 18.3329L91.598 19.6857L93.1252 19.7987L93.1989 18.8014ZM94.3669 6.06968L93.488 6.54672L94.3669 6.06968ZM54.9868 7.35444L55.4639 8.23332L54.9868 7.35444ZM50.501 9.75243L50.0324 8.86896L50.0247 8.87314L50.501 9.75243ZM50.5009 9.75247L50.9663 10.6377L50.9772 10.6318L50.5009 9.75247ZM46.287 13.1442C47.7913 12.3216 49.3568 11.4913 50.9691 10.6361L50.0319 8.86927C48.4219 9.72321 46.8449 10.5596 45.3274 11.3895L46.287 13.1442ZM1.19442 66.4965C1.19442 39.7579 20.5581 17.5604 45.9743 13.2528L45.6401 11.2809C19.2731 15.7497 -0.805579 38.7712 -0.805579 66.4965H1.19442ZM1.09381 74.4581C1.14344 71.8662 1.19442 69.2048 1.19442 66.4965H-0.805579C-0.805579 69.1826 -0.856144 71.8251 -0.905826 74.4198L1.09381 74.4581ZM55 120.497C27.133 120.497 13.7105 115.373 7.20626 107.319C3.95298 103.291 2.35032 98.4361 1.60125 92.885C0.849871 87.3167 0.96605 81.1306 1.09381 74.4581L-0.905826 74.4198C-1.03284 81.0534 -1.15667 87.4025 -0.380789 93.1524C0.397401 98.9194 2.08927 104.166 5.6503 108.576C12.7747 117.397 27.06 122.497 55 122.497V120.497ZM108.906 74.4581C109.034 81.1306 109.15 87.3167 108.399 92.885C107.65 98.4362 106.047 103.291 102.794 107.319C96.2895 115.373 82.867 120.497 55 120.497V122.497C82.94 122.497 97.2253 117.397 104.35 108.576C107.911 104.166 109.603 98.9194 110.381 93.1524C111.157 87.4025 111.033 81.0534 110.906 74.4198L108.906 74.4581ZM108.806 66.4965C108.806 69.2048 108.857 71.8662 108.906 74.4581L110.906 74.4198C110.856 71.8251 110.806 69.1826 110.806 66.4965H108.806ZM99.6728 36.3883C105.44 44.9897 108.806 55.347 108.806 66.4965H110.806C110.806 54.9385 107.315 44.1954 101.334 35.2745L99.6728 36.3883ZM105.375 25.4415C105.729 26.7087 105.487 28.1785 104.559 29.8344C103.628 31.4949 102.045 33.2686 99.8681 35.0591L101.139 36.6037C103.429 34.7197 105.21 32.7631 106.304 30.8122C107.4 28.8567 107.841 26.8343 107.301 24.9031L105.375 25.4415ZM93.1252 19.7987C96.6277 20.0578 99.5236 20.7172 101.637 21.7148C103.753 22.7137 104.97 23.9911 105.375 25.4415L107.301 24.9031C106.682 22.6879 104.902 21.0441 102.491 19.9061C100.077 18.7668 96.9153 18.0736 93.2727 17.8041L93.1252 19.7987ZM93.488 6.54672C95.1642 9.63501 94.7464 13.7494 92.3155 18.3329L94.0824 19.2699C96.6639 14.4025 97.3784 9.52171 95.2457 5.59264L93.488 6.54672ZM55.4639 8.23332C63.9053 3.6515 72.436 1.24406 79.3764 1.01763C86.3829 0.789046 91.4394 2.77257 93.488 6.54672L95.2457 5.59264C92.6424 0.796373 86.5575 -1.21771 79.3112 -0.981307C71.9989 -0.742744 63.1655 1.7774 54.5098 6.47556L55.4639 8.23332ZM50.9696 10.6359C52.4362 9.858 53.9408 9.06 55.4639 8.23332L54.5098 6.47556C52.9966 7.2969 51.5004 8.09046 50.0325 8.869L50.9696 10.6359ZM50.9772 10.6318L50.9773 10.6317L50.0247 8.87314L50.0247 8.87318L50.9772 10.6318ZM50.9658 10.6379L50.9662 10.6376L50.0357 8.86731L50.0352 8.86754L50.9658 10.6379Z" fill="#9A7660" mask="url(#path-7-inside-2_187_3850)"/>
<path d="M90.0765 8.79799C89.0837 8.53034 89.1628 10.6696 88.5444 12.9634C87.926 15.2571 86.8442 16.8368 87.837 17.1044C88.8297 17.3721 89.8744 15.6591 90.4928 13.3653C91.1112 11.0716 91.0692 9.06565 90.0765 8.79799Z" fill="#ECD3AA"/>
<path d="M86.3063 6.34488C85.4733 5.74209 85.076 7.37118 84.0186 8.83246C82.9611 10.2937 81.6438 11.0338 82.4768 11.6366C83.3097 12.2394 84.6229 11.3847 85.6804 9.92346C86.7378 8.46218 87.1392 6.94767 86.3063 6.34488Z" fill="#ECD3AA"/>
<path d="M101.652 26.4775C101.053 25.6419 100.16 27.0611 98.6935 28.112C97.2275 29.1629 95.7436 29.4475 96.3426 30.2831C96.9417 31.1188 98.458 30.7243 99.924 29.6734C101.39 28.6225 102.251 27.3132 101.652 26.4775Z" fill="#ECD3AA"/>
<circle cx="21.5" cy="87.9443" r="15.5" fill="#FFC3D8"/>
<circle cx="89.5" cy="88.9443" r="15.5" fill="#FFC3D8"/>
<path d="M38 76.8534C38 80.9956 35.7614 82.4443 33 82.4443C30.2386 82.4443 28 80.9956 28 76.8534C28 72.7113 30.2386 70.4443 33 70.4443C35.7614 70.4443 38 72.7113 38 76.8534Z" fill="black"/>
<path d="M36.3023 77.3496C35.2408 78.7382 34.1418 77.2943 32.6243 76.1342C31.1068 74.9741 29.7453 74.537 30.8068 73.1485C31.8683 71.7599 33.6794 71.9405 35.197 73.1006C36.7145 74.2607 37.3638 75.9611 36.3023 77.3496Z" fill="white"/>
<path d="M30.0893 77.2266C30.8686 76.1875 31.6175 77.1947 32.6685 77.9828C33.7195 78.7709 34.6744 79.0415 33.8952 80.0806C33.1159 81.1198 31.8375 81.0496 30.7865 80.2614C29.7356 79.4733 29.3101 78.2657 30.0893 77.2266Z" fill="white"/>
<path d="M83 77.4091C83 81.5512 80.7614 83 78 83C75.2386 83 73 81.5512 73 77.4091C73 73.267 75.2386 71 78 71C80.7614 71 83 73.267 83 77.4091Z" fill="black"/>
<path d="M81.3023 77.9053C80.2408 79.2938 79.1418 77.8499 77.6243 76.6898C76.1068 75.5297 74.7453 75.0927 75.8068 73.7041C76.8683 72.3156 78.6794 72.4961 80.197 73.6562C81.7145 74.8163 82.3638 76.5167 81.3023 77.9053Z" fill="white"/>
<path d="M75.0893 77.7822C75.8686 76.7431 76.6175 77.7503 77.6685 78.5384C78.7195 79.3266 79.6744 79.5972 78.8952 80.6363C78.1159 81.6754 76.8375 81.6052 75.7865 80.8171C74.7356 80.029 74.3101 78.8214 75.0893 77.7822Z" fill="white"/>
<path d="M79.5295 51.0598C78.7805 52.8176 76.2386 52.4608 73.4262 51.2623C70.6138 50.0639 68.5959 48.4775 69.3449 46.7198C70.094 44.962 72.7838 44.9716 75.5962 46.17C78.4086 47.3685 80.2786 49.302 79.5295 51.0598Z" fill="#C6A590"/>
<path d="M42.8367 47.1992C43.4223 49.0179 41.2682 50.4136 38.3582 51.3507C35.4482 52.2877 32.8844 52.4112 32.2987 50.5924C31.7131 48.7737 33.7516 47.0187 36.6616 46.0817C39.5715 45.1447 42.251 45.3804 42.8367 47.1992Z" fill="#C6A590"/>
<path d="M65 84.25C65 87.7018 56.8571 93 55.5 93C52.7857 93 46 87.7018 46 84.25C46 80.7982 50.2533 78 55.5 78C60.7467 78 65 80.7982 65 84.25Z" fill="#F5A327"/>
<path d="M64.9746 83.2607C64.9746 85.5044 56.8318 88.9482 55.4746 88.9482C52.7603 88.9482 45.9746 85.5044 45.9746 83.2607C45.9746 81.0171 50.2279 76.9482 55.4746 76.9482C60.7213 76.9482 64.9746 81.0171 64.9746 83.2607Z" fill="#FFCB52"/>
<path d="M74.5823 131.602C74.5516 122.38 63.6059 122.037 51.3038 122.078C39.0016 122.119 30.0016 122.528 30.0323 131.751C30.063 140.973 40.0527 145.988 52.3548 145.947C64.657 145.906 74.613 140.825 74.5823 131.602Z" fill="#F3E0C1"/>
<path d="M40.8483 118.986L40.8483 118.986C39.2094 119.822 37.6411 120.216 36.229 120.469C35.683 120.567 35.1548 120.645 34.6593 120.717C34.5177 120.738 34.3787 120.759 34.2427 120.779C33.6246 120.872 33.0675 120.964 32.5644 121.091C31.5643 121.343 30.8376 121.718 30.3388 122.439C29.8275 123.178 29.5 124.36 29.5 126.351C29.5 134.267 34.5384 139.5 40.6211 139.5C43.7509 139.5 46.707 138.691 48.8778 136.682C51.0407 134.681 52.5 131.419 52.5 126.351C52.5 120.886 52.1191 117.533 51.4794 115.606C51.1601 114.644 50.7948 114.096 50.4346 113.805C50.0961 113.532 49.719 113.451 49.2601 113.527C48.7788 113.606 48.2187 113.857 47.5753 114.253C46.9366 114.646 46.2535 115.157 45.5259 115.72C45.3441 115.861 45.1595 116.005 44.9723 116.151C43.6826 117.158 42.2736 118.258 40.8483 118.986Z" fill="url(#paint4_linear_187_3850)" stroke="#9A7660"/>
<path d="M64.1517 118.986L64.1517 118.986C65.7906 119.822 67.3589 120.216 68.771 120.469C69.317 120.567 69.8452 120.645 70.3407 120.717C70.4823 120.738 70.6213 120.759 70.7573 120.779C71.3754 120.872 71.9325 120.964 72.4356 121.091C73.4357 121.343 74.1624 121.718 74.6612 122.439C75.1725 123.178 75.5 124.36 75.5 126.351C75.5 134.267 70.4616 139.5 64.3789 139.5C61.2491 139.5 58.293 138.691 56.1222 136.682C53.9593 134.681 52.5 131.419 52.5 126.351C52.5 120.886 52.8809 117.533 53.5206 115.606C53.8399 114.644 54.2052 114.096 54.5654 113.805C54.9039 113.532 55.281 113.451 55.7399 113.527C56.2212 113.606 56.7813 113.857 57.4247 114.253C58.0634 114.646 58.7465 115.157 59.4741 115.72C59.6559 115.861 59.8405 116.005 60.0277 116.151C61.3174 117.158 62.7264 118.258 64.1517 118.986Z" fill="url(#paint5_linear_187_3850)" stroke="#9A7660"/>
<path d="M48.5007 120.416C47.9723 119.688 47.2996 120.861 46.14 121.703C44.9805 122.545 43.7732 122.737 44.3016 123.465C44.83 124.193 46.0591 123.908 47.2187 123.066C48.3782 122.225 49.0291 121.144 48.5007 120.416Z" fill="#ECD3AA"/>
<path d="M56.8177 120.416C57.3461 119.688 58.0188 120.861 59.1783 121.703C60.3379 122.545 61.5452 122.737 61.0168 123.465C60.4884 124.193 59.2592 123.908 58.0997 123.066C56.9401 122.225 56.2893 121.144 56.8177 120.416Z" fill="#ECD3AA"/>
<path d="M49.5007 126.416C48.9723 125.688 48.2996 126.861 47.14 127.703C45.9805 128.545 44.7732 128.737 45.3016 129.465C45.83 130.193 47.0591 129.908 48.2187 129.066C49.3782 128.225 50.0291 127.144 49.5007 126.416Z" fill="#ECD3AA"/>
<path d="M55.8177 126.416C56.3461 125.688 57.0188 126.861 58.1783 127.703C59.3379 128.545 60.5452 128.737 60.0168 129.465C59.4884 130.193 58.2592 129.908 57.0997 129.066C55.9401 128.225 55.2893 127.144 55.8177 126.416Z" fill="#ECD3AA"/>
<defs>
<filter id="filter0_i_187_3850" x="18" y="158" width="31.4395" height="36.0352" filterUnits="userSpaceOnUse" color-interpolation-filters="sRGB">
<feFlood flood-opacity="0" result="BackgroundImageFix"/>
<feBlend mode="normal" in="SourceGraphic" in2="BackgroundImageFix" result="shape"/>
<feColorMatrix in="SourceAlpha" type="matrix" values="0 0 0 0 0 0 0 0 0 0 0 0 0 0 0 0 0 0 127 0" result="hardAlpha"/>
<feOffset dx="-3" dy="-3"/>
<feGaussianBlur stdDeviation="2"/>
<feComposite in2="hardAlpha" operator="arithmetic" k2="-1" k3="1"/>
<feColorMatrix type="matrix" values="0 0 0 0 0.87451 0 0 0 0 0.32366 0 0 0 0 0.2 0 0 0 1 0"/>
<feBlend mode="normal" in2="shape" result="effect1_innerShadow_187_3850"/>
</filter>
<filter id="filter1_i_187_3850" x="53.002" y="158" width="31.4395" height="36.0352" filterUnits="userSpaceOnUse" color-interpolation-filters="sRGB">
<feFlood flood-opacity="0" result="BackgroundImageFix"/>
<feBlend mode="normal" in="SourceGraphic" in2="BackgroundImageFix" result="shape"/>
<feColorMatrix in="SourceAlpha" type="matrix" values="0 0 0 0 0 0 0 0 0 0 0 0 0 0 0 0 0 0 127 0" result="hardAlpha"/>
<feOffset dx="-3" dy="-3"/>
<feGaussianBlur stdDeviation="2"/>
<feComposite in2="hardAlpha" operator="arithmetic" k2="-1" k3="1"/>
<feColorMatrix type="matrix" values="0 0 0 0 0.87451 0 0 0 0 0.32366 0 0 0 0 0.2 0 0 0 1 0"/>
<feBlend mode="normal" in2="shape" result="effect1_innerShadow_187_3850"/>
</filter>
<filter id="filter2_i_187_3850" x="-5" y="-2" width="115" height="123.496" filterUnits="userSpaceOnUse" color-interpolation-filters="sRGB">
<feFlood flood-opacity="0" result="BackgroundImageFix"/>
<feBlend mode="normal" in="SourceGraphic" in2="BackgroundImageFix" result="shape"/>
<feColorMatrix in="SourceAlpha" type="matrix" values="0 0 0 0 0 0 0 0 0 0 0 0 0 0 0 0 0 0 127 0" result="hardAlpha"/>
<feOffset dx="-5" dy="-2"/>
<feGaussianBlur stdDeviation="10"/>
<feComposite in2="hardAlpha" operator="arithmetic" k2="-1" k3="1"/>
<feColorMatrix type="matrix" values="0 0 0 0 0.92549 0 0 0 0 0.827451 0 0 0 0 0.666667 0 0 0 1 0"/>
<feBlend mode="normal" in2="shape" result="effect1_innerShadow_187_3850"/>
</filter>
<linearGradient id="paint0_linear_187_3850" x1="35.2201" y1="161" x2="35.2201" y2="194.035" gradientUnits="userSpaceOnUse">
<stop stop-color="#FF8266"/>
<stop offset="1" stop-color="#FF6846"/>
</linearGradient>
<linearGradient id="paint1_linear_187_3850" x1="70.2213" y1="161" x2="70.2213" y2="194.035" gradientUnits="userSpaceOnUse">
<stop stop-color="#FF8266"/>
<stop offset="1" stop-color="#FF6846"/>
</linearGradient>
<linearGradient id="paint2_linear_187_3850" x1="52.5" y1="97" x2="52.5" y2="170" gradientUnits="userSpaceOnUse">
<stop stop-color="#FFFBEC"/>
<stop offset="1" stop-color="#FDECCC"/>
</linearGradient>
<linearGradient id="paint3_linear_187_3850" x1="54.9746" y1="27.5" x2="55" y2="121.497" gradientUnits="userSpaceOnUse">
<stop stop-color="#FFFBEC"/>
<stop offset="1" stop-color="#FDECCC"/>
</linearGradient>
<linearGradient id="paint4_linear_187_3850" x1="41" y1="113" x2="41" y2="140" gradientUnits="userSpaceOnUse">
<stop stop-color="#FFFBEC"/>
<stop offset="1" stop-color="#FDECCC"/>
</linearGradient>
<linearGradient id="paint5_linear_187_3850" x1="64" y1="113" x2="64" y2="140" gradientUnits="userSpaceOnUse">
<stop stop-color="#FFFBEC"/>
<stop offset="1" stop-color="#FDECCC"/>
</linearGradient>
</defs>
</svg>
