<svg width="132" height="194" viewBox="0 0 132 194" fill="none" xmlns="http://www.w3.org/2000/svg">
<g filter="url(#filter0_i_187_3774)">
<path d="M65 160C69.5 160 69.5 180.5 65.5 188.5C62.5 193.035 55.245 193.035 51.5 193.035C42.3873 193.035 40 191.319 40 183.035C40 174.751 45.3873 174.531 54.5 174.531C63.6127 174.531 52.5 160 65 160Z" fill="url(#paint0_linear_187_3774)"/>
</g>
<path d="M65 160.5C65.3455 160.5 65.7053 160.689 66.0744 161.192C66.4463 161.699 66.7797 162.465 67.0574 163.462C67.6112 165.45 67.9065 168.214 67.9375 171.255C67.9996 177.338 67.0044 184.35 65.0664 188.249C63.6698 190.34 61.2688 191.426 58.675 191.979C56.077 192.533 53.3775 192.535 51.5 192.535C49.2321 192.535 47.4117 192.428 45.9534 192.146C44.4972 191.866 43.4351 191.417 42.6551 190.759C41.1079 189.454 40.5 187.172 40.5 183.035C40.5 181.013 40.8295 179.538 41.423 178.451C42.0102 177.376 42.8772 176.642 44.0336 176.134C45.2029 175.621 46.6673 175.341 48.4318 175.193C50.1942 175.045 52.2191 175.031 54.5 175.031C55.7019 175.031 56.6325 174.792 57.3333 174.322C58.041 173.848 58.4604 173.174 58.7035 172.413C58.9434 171.662 59.0171 170.809 59.0309 169.941C59.0404 169.347 59.0213 168.718 59.0025 168.094C58.994 167.812 58.9855 167.531 58.9797 167.255C58.9411 165.425 59.0222 163.756 59.7904 162.537C60.5229 161.375 61.9704 160.5 65 160.5Z" stroke="#9A7660"/>
<g filter="url(#filter1_i_187_3774)">
<path d="M78.4414 160C73.9414 160 73.9414 180.5 77.9414 188.5C80.9414 193.035 88.1964 193.035 91.9414 193.035C101.054 193.035 103.441 191.319 103.441 183.035C103.441 174.751 98.0541 174.531 88.9414 174.531C79.8287 174.531 90.9414 160 78.4414 160Z" fill="url(#paint1_linear_187_3774)"/>
</g>
<path d="M78.4414 160.5C78.0959 160.5 77.7361 160.689 77.367 161.192C76.9951 161.699 76.6618 162.465 76.384 163.462C75.8302 165.45 75.5349 168.214 75.5039 171.255C75.4418 177.338 76.437 184.35 78.375 188.249C79.7717 190.34 82.1726 191.426 84.7664 191.979C87.3644 192.533 90.0639 192.535 91.9414 192.535C94.2093 192.535 96.0297 192.428 97.488 192.146C98.9442 191.866 100.006 191.417 100.786 190.759C102.334 189.454 102.941 187.172 102.941 183.035C102.941 181.013 102.612 179.538 102.018 178.451C101.431 177.376 100.564 176.642 99.4078 176.134C98.2385 175.621 96.7741 175.341 95.0096 175.193C93.2472 175.045 91.2223 175.031 88.9414 175.031C87.7395 175.031 86.8089 174.792 86.1082 174.322C85.4004 173.848 84.981 173.174 84.7379 172.413C84.498 171.662 84.4243 170.809 84.4105 169.941C84.401 169.347 84.4201 168.718 84.4389 168.094C84.4474 167.812 84.4559 167.531 84.4618 167.255C84.5003 165.425 84.4192 163.756 83.651 162.537C82.9186 161.375 81.4711 160.5 78.4414 160.5Z" stroke="#9A7660"/>
<path d="M27.8849 106.217L27.8849 106.217C31.2847 107.249 34.5549 107.999 37.5447 108.685C37.6701 108.714 37.795 108.743 37.9194 108.771C41.0197 109.483 43.7919 110.132 46.1177 110.967C48.4441 111.803 50.2687 112.807 51.5071 114.196C52.7313 115.57 53.4213 117.364 53.3963 119.868C53.3462 124.887 50.4996 129.508 45.8518 132.875C41.2053 136.241 34.7891 138.325 27.7055 138.254C20.582 138.183 13.7709 136.655 8.77483 133.54C3.79972 130.438 0.626724 125.77 0.690925 119.341C0.776255 110.796 1.67957 105.494 3.15508 102.385C3.88775 100.842 4.74835 99.8669 5.69371 99.2925C6.63649 98.7196 7.70993 98.5165 8.92106 98.5973C11.3821 98.7615 14.2987 100.084 17.5623 101.694C17.9531 101.886 18.3484 102.083 18.7477 102.281C21.6421 103.721 24.7456 105.264 27.8849 106.217Z" fill="url(#paint2_linear_187_3774)" stroke="#9A7660"/>
<path d="M109.628 124.792L109.628 124.791C106.939 123.484 104.491 122.078 102.255 120.793C102.161 120.739 102.067 120.685 101.974 120.632C99.6541 119.299 97.5778 118.118 95.6712 117.307C93.7639 116.495 92.0792 116.078 90.5409 116.225C89.0237 116.371 87.5906 117.072 86.1869 118.618C83.3715 121.72 82.4886 126.169 83.4284 130.883C84.3679 135.595 87.1255 140.531 91.5237 144.524C95.9514 148.544 101.013 151.483 105.855 152.413C110.673 153.337 115.267 152.276 118.879 148.298C123.707 142.98 126.169 139.204 127.029 136.461C127.456 135.101 127.479 134.025 127.23 133.149C126.981 132.276 126.446 131.551 125.663 130.916C124.065 129.623 121.527 128.777 118.591 127.904C118.24 127.799 117.884 127.695 117.525 127.589C114.918 126.824 112.115 126 109.628 124.792Z" fill="url(#paint3_linear_187_3774)" stroke="#9A7660"/>
<mask id="path-7-inside-1_187_3774" fill="white">
<path d="M98.8876 132.5C98.8876 152.658 115.618 169 71.5 169C27.3819 169 44.1124 152.658 44.1124 132.5C44.1124 112.342 53.6939 96 71.5 96C89.3061 96 98.8876 112.342 98.8876 132.5Z"/>
</mask>
<path d="M98.8876 132.5C98.8876 152.658 115.618 169 71.5 169C27.3819 169 44.1124 152.658 44.1124 132.5C44.1124 112.342 53.6939 96 71.5 96C89.3061 96 98.8876 112.342 98.8876 132.5Z" fill="url(#paint4_linear_187_3774)"/>
<path d="M97.8876 132.5C97.8876 137.66 98.9587 142.567 99.8321 146.905C100.721 151.318 101.377 155.043 100.758 158.112C100.455 159.611 99.849 160.936 98.8082 162.1C97.7615 163.269 96.2335 164.321 94.0215 165.203C89.5684 166.977 82.4989 168 71.5 168V170C82.5601 170 89.9436 168.98 94.7618 167.061C97.1854 166.095 98.9976 164.887 100.299 163.433C101.606 161.973 102.355 160.31 102.718 158.507C103.432 154.971 102.663 150.831 101.793 146.51C100.908 142.115 99.8876 137.42 99.8876 132.5H97.8876ZM71.5 168C60.5011 168 53.4316 166.977 48.9785 165.203C46.7665 164.321 45.2385 163.269 44.1918 162.1C43.151 160.936 42.5446 159.611 42.2422 158.112C41.6233 155.043 42.2795 151.318 43.1679 146.905C44.0413 142.567 45.1124 137.66 45.1124 132.5H43.1124C43.1124 137.42 42.0922 142.115 41.2073 146.51C40.3375 150.831 39.5684 154.971 40.2817 158.507C40.6454 160.31 41.3943 161.973 42.7014 163.433C44.0024 164.887 45.8146 166.095 48.2382 167.061C53.0564 168.98 60.4399 170 71.5 170V168ZM45.1124 132.5C45.1124 122.563 47.4762 113.656 51.9483 107.264C56.3974 100.905 62.9487 97 71.5 97V95C62.2451 95 55.1027 99.2662 50.3095 106.117C45.5394 112.936 43.1124 122.278 43.1124 132.5H45.1124ZM71.5 97C80.0512 97 86.6026 100.905 91.0517 107.264C95.5238 113.656 97.8876 122.563 97.8876 132.5H99.8876C99.8876 122.278 97.4606 112.936 92.6905 106.117C87.8973 99.2662 80.7549 95 71.5 95V97Z" fill="#9A7660" mask="url(#path-7-inside-1_187_3774)"/>
<path d="M95.6901 117.362C95.6647 109.732 84.3482 114.469 71.1831 114.513C58.0181 114.557 47.9899 109.891 48.0154 117.52C48.0408 125.15 58.727 129.29 71.8921 129.246C85.0571 129.202 95.7155 124.991 95.6901 117.362Z" fill="#F3E0C1"/>
<mask id="path-10-inside-2_187_3774" fill="white">
<path fill-rule="evenodd" clip-rule="evenodd" d="M64.5005 9.75271C62.8893 10.6072 61.3181 11.4406 59.8072 12.2668C33.9156 16.6551 14.1944 39.2646 14.1944 66.4965C14.1944 69.1937 14.1436 71.8456 14.094 74.4389C13.5844 101.051 13.193 121.497 69 121.497C124.807 121.497 124.416 101.051 123.906 74.4389C123.856 71.8456 123.806 69.1937 123.806 66.4965C123.806 55.1428 120.377 44.5925 114.503 35.8314C118.971 32.1569 121.232 28.3706 120.338 25.1723C119.314 21.5067 114.344 19.3299 107.199 18.8014C109.705 14.0759 110.271 9.57836 108.367 6.06968C103.715 -2.50074 86.084 -1.92553 68.9868 7.35444C67.4687 8.17845 65.9683 8.97423 64.501 9.75243L64.5009 9.75247L64.5005 9.75271Z"/>
</mask>
<g filter="url(#filter2_i_187_3774)">
<path fill-rule="evenodd" clip-rule="evenodd" d="M64.5005 9.75271C62.8893 10.6072 61.3181 11.4406 59.8072 12.2668C33.9156 16.6551 14.1944 39.2646 14.1944 66.4965C14.1944 69.1937 14.1436 71.8456 14.094 74.4389C13.5844 101.051 13.193 121.497 69 121.497C124.807 121.497 124.416 101.051 123.906 74.4389C123.856 71.8456 123.806 69.1937 123.806 66.4965C123.806 55.1428 120.377 44.5925 114.503 35.8314C118.971 32.1569 121.232 28.3706 120.338 25.1723C119.314 21.5067 114.344 19.3299 107.199 18.8014C109.705 14.0759 110.271 9.57836 108.367 6.06968C103.715 -2.50074 86.084 -1.92553 68.9868 7.35444C67.4687 8.17845 65.9683 8.97423 64.501 9.75243L64.5009 9.75247L64.5005 9.75271Z" fill="url(#paint5_linear_187_3774)"/>
</g>
<path d="M59.8072 12.2668L59.9743 13.2528L60.1398 13.2247L60.287 13.1442L59.8072 12.2668ZM64.5005 9.75271L64.0352 8.86754L64.0319 8.86927L64.5005 9.75271ZM14.094 74.4389L13.0942 74.4198L14.094 74.4389ZM123.906 74.4389L122.906 74.4581L123.906 74.4389ZM114.503 35.8314L113.868 35.0591L113.168 35.6351L113.673 36.3883L114.503 35.8314ZM120.338 25.1723L119.375 25.4415L120.338 25.1723ZM107.199 18.8014L106.315 18.3329L105.598 19.6857L107.125 19.7987L107.199 18.8014ZM108.367 6.06968L107.488 6.54672L108.367 6.06968ZM68.9868 7.35444L69.4639 8.23332L68.9868 7.35444ZM64.501 9.75243L64.0324 8.86896L64.0247 8.87314L64.501 9.75243ZM64.5009 9.75247L64.9663 10.6377L64.9772 10.6318L64.5009 9.75247ZM60.287 13.1442C61.7913 12.3216 63.3568 11.4913 64.9691 10.6361L64.0319 8.86927C62.4219 9.72321 60.8449 10.5596 59.3274 11.3895L60.287 13.1442ZM15.1944 66.4965C15.1944 39.7579 34.5581 17.5604 59.9743 13.2528L59.6401 11.2809C33.2731 15.7497 13.1944 38.7712 13.1944 66.4965H15.1944ZM15.0938 74.4581C15.1434 71.8662 15.1944 69.2048 15.1944 66.4965H13.1944C13.1944 69.1826 13.1439 71.8251 13.0942 74.4198L15.0938 74.4581ZM69 120.497C41.133 120.497 27.7105 115.373 21.2063 107.319C17.953 103.291 16.3503 98.4361 15.6012 92.885C14.8499 87.3167 14.966 81.1306 15.0938 74.4581L13.0942 74.4198C12.9672 81.0534 12.8433 87.4025 13.6192 93.1524C14.3974 98.9194 16.0893 104.166 19.6503 108.576C26.7747 117.397 41.06 122.497 69 122.497V120.497ZM122.906 74.4581C123.034 81.1306 123.15 87.3167 122.399 92.885C121.65 98.4362 120.047 103.291 116.794 107.319C110.289 115.373 96.867 120.497 69 120.497V122.497C96.94 122.497 111.225 117.397 118.35 108.576C121.911 104.166 123.603 98.9194 124.381 93.1524C125.157 87.4025 125.033 81.0534 124.906 74.4198L122.906 74.4581ZM122.806 66.4965C122.806 69.2048 122.857 71.8662 122.906 74.4581L124.906 74.4198C124.856 71.8251 124.806 69.1826 124.806 66.4965H122.806ZM113.673 36.3883C119.44 44.9897 122.806 55.347 122.806 66.4965H124.806C124.806 54.9385 121.315 44.1954 115.334 35.2745L113.673 36.3883ZM119.375 25.4415C119.729 26.7087 119.487 28.1785 118.559 29.8344C117.628 31.4949 116.045 33.2686 113.868 35.0591L115.139 36.6037C117.429 34.7197 119.21 32.7631 120.304 30.8122C121.4 28.8567 121.841 26.8343 121.301 24.9031L119.375 25.4415ZM107.125 19.7987C110.628 20.0578 113.524 20.7172 115.637 21.7148C117.753 22.7137 118.97 23.9911 119.375 25.4415L121.301 24.9031C120.682 22.6879 118.902 21.0441 116.491 19.9061C114.077 18.7668 110.915 18.0736 107.273 17.8041L107.125 19.7987ZM107.488 6.54672C109.164 9.63501 108.746 13.7494 106.315 18.3329L108.082 19.2699C110.664 14.4025 111.378 9.52171 109.246 5.59264L107.488 6.54672ZM69.4639 8.23332C77.9053 3.6515 86.436 1.24406 93.3764 1.01763C100.383 0.789046 105.439 2.77257 107.488 6.54672L109.246 5.59264C106.642 0.796373 100.558 -1.21771 93.3112 -0.981307C85.9989 -0.742744 77.1655 1.7774 68.5098 6.47556L69.4639 8.23332ZM64.9696 10.6359C66.4362 9.858 67.9408 9.06 69.4639 8.23332L68.5098 6.47556C66.9966 7.2969 65.5004 8.09046 64.0325 8.869L64.9696 10.6359ZM64.9772 10.6318L64.9773 10.6317L64.0247 8.87314L64.0247 8.87318L64.9772 10.6318ZM64.9658 10.6379L64.9662 10.6376L64.0357 8.86731L64.0352 8.86754L64.9658 10.6379Z" fill="#9A7660" mask="url(#path-10-inside-2_187_3774)"/>
<path d="M105.078 7.79799C104.086 7.53034 104.165 9.6696 103.546 11.9634C102.928 14.2571 101.846 15.8368 102.839 16.1044C103.832 16.3721 104.876 14.6591 105.495 12.3653C106.113 10.0716 106.071 8.06565 105.078 7.79799Z" fill="#ECD3AA"/>
<path d="M101.306 5.34488C100.473 4.74209 100.076 6.37118 99.0186 7.83246C97.9611 9.29374 96.6438 10.0338 97.4768 10.6366C98.3097 11.2394 99.6229 10.3847 100.68 8.92346C101.738 7.46218 102.139 5.94767 101.306 5.34488Z" fill="#ECD3AA"/>
<path d="M116.652 25.4775C116.053 24.6419 115.16 26.0611 113.694 27.112C112.228 28.1629 110.744 28.4475 111.343 29.2831C111.942 30.1188 113.458 29.7243 114.924 28.6734C116.39 27.6225 117.251 26.3132 116.652 25.4775Z" fill="#ECD3AA"/>
<path d="M8.31705 110.484C8.8997 109.637 10.2257 111.317 12.1832 112.664C14.1406 114.01 15.9881 114.512 15.4054 115.359C14.8228 116.206 12.9171 115.579 10.9597 114.232C9.0023 112.886 7.73439 111.331 8.31705 110.484Z" fill="#ECD3AA"/>
<path d="M119.591 139.073C119.891 138.09 117.751 138.099 115.478 137.405C113.206 136.712 111.663 135.579 111.363 136.562C111.063 137.546 112.74 138.646 115.013 139.34C117.285 140.033 119.291 140.057 119.591 139.073Z" fill="#ECD3AA"/>
<path d="M6.52928 120.154C6.87128 119.184 8.58913 120.461 10.8295 121.252C13.0699 122.042 14.9845 122.046 14.6425 123.015C14.3005 123.985 12.2971 123.875 10.0567 123.085C7.8163 122.295 6.18728 121.123 6.52928 120.154Z" fill="#ECD3AA"/>
<path d="M113.135 146.493C113.681 145.622 111.612 145.073 109.599 143.812C107.585 142.551 106.39 141.055 105.845 141.926C105.299 142.798 106.632 144.297 108.645 145.558C110.659 146.819 112.59 147.364 113.135 146.493Z" fill="#ECD3AA"/>
<circle cx="34.5" cy="85.9961" r="15.5" fill="#FFC3D8"/>
<circle cx="102.5" cy="86.9961" r="15.5" fill="#FFC3D8"/>
<path d="M74.5011 88.4066C73.5011 95.3132 74.0935 97 68.501 97C62.9085 97 63.5006 95.5 62.5006 88.4066C62.0012 81.5 60.001 80 68.501 80C76.501 80 75.501 81.5 74.5011 88.4066Z" fill="url(#paint6_linear_187_3774)"/>
<path d="M50.5 74.9052C50.5 76.8885 49.9656 78.1382 49.1869 78.8955C48.4051 79.6559 47.2987 79.9961 46 79.9961C44.7013 79.9961 43.5949 79.6559 42.8131 78.8955C42.0344 78.1382 41.5 76.8885 41.5 74.9052C41.5 72.9216 42.0355 71.4419 42.8484 70.4677C43.6565 69.4991 44.7648 68.9961 46 68.9961C47.2352 68.9961 48.3435 69.4991 49.1516 70.4677C49.9645 71.4419 50.5 72.9216 50.5 74.9052Z" fill="white" stroke="black"/>
<path d="M95.5 74.9052C95.5 76.8885 94.9656 78.1382 94.1869 78.8955C93.4051 79.6559 92.2987 79.9961 91 79.9961C89.7013 79.9961 88.5949 79.6559 87.8131 78.8955C87.0344 78.1382 86.5 76.8885 86.5 74.9052C86.5 72.9216 87.0355 71.4419 87.8484 70.4677C88.6565 69.4991 89.7648 68.9961 91 68.9961C92.2352 68.9961 93.3435 69.4991 94.1516 70.4677C94.9645 71.4419 95.5 72.9216 95.5 74.9052Z" fill="white" stroke="black"/>
<path d="M110.434 55.5365C110.704 57.807 110.121 59.2701 109.201 60.1713C108.267 61.0871 106.908 61.5 105.493 61.5C104.08 61.5 102.738 61.0877 101.811 60.1727C100.898 59.2704 100.314 57.8042 100.554 55.5298L100.057 55.4773L100.554 55.5298C100.813 53.0771 101.847 51.3073 102.935 50.1525C103.481 49.5736 104.037 49.1519 104.512 48.878C105.007 48.5921 105.355 48.5 105.493 48.5C105.532 48.5 105.639 48.5171 105.822 48.5946C105.996 48.6684 106.208 48.7837 106.448 48.9433C106.928 49.2622 107.49 49.7402 108.042 50.3607C109.146 51.6026 110.177 53.3803 110.434 55.5365Z" fill="url(#paint7_linear_187_3774)" stroke="black"/>
<path d="M56.6518 65.4148C55.3007 66.7659 53.0758 65.486 50.9141 63.3243C48.7524 61.1626 47.4725 58.9377 48.8236 57.5866C50.1746 56.2355 52.6665 57.2485 54.8282 59.4102C56.9899 61.5719 58.0029 64.0638 56.6518 65.4148Z" fill="#C6A590"/>
<path d="M80.0904 65.4148C81.4414 66.7659 83.6664 65.486 85.8281 63.3243C87.9898 61.1626 89.2697 58.9377 87.9186 57.5866C86.5676 56.2355 84.0757 57.2485 81.914 59.4102C79.7523 61.5719 78.7393 64.0638 80.0904 65.4148Z" fill="#C6A590"/>
<path d="M78 80.9128C78 83.9043 69.8571 83.5 68.5 83.5C65.7857 83.5 59 83.9043 59 80.9128C59 77.9212 63.2533 72.4961 68.5 72.4961C73.7467 72.4961 78 77.9212 78 80.9128Z" fill="#FFCB52"/>
<path d="M62 95.6547C62 93.7549 67.5714 94.0116 68.5 94.0116C70.3571 94.0116 75 93.7549 75 95.6547C75 97.5546 72.0899 101 68.5 101C64.9101 101 62 97.5546 62 95.6547Z" fill="#FFC53E"/>
<defs>
<filter id="filter0_i_187_3774" x="37" y="157" width="31.4414" height="36.0352" filterUnits="userSpaceOnUse" color-interpolation-filters="sRGB">
<feFlood flood-opacity="0" result="BackgroundImageFix"/>
<feBlend mode="normal" in="SourceGraphic" in2="BackgroundImageFix" result="shape"/>
<feColorMatrix in="SourceAlpha" type="matrix" values="0 0 0 0 0 0 0 0 0 0 0 0 0 0 0 0 0 0 127 0" result="hardAlpha"/>
<feOffset dx="-3" dy="-3"/>
<feGaussianBlur stdDeviation="2"/>
<feComposite in2="hardAlpha" operator="arithmetic" k2="-1" k3="1"/>
<feColorMatrix type="matrix" values="0 0 0 0 0.87451 0 0 0 0 0.32366 0 0 0 0 0.2 0 0 0 1 0"/>
<feBlend mode="normal" in2="shape" result="effect1_innerShadow_187_3774"/>
</filter>
<filter id="filter1_i_187_3774" x="72" y="157" width="31.4414" height="36.0352" filterUnits="userSpaceOnUse" color-interpolation-filters="sRGB">
<feFlood flood-opacity="0" result="BackgroundImageFix"/>
<feBlend mode="normal" in="SourceGraphic" in2="BackgroundImageFix" result="shape"/>
<feColorMatrix in="SourceAlpha" type="matrix" values="0 0 0 0 0 0 0 0 0 0 0 0 0 0 0 0 0 0 127 0" result="hardAlpha"/>
<feOffset dx="-3" dy="-3"/>
<feGaussianBlur stdDeviation="2"/>
<feComposite in2="hardAlpha" operator="arithmetic" k2="-1" k3="1"/>
<feColorMatrix type="matrix" values="0 0 0 0 0.87451 0 0 0 0 0.32366 0 0 0 0 0.2 0 0 0 1 0"/>
<feBlend mode="normal" in2="shape" result="effect1_innerShadow_187_3774"/>
</filter>
<filter id="filter2_i_187_3774" x="9" y="-2" width="115" height="123.496" filterUnits="userSpaceOnUse" color-interpolation-filters="sRGB">
<feFlood flood-opacity="0" result="BackgroundImageFix"/>
<feBlend mode="normal" in="SourceGraphic" in2="BackgroundImageFix" result="shape"/>
<feColorMatrix in="SourceAlpha" type="matrix" values="0 0 0 0 0 0 0 0 0 0 0 0 0 0 0 0 0 0 127 0" result="hardAlpha"/>
<feOffset dx="-5" dy="-2"/>
<feGaussianBlur stdDeviation="10"/>
<feComposite in2="hardAlpha" operator="arithmetic" k2="-1" k3="1"/>
<feColorMatrix type="matrix" values="0 0 0 0 0.92549 0 0 0 0 0.827451 0 0 0 0 0.666667 0 0 0 1 0"/>
<feBlend mode="normal" in2="shape" result="effect1_innerShadow_187_3774"/>
</filter>
<linearGradient id="paint0_linear_187_3774" x1="54.2201" y1="160" x2="54.2201" y2="193.035" gradientUnits="userSpaceOnUse">
<stop stop-color="#FF8266"/>
<stop offset="1" stop-color="#FF6846"/>
</linearGradient>
<linearGradient id="paint1_linear_187_3774" x1="89.2213" y1="160" x2="89.2213" y2="193.035" gradientUnits="userSpaceOnUse">
<stop stop-color="#FF8266"/>
<stop offset="1" stop-color="#FF6846"/>
</linearGradient>
<linearGradient id="paint2_linear_187_3774" x1="45.5" y1="119" x2="10.421" y2="132.799" gradientUnits="userSpaceOnUse">
<stop stop-color="#FFFBEC"/>
<stop offset="1" stop-color="#FDECCC"/>
</linearGradient>
<linearGradient id="paint3_linear_187_3774" x1="86.4371" y1="117.599" x2="119.87" y2="147.951" gradientUnits="userSpaceOnUse">
<stop stop-color="#FFFBEC"/>
<stop offset="1" stop-color="#FDECCC"/>
</linearGradient>
<linearGradient id="paint4_linear_187_3774" x1="71.5" y1="96" x2="71.5" y2="169" gradientUnits="userSpaceOnUse">
<stop stop-color="#FFFBEC"/>
<stop offset="1" stop-color="#FDECCC"/>
</linearGradient>
<linearGradient id="paint5_linear_187_3774" x1="68.9746" y1="27.5" x2="69" y2="121.497" gradientUnits="userSpaceOnUse">
<stop stop-color="#FFFBEC"/>
<stop offset="1" stop-color="#FDECCC"/>
</linearGradient>
<linearGradient id="paint6_linear_187_3774" x1="68.5526" y1="97" x2="69.001" y2="68" gradientUnits="userSpaceOnUse">
<stop stop-color="#F36A6A"/>
<stop offset="1" stop-color="#8D3D3D"/>
</linearGradient>
<linearGradient id="paint7_linear_187_3774" x1="105.5" y1="48" x2="105.5" y2="62" gradientUnits="userSpaceOnUse">
<stop stop-color="#84EBFF"/>
<stop offset="1" stop-color="#1BD9FF"/>
</linearGradient>
</defs>
</svg>
