<svg width="255" height="443" viewBox="0 0 255 443" fill="none" xmlns="http://www.w3.org/2000/svg">
<path fill-rule="evenodd" clip-rule="evenodd" d="M131.622 346.208C94.9462 364.49 53.3983 366.454 36.5176 332.59C2.52229 264.393 28.7143 264.102 61.5127 263.739C70.7482 263.637 80.5075 263.529 89.5944 261.897C99.5222 260.114 108.763 257.786 117.258 255.645C127.465 253.073 136.596 250.772 144.549 250.015C146.602 242.93 149.754 235.34 154.159 227.196C163.186 204.348 189.286 197.013 221.052 201.722C226.926 194.497 236.283 187.588 247.06 179.631C254.238 174.33 262.047 168.564 269.876 161.93C277.042 155.857 283.456 148.328 289.526 141.203C311.083 115.901 328.298 95.6956 359.407 163.901C370.011 187.151 359.914 209.111 340.235 226.209C370.512 232.748 393.499 247.94 386.213 296.689C363.19 375.646 263.76 362.431 215.813 343.488C198.142 336.507 180.129 328.102 166.268 316.871C158.253 328.425 146.401 338.84 131.622 346.208Z" fill="url(#paint0_linear_179_3310)"/>
<g filter="url(#filter0_i_179_3310)">
<path fill-rule="evenodd" clip-rule="evenodd" d="M100.308 48.0737C97.7534 50.4703 95.2618 52.8075 92.8785 55.1012C47.1273 76.2892 21.996 128.12 35.7291 178.568C37.0894 183.565 38.3327 188.503 39.5486 193.333C52.0255 242.891 61.6112 280.965 164.998 252.821C268.386 224.676 257.349 186.997 242.985 137.953C241.585 133.173 240.153 128.286 238.793 123.289C233.067 102.256 221.396 84.4393 206.095 71.1709C212.518 62.1106 214.799 53.9553 211.53 48.4809C207.783 42.2065 197.478 40.6803 183.973 43.305C186.233 33.2865 185.014 24.6685 179.716 19.1287C166.776 5.5973 134.403 15.5545 107.41 41.3688C105.013 43.661 102.634 45.892 100.308 48.0737Z" fill="url(#paint1_linear_179_3310)"/>
</g>
<circle cx="85.7026" cy="213.717" r="29.76" transform="rotate(-15.2282 85.7026 213.717)" fill="#FFC3D8"/>
<circle cx="212.183" cy="181.275" r="29.76" transform="rotate(-15.2282 212.183 181.275)" fill="#FFC3D8"/>
<path d="M110.676 184.848C112.765 192.521 109.349 196.334 104.233 197.727C99.1174 199.12 94.2396 197.565 92.1507 189.891C90.0617 182.217 93.0656 176.889 98.1814 175.496C103.297 174.103 108.588 177.174 110.676 184.848Z" fill="black"/>
<path d="M194.042 162.154C196.131 169.828 192.715 173.641 187.599 175.034C182.483 176.426 177.606 174.871 175.517 167.198C173.428 159.524 176.432 154.195 181.547 152.803C186.663 151.41 191.954 154.481 194.042 162.154Z" fill="black"/>
<path d="M116.362 164.417C114.54 167.602 109.773 166.353 104.678 163.438C99.5827 160.523 96.0896 157.047 97.9112 153.863C99.7328 150.678 104.86 151.298 109.955 154.213C115.05 157.127 118.183 161.233 116.362 164.417Z" fill="#C6A590"/>
<path d="M174.951 25.8569C172.976 25.8617 174.202 29.785 174.213 34.3462C174.224 38.9075 173.017 42.3794 174.991 42.3746C176.965 42.3698 178.036 38.6696 178.025 34.1083C178.014 29.5471 176.925 25.8521 174.951 25.8569Z" fill="#ECD3AA"/>
<path d="M166.728 23.2128C164.881 22.5161 164.967 25.7345 163.745 28.975C162.523 32.2154 160.455 34.2508 162.303 34.9475C164.15 35.6441 166.151 33.3985 167.373 30.158C168.596 26.9176 168.575 23.9094 166.728 23.2128Z" fill="#ECD3AA"/>
<path d="M205.31 52.7721C203.779 51.5261 202.841 54.6057 200.655 57.2919C198.469 59.9781 195.863 61.2537 197.394 62.4997C198.926 63.7458 201.536 62.2501 203.722 59.5639C205.908 56.8777 206.842 54.0182 205.31 52.7721Z" fill="#ECD3AA"/>
<path d="M159.784 152.595C162.968 154.417 166.445 150.924 169.359 145.829C172.274 140.734 173.523 135.966 170.338 134.145C167.154 132.323 163.049 135.456 160.134 140.551C157.22 145.646 156.6 150.773 159.784 152.595Z" fill="#C6A590"/>
<path d="M164.702 184.548C166.675 191.796 154.618 207.026 152.104 207.711C147.075 209.08 131.476 201.378 129.503 194.13C127.53 186.883 133.81 178.863 143.53 176.217C153.25 173.571 162.729 177.301 164.702 184.548Z" fill="#F5A327"/>
<g filter="url(#filter1_d_179_3310)">
<path d="M120.55 219.623C126.567 208.949 148.738 187.417 189.29 186.675" stroke="url(#paint2_linear_179_3310)" stroke-width="5.376" stroke-linecap="round"/>
<path d="M103.372 229.39C105.876 224.919 114.447 218.939 119.35 221.685C124.254 224.431 123.633 234.864 121.129 239.335C118.626 243.805 112.621 245.204 107.717 242.458C102.814 239.712 100.868 233.861 103.372 229.39Z" fill="#FFFA67"/>
<path d="M112.389 206.345C116.859 208.848 122.84 217.419 120.094 222.323C117.348 227.226 106.915 226.606 102.444 224.102C97.9734 221.598 96.5752 215.593 99.3213 210.69C102.067 205.786 107.918 203.841 112.389 206.345Z" fill="#FFE252"/>
<path d="M133.765 216.769C131.746 220.375 124.065 224.767 119.161 222.021C114.258 219.275 113.989 210.431 116.008 206.825C118.027 203.22 123.639 202.523 128.543 205.269C133.446 208.015 135.784 213.164 133.765 216.769Z" fill="#FFFA67"/>
<path d="M125.919 237.248C121.521 234.785 115.673 226.288 118.419 221.384C121.165 216.481 131.465 217.028 135.864 219.491C140.262 221.954 141.602 227.926 138.856 232.83C136.11 237.733 130.318 239.711 125.919 237.248Z" fill="#FFE252"/>
<path d="M112.955 219.712C114.429 218.342 115.768 218.132 116.405 218.817C117.042 219.502 116.676 220.878 115.261 222.193C114.265 223.119 112.925 223.329 112.288 222.644C111.651 221.959 111.899 220.693 112.955 219.712Z" fill="#EABA34"/>
<path d="M120.302 225.17C119.688 223.254 120.068 221.952 120.959 221.667C121.85 221.381 122.939 222.297 123.528 224.137C123.943 225.433 123.564 226.735 122.673 227.02C121.782 227.306 120.741 226.542 120.302 225.17Z" fill="#EABA34"/>
<path d="M113.516 226.995C114.658 224.956 115.971 224.195 116.804 224.661C117.636 225.127 117.628 226.726 116.532 228.684C115.76 230.062 114.447 230.823 113.614 230.357C112.781 229.891 112.699 228.455 113.516 226.995Z" fill="#EABA34"/>
</g>
<path d="M163.727 182.36C165.236 187.902 152.466 200.516 149.952 201.2C144.923 202.569 130.037 197.484 128.528 191.942C127.019 186.4 132.163 174.205 141.883 171.559C151.603 168.913 162.218 176.818 163.727 182.36Z" fill="#FFCB52"/>
<path d="M54.9262 311.709C55.4416 308.793 60.9236 311.614 67.6611 312.805C74.3985 313.995 79.8401 313.105 79.3246 316.021C78.8092 318.937 73.0653 319.568 66.3279 318.377C59.5904 317.186 54.4107 314.625 54.9262 311.709Z" fill="#ECD3AA"/>
<path d="M60.133 335.366C59.8715 332.417 65.8989 333.713 72.7141 333.109C79.5292 332.505 84.5513 330.229 84.8129 333.178C85.0744 336.128 79.6928 338.232 72.8776 338.836C66.0624 339.441 60.3945 338.316 60.133 335.366Z" fill="#ECD3AA"/>
<defs>
<filter id="filter0_i_179_3310" x="22.3822" y="9.24594" width="229.744" height="253.156" filterUnits="userSpaceOnUse" color-interpolation-filters="sRGB">
<feFlood flood-opacity="0" result="BackgroundImageFix"/>
<feBlend mode="normal" in="SourceGraphic" in2="BackgroundImageFix" result="shape"/>
<feColorMatrix in="SourceAlpha" type="matrix" values="0 0 0 0 0 0 0 0 0 0 0 0 0 0 0 0 0 0 127 0" result="hardAlpha"/>
<feOffset dx="-9.6" dy="-3.84"/>
<feGaussianBlur stdDeviation="19.2"/>
<feComposite in2="hardAlpha" operator="arithmetic" k2="-1" k3="1"/>
<feColorMatrix type="matrix" values="0 0 0 0 0.92549 0 0 0 0 0.827451 0 0 0 0 0.666667 0 0 0 1 0"/>
<feBlend mode="normal" in2="shape" result="effect1_innerShadow_179_3310"/>
</filter>
<filter id="filter1_d_179_3310" x="87.9148" y="173.986" width="114.063" height="79.877" filterUnits="userSpaceOnUse" color-interpolation-filters="sRGB">
<feFlood flood-opacity="0" result="BackgroundImageFix"/>
<feColorMatrix in="SourceAlpha" type="matrix" values="0 0 0 0 0 0 0 0 0 0 0 0 0 0 0 0 0 0 127 0" result="hardAlpha"/>
<feOffset/>
<feGaussianBlur stdDeviation="5"/>
<feComposite in2="hardAlpha" operator="out"/>
<feColorMatrix type="matrix" values="0 0 0 0 0.530745 0 0 0 0 0.416868 0 0 0 0 0.346643 0 0 0 0.5 0"/>
<feBlend mode="normal" in2="BackgroundImageFix" result="effect1_dropShadow_179_3310"/>
<feBlend mode="normal" in="SourceGraphic" in2="effect1_dropShadow_179_3310" result="shape"/>
</filter>
<linearGradient id="paint0_linear_179_3310" x1="112.55" y1="255.751" x2="172.085" y2="324.254" gradientUnits="userSpaceOnUse">
<stop stop-color="#FFFBEC"/>
<stop offset="1" stop-color="#FDECCC"/>
</linearGradient>
<linearGradient id="paint1_linear_179_3310" x1="117.547" y1="78.6963" x2="164.998" y2="252.821" gradientUnits="userSpaceOnUse">
<stop stop-color="#FFFBEC"/>
<stop offset="1" stop-color="#FDECCC"/>
</linearGradient>
<linearGradient id="paint2_linear_179_3310" x1="161.443" y1="196.091" x2="125.058" y2="195.911" gradientUnits="userSpaceOnUse">
<stop stop-color="#00C38C"/>
<stop offset="1" stop-color="#00A375"/>
</linearGradient>
</defs>
</svg>
