<svg width="179" height="83" viewBox="0 0 179 83" fill="none" xmlns="http://www.w3.org/2000/svg">
<path fill-rule="evenodd" clip-rule="evenodd" d="M0 0H12.1V14.8H22.9V0H35V50.1H7.8C3.9 50.1 0 46.8 0 42.5V0ZM12 36.1866C12 37.8358 12.9322 39 14.7034 39H23V26H12V36.1866ZM61.7 6.3H52.9V0H40.8V45C40.8 49.4 40.3 53 40 54.9L50.5 60.5C52.9121 55.7723 52.9038 48.0657 52.9002 44.7452L52.9 44.4V17.2H61.7V6.3ZM153.607 82.0993C168.302 82.0993 178.099 72.3022 178.099 57.6066C178.099 43.0249 168.188 33 153.607 33C139.025 33 129 42.911 129 57.6066C129 72.3022 138.911 82.0993 153.607 82.0993ZM153.5 44C161.543 44 167 49.5421 167 57.6421C167 65.8842 161.686 71 153.5 71C145.314 71 140 65.7421 140 57.6421C140 49.5421 145.457 44 153.5 44ZM116.8 34.8H77.9C73.3 34.8 70.3 33.8 67.1 30.4L57 35.3C61.9 41.4 68.9 45.7 76.8 45.7H86V65.7H99.7V45.7H116.8V34.8ZM67.4 0V11.1H78.1C78.1 16.8 77.6 20.2 74.8 25.3L86.1 30.8C90.5 22.1 90.9 14.9 90.9 5.3V0H67.4ZM116.2 18.8V0H94.2V11.1H103.3V16.2C103.3 20.1 102.5 22.3 100.8 25.8L112.5 31.5C115.2 26.9 116.2 24.1 116.2 18.8ZM154.901 16.4885C154.901 26.3358 148.336 32.9007 138.489 32.9007C128.641 32.9007 122 26.3358 122 16.4885C122 6.64121 128.718 0 138.489 0C148.259 0 154.901 6.71754 154.901 16.4885ZM145.664 16.4885C145.664 12.1374 142.763 9.16028 138.489 9.16028C134.214 9.16028 131.313 12.1374 131.313 16.4885C131.313 20.8396 134.138 23.6641 138.489 23.6641C142.84 23.6641 145.664 20.916 145.664 16.4885ZM157 12.1043V2.88364H166.182V0H177.637V30.1207L177.638 30.3946C177.64 32.8296 177.647 38.2294 175.979 41.9763C173.434 38.4056 170.003 35.6031 165.875 33.767C166.043 31.0166 166.182 27.7522 166.182 25.8233H157V16.6026H166.182V12.1043H157Z" fill="white"/>
</svg>
