<svg width="98" height="127" viewBox="0 0 98 127" fill="none" xmlns="http://www.w3.org/2000/svg">
<g clip-path="url(#clip0_167_2535)">
<path d="M0 8C0 3.58172 3.58172 0 8 0H90C94.4183 0 98 3.58172 98 8V119C98 123.418 94.4183 127 90 127H8C3.58172 127 0 123.418 0 119V8Z" fill="url(#paint0_linear_167_2535)"/>
<mask id="path-2-inside-1_167_2535" fill="white">
<path d="M65.4258 115.111C65.4258 128.415 76.4679 139.201 47.35 139.201C18.232 139.201 29.2742 128.415 29.2742 115.111C29.2742 101.806 35.5979 91.0205 47.35 91.0205C59.102 91.0205 65.4258 101.806 65.4258 115.111Z"/>
</mask>
<path d="M65.4258 115.111C65.4258 128.415 76.4679 139.201 47.35 139.201C18.232 139.201 29.2742 128.415 29.2742 115.111C29.2742 101.806 35.5979 91.0205 47.35 91.0205C59.102 91.0205 65.4258 101.806 65.4258 115.111Z" fill="url(#paint1_linear_167_2535)"/>
<path d="M64.7658 115.111C64.7658 118.516 65.4727 121.754 66.0491 124.618C66.6355 127.53 67.0686 129.989 66.6601 132.014C66.4606 133.004 66.0603 133.879 65.3734 134.646C64.6825 135.418 63.6741 136.113 62.2141 136.694C59.2751 137.865 54.6093 138.541 47.35 138.541V139.861C54.6496 139.861 59.5227 139.188 62.7027 137.921C64.3023 137.283 65.4984 136.486 66.3571 135.526C67.2197 134.562 67.714 133.465 67.9541 132.275C68.4248 129.941 67.9172 127.209 67.3432 124.357C66.7591 121.456 66.0858 118.357 66.0858 115.111H64.7658ZM47.35 138.541C40.0907 138.541 35.4248 137.865 32.4858 136.694C31.0259 136.113 30.0174 135.418 29.3265 134.646C28.6396 133.879 28.2394 133.004 28.0398 132.014C27.6313 129.989 28.0644 127.53 28.6508 124.618C29.2273 121.754 29.9342 118.516 29.9342 115.111H28.6142C28.6142 118.357 27.9408 121.456 27.3568 124.357C26.7827 127.209 26.2751 129.941 26.7459 132.275C26.9859 133.465 27.4802 134.562 28.3429 135.526C29.2016 136.486 30.3976 137.283 31.9972 137.921C35.1772 139.188 40.0503 139.861 47.35 139.861V138.541ZM29.9342 115.111C29.9342 108.552 31.4942 102.674 34.4458 98.4547C37.3822 94.2575 41.7061 91.6805 47.35 91.6805V90.3605C41.2417 90.3605 36.5278 93.1762 33.3643 97.698C30.216 102.198 28.6142 108.364 28.6142 115.111H29.9342ZM47.35 91.6805C52.9938 91.6805 57.3177 94.2575 60.2541 98.4547C63.2057 102.674 64.7658 108.552 64.7658 115.111H66.0858C66.0858 108.364 64.484 102.198 61.3357 97.698C58.1722 93.1762 53.4582 90.3605 47.35 90.3605V91.6805Z" fill="#9A7660" mask="url(#path-2-inside-1_167_2535)"/>
<mask id="path-4-inside-2_167_2535" fill="white">
<path fill-rule="evenodd" clip-rule="evenodd" d="M46.0308 33.4369C44.9669 34.0011 43.9295 34.5514 42.9319 35.0969C25.8439 37.9936 12.8285 52.9156 12.8285 70.8883C12.8285 72.6685 12.795 74.4188 12.7622 76.1303C12.4259 93.6944 12.1676 107.188 49.0002 107.188C85.8328 107.188 85.5745 93.6944 85.2382 76.1304C85.2054 74.4188 85.1719 72.6685 85.1719 70.8883C85.1719 63.3947 82.9092 56.4313 79.0321 50.6489C81.9808 48.2236 83.4737 45.7245 82.8836 43.6135C82.2074 41.1943 78.9276 39.7576 74.212 39.4087C75.866 36.29 76.2397 33.3217 74.9827 31.006C71.9125 25.3495 60.276 25.7291 48.9919 31.8539C47.99 32.3977 46.9998 32.9229 46.0315 33.4365L46.0312 33.4366L46.0308 33.4369Z"/>
</mask>
<g filter="url(#filter0_i_167_2535)">
<path fill-rule="evenodd" clip-rule="evenodd" d="M46.0308 33.4369C44.9669 34.0011 43.9295 34.5514 42.9319 35.0969C25.8439 37.9936 12.8285 52.9156 12.8285 70.8883C12.8285 72.6685 12.795 74.4188 12.7622 76.1303C12.4259 93.6944 12.1676 107.188 49.0002 107.188C85.8328 107.188 85.5745 93.6944 85.2382 76.1304C85.2054 74.4188 85.1719 72.6685 85.1719 70.8883C85.1719 63.3947 82.9092 56.4313 79.0321 50.6489C81.9808 48.2236 83.4737 45.7245 82.8836 43.6135C82.2074 41.1943 78.9276 39.7576 74.212 39.4087C75.866 36.29 76.2397 33.3217 74.9827 31.006C71.9125 25.3495 60.276 25.7291 48.9919 31.8539C47.99 32.3977 46.9998 32.9229 46.0315 33.4365L46.0312 33.4366L46.0308 33.4369Z" fill="url(#paint2_linear_167_2535)"/>
</g>
<path d="M42.9319 35.0969L43.0422 35.7477L43.1514 35.7292L43.2486 35.676L42.9319 35.0969ZM46.0308 33.4369L45.7231 32.853L45.7216 32.8538L46.0308 33.4369ZM12.7622 76.1303L13.4221 76.143L12.7622 76.1303ZM85.2382 76.1304L84.5783 76.143V76.143L85.2382 76.1304ZM79.0321 50.6489L78.6128 50.1391L78.1506 50.5193L78.4839 51.0164L79.0321 50.6489ZM82.8836 43.6135L82.248 43.7912L82.8836 43.6135ZM74.212 39.4087L73.6289 39.0995L73.1554 39.9924L74.1633 40.0669L74.212 39.4087ZM74.9827 31.006L75.5628 30.6911V30.6911L74.9827 31.006ZM48.9919 31.8539L49.3068 32.434V32.434L48.9919 31.8539ZM46.0315 33.4365L45.7222 32.8534L45.719 32.8552L46.0315 33.4365ZM46.0312 33.4366L46.339 34.0205L46.3437 34.018L46.0312 33.4366ZM43.2486 35.676C44.2418 35.1328 45.2755 34.5846 46.3401 34.0199L45.7216 32.8538C44.6584 33.4176 43.6171 33.9699 42.6152 34.5179L43.2486 35.676ZM13.4885 70.8883C13.4885 53.2413 26.268 38.5912 43.0422 35.7477L42.8216 34.4462C25.4198 37.3961 12.1685 52.59 12.1685 70.8883H13.4885ZM13.4221 76.143C13.4549 74.4323 13.4885 72.6758 13.4885 70.8883H12.1685C12.1685 72.6612 12.1351 74.4052 12.1024 76.1177L13.4221 76.143ZM49.0002 106.528C30.608 106.528 21.7492 103.147 17.4563 97.8312C15.3092 95.1724 14.2514 91.9685 13.757 88.3047C13.2611 84.6296 13.3378 80.5468 13.4221 76.143L12.1024 76.1177C12.0185 80.4959 11.9368 84.6863 12.4489 88.4812C12.9625 92.2874 14.0791 95.7503 16.4294 98.6605C21.1315 104.483 30.5598 107.848 49.0002 107.848V106.528ZM84.5783 76.143C84.6626 80.5468 84.7393 84.6297 84.2434 88.3047C83.749 91.9685 82.6912 95.1724 80.5441 97.8312C76.2512 103.147 67.3924 106.528 49.0002 106.528V107.848C67.4406 107.848 76.8689 104.483 81.571 98.6605C83.9213 95.7503 85.0379 92.2875 85.5515 88.4812C86.0636 84.6863 85.9819 80.4959 85.898 76.1177L84.5783 76.143ZM84.5119 70.8883C84.5119 72.6758 84.5455 74.4323 84.5783 76.143L85.898 76.1177C85.8652 74.4052 85.8319 72.6612 85.8319 70.8883H84.5119ZM78.4839 51.0164C82.2903 56.6934 84.5119 63.5294 84.5119 70.8883H85.8319C85.8319 63.2599 83.5281 56.1692 79.5803 50.2813L78.4839 51.0164ZM82.248 43.7912C82.4818 44.6275 82.3218 45.5977 81.7092 46.6906C81.0948 47.7866 80.0497 48.9574 78.6128 50.1391L79.4513 51.1586C80.9632 49.9151 82.1388 48.6237 82.8606 47.3361C83.5841 46.0454 83.8755 44.7105 83.5193 43.4359L82.248 43.7912ZM74.1633 40.0669C76.4749 40.238 78.3861 40.6732 79.7809 41.3316C81.1776 41.9909 81.9804 42.8339 82.248 43.7912L83.5193 43.4359C83.1106 41.9739 81.9355 40.889 80.3443 40.1379C78.7513 39.3859 76.6647 38.9284 74.2607 38.7505L74.1633 40.0669ZM74.4027 31.3208C75.509 33.3591 75.2332 36.0745 73.6289 39.0995L74.7951 39.718C76.4988 36.5055 76.9703 33.2843 75.5628 30.6911L74.4027 31.3208ZM49.3068 32.434C54.8781 29.41 60.5084 27.8211 65.0891 27.6716C69.7133 27.5208 73.0507 28.8299 74.4027 31.3208L75.5628 30.6911C73.8446 27.5256 69.8286 26.1963 65.046 26.3523C60.2199 26.5098 54.3899 28.1731 48.6771 31.2739L49.3068 32.434ZM46.3407 34.0196C47.3087 33.5062 48.3016 32.9796 49.3068 32.434L48.6771 31.2739C47.6784 31.8159 46.691 32.3396 45.7222 32.8534L46.3407 34.0196ZM46.3437 34.018L46.3439 34.0179L45.719 32.8552L45.7188 32.8553L46.3437 34.018ZM46.3385 34.0207L46.339 34.0205L45.7235 32.8528L45.7231 32.853L46.3385 34.0207Z" fill="#9A7660" mask="url(#path-4-inside-2_167_2535)"/>
<path d="M72.1508 32.806C71.4956 32.6293 71.5478 34.0412 71.1396 35.5551C70.7315 37.069 70.0175 38.1115 70.6727 38.2882C71.3279 38.4648 72.0174 37.3343 72.4256 35.8204C72.8337 34.3065 72.806 32.9826 72.1508 32.806Z" fill="#ECD3AA"/>
<path d="M69.6627 31.1878C69.1129 30.7899 68.8507 31.8651 68.1528 32.8296C67.4548 33.794 66.5854 34.2825 67.1352 34.6803C67.685 35.0782 68.5516 34.5141 69.2496 33.5496C69.9475 32.5852 70.2124 31.5856 69.6627 31.1878Z" fill="#ECD3AA"/>
<path d="M79.7899 44.4747C79.3945 43.9232 78.8051 44.8599 77.8376 45.5535C76.87 46.2471 75.8906 46.4349 76.286 46.9864C76.6813 47.538 77.6821 47.2776 78.6497 46.584C79.6172 45.8904 80.1852 45.0263 79.7899 44.4747Z" fill="#ECD3AA"/>
<circle cx="26.8897" cy="85.0435" r="10.23" fill="#FFC3D8"/>
<circle cx="71.7705" cy="85.7027" r="10.23" fill="#FFC3D8"/>
<path d="M37.7802 77.7232C37.7802 80.457 36.3027 81.4132 34.4802 81.4132C32.6576 81.4132 31.1802 80.457 31.1802 77.7232C31.1802 74.9894 32.6576 73.4932 34.4802 73.4932C36.3027 73.4932 37.7802 74.9894 37.7802 77.7232Z" fill="black"/>
<path d="M36.6602 78.0501C35.9596 78.9666 35.2343 78.0136 34.2327 77.2479C33.2312 76.4823 32.3326 76.1938 33.0332 75.2774C33.7338 74.3609 34.9291 74.4801 35.9307 75.2457C36.9323 76.0114 37.3608 77.1337 36.6602 78.0501Z" fill="white"/>
<path d="M32.5588 77.9692C33.0731 77.2834 33.5674 77.9481 34.2611 78.4683C34.9547 78.9885 35.585 79.1671 35.0707 79.8529C34.5564 80.5387 33.7126 80.4924 33.019 79.9722C32.3253 79.4521 32.0445 78.655 32.5588 77.9692Z" fill="white"/>
<path d="M67.4799 78.0904C67.4799 80.8242 66.0024 81.7804 64.1799 81.7804C62.3573 81.7804 60.8799 80.8242 60.8799 78.0904C60.8799 75.3565 62.3573 73.8604 64.1799 73.8604C66.0024 73.8604 67.4799 75.3565 67.4799 78.0904Z" fill="black"/>
<path d="M66.3599 78.4173C65.6593 79.3337 64.934 78.3808 63.9324 77.6151C62.9309 76.8494 62.0323 76.561 62.7329 75.6446C63.4335 74.7281 64.6288 74.8473 65.6304 75.6129C66.632 76.3786 67.0605 77.5009 66.3599 78.4173Z" fill="white"/>
<path d="M62.2585 78.3364C62.7728 77.6506 63.2671 78.3153 63.9608 78.8355C64.6544 79.3557 65.2847 79.5343 64.7704 80.2201C64.2561 80.9059 63.4123 80.8596 62.7187 80.3394C62.025 79.8192 61.7442 79.0222 62.2585 78.3364Z" fill="white"/>
<path d="M65.1891 60.6995C64.6947 61.8596 63.0171 61.6242 61.1609 60.8332C59.3047 60.0422 57.9729 58.9952 58.4672 57.8351C58.9616 56.675 60.7369 56.6813 62.5931 57.4723C64.4493 58.2632 65.6835 59.5394 65.1891 60.6995Z" fill="#C6A590"/>
<path d="M40.9728 58.151C41.3593 59.3513 39.9376 60.2725 38.017 60.891C36.0964 61.5094 34.4043 61.5909 34.0177 60.3905C33.6312 59.1902 34.9766 58.0319 36.8972 57.4134C38.8178 56.795 40.5863 56.9506 40.9728 58.151Z" fill="#C6A590"/>
<path d="M55.5998 82.6045C55.5998 84.8827 50.2255 88.3795 49.3298 88.3795C47.5384 88.3795 43.0598 84.8827 43.0598 82.6045C43.0598 80.3263 45.867 78.4795 49.3298 78.4795C52.7926 78.4795 55.5998 80.3263 55.5998 82.6045Z" fill="#F5A327"/>
<path d="M55.5837 81.9524C55.5837 83.4332 50.2094 85.7061 49.3137 85.7061C47.5223 85.7061 43.0437 83.4332 43.0437 81.9524C43.0437 80.4716 45.8509 77.7861 49.3137 77.7861C52.7765 77.7861 55.5837 80.4716 55.5837 81.9524Z" fill="#FFCB52"/>
<path d="M61.9242 113.857C61.9039 107.77 54.6798 107.544 46.5604 107.571C38.441 107.598 32.5009 107.868 32.5212 113.955C32.5415 120.042 39.1347 123.351 47.2541 123.324C55.3735 123.297 61.9445 119.944 61.9242 113.857Z" fill="#F3E0C1"/>
<path d="M39.659 105.531L39.659 105.531C38.5773 106.082 37.5422 106.343 36.6102 106.51C36.2499 106.574 35.9013 106.626 35.5742 106.674C35.4808 106.687 35.389 106.701 35.2993 106.714C34.8913 106.775 34.5237 106.836 34.1916 106.92C33.5316 107.087 33.052 107.334 32.7227 107.81C32.3853 108.298 32.1691 109.078 32.1691 110.392C32.1691 115.616 35.4944 119.07 39.509 119.07C41.5747 119.07 43.5258 118.536 44.9584 117.21C46.386 115.89 47.3491 113.737 47.3491 110.392C47.3491 106.785 47.0977 104.572 46.6755 103.3C46.4648 102.665 46.2237 102.303 45.9859 102.112C45.7626 101.931 45.5136 101.878 45.2108 101.928C44.8931 101.98 44.5235 102.146 44.0988 102.407C43.6773 102.666 43.2264 103.003 42.7462 103.375C42.6262 103.468 42.5044 103.563 42.3808 103.66C41.5296 104.324 40.5997 105.051 39.659 105.531Z" fill="url(#paint3_linear_167_2535)" stroke="#9A7660" stroke-width="0.66"/>
<path d="M55.0395 105.531L55.0395 105.531C56.1212 106.082 57.1563 106.343 58.0882 106.51C58.4486 106.574 58.7972 106.626 59.1242 106.674C59.2177 106.687 59.3095 106.701 59.3992 106.714C59.8072 106.775 60.1748 106.836 60.5068 106.92C61.1669 107.087 61.6465 107.334 61.9758 107.81C62.3132 108.298 62.5294 109.078 62.5294 110.392C62.5294 115.616 59.204 119.07 55.1895 119.07C53.1238 119.07 51.1727 118.536 49.74 117.21C48.3125 115.89 47.3494 113.737 47.3494 110.392C47.3494 106.785 47.6008 104.572 48.023 103.3C48.2337 102.665 48.4748 102.303 48.7126 102.112C48.9359 101.931 49.1848 101.878 49.4877 101.928C49.8054 101.98 50.175 102.146 50.5997 102.407C51.0212 102.666 51.4721 103.003 51.9523 103.375C52.0723 103.468 52.1941 103.563 52.3176 103.66C53.1689 104.324 54.0988 105.051 55.0395 105.531Z" fill="url(#paint4_linear_167_2535)" stroke="#9A7660" stroke-width="0.66"/>
<path d="M44.7101 106.474C44.3613 105.994 43.9174 106.768 43.1521 107.324C42.3868 107.879 41.5899 108.006 41.9387 108.486C42.2874 108.967 43.0987 108.779 43.864 108.223C44.6293 107.668 45.0588 106.954 44.7101 106.474Z" fill="#ECD3AA"/>
<path d="M50.1991 106.474C50.5478 105.994 50.9918 106.768 51.7571 107.324C52.5224 107.879 53.3192 108.006 52.9705 108.486C52.6218 108.967 51.8105 108.779 51.0452 108.223C50.2799 107.668 49.8504 106.954 50.1991 106.474Z" fill="#ECD3AA"/>
<path d="M45.3707 110.435C45.022 109.955 44.578 110.729 43.8127 111.284C43.0474 111.84 42.2506 111.967 42.5993 112.447C42.9481 112.928 43.7593 112.74 44.5246 112.184C45.2899 111.629 45.7195 110.915 45.3707 110.435Z" fill="#ECD3AA"/>
<path d="M49.5385 110.435C49.8872 109.955 50.3312 110.729 51.0965 111.284C51.8618 111.84 52.6586 111.967 52.3099 112.447C51.9611 112.928 51.1499 112.74 50.3846 112.184C49.6193 111.629 49.1897 110.915 49.5385 110.435Z" fill="#ECD3AA"/>
<g opacity="0.7">
<path d="M72.5201 21.0992C72.3551 21.2391 72.0411 21.3587 71.8248 21.364C69.9873 21.4281 65.472 20.496 63.9773 16.5709C63.3175 14.8383 64.1799 12.9048 65.9013 12.2493C66.9218 11.8607 68.0125 12.0104 68.8692 12.5573C69.1451 11.579 69.8656 10.7397 70.8805 10.3532C72.6019 9.69768 74.5319 10.5678 75.1917 12.3004C76.6864 16.2255 73.9348 19.9249 72.5201 21.0992Z" fill="url(#paint5_linear_167_2535)"/>
</g>
<g opacity="0.4">
<path d="M21.0315 31.8069C20.7747 31.7462 20.4299 31.5245 20.2681 31.316C18.8749 29.5584 16.521 24.4505 19.2924 20.1413C20.5158 18.2392 23.0384 17.686 24.9283 18.9015C26.0487 19.6221 26.6914 20.8012 26.7746 22.0383C27.9348 21.601 29.2805 21.7006 30.3947 22.4172C32.2846 23.6327 32.8276 26.1575 31.6042 28.0597C28.8328 32.3688 23.2086 32.3457 21.0315 31.8069Z" fill="url(#paint6_linear_167_2535)"/>
</g>
<path d="M22.768 19.256V24.92H21.112V13.52H22.768V17.828H24.376V19.256H22.768ZM19.588 13.976V22.976H13.756V13.976H19.588ZM17.932 15.404H15.412V21.548H17.932V15.404ZM30.1795 18.428C29.5715 18.428 29.0355 18.32 28.5715 18.104C28.1075 17.88 27.7475 17.584 27.4915 17.216C27.2435 16.84 27.1195 16.424 27.1195 15.968C27.1195 15.512 27.2435 15.096 27.4915 14.72C27.7475 14.344 28.1075 14.048 28.5715 13.832C29.0355 13.616 29.5715 13.508 30.1795 13.508C30.7955 13.508 31.3355 13.616 31.7995 13.832C32.2635 14.048 32.6195 14.344 32.8675 14.72C33.1155 15.096 33.2395 15.512 33.2395 15.968C33.2395 16.424 33.1115 16.84 32.8555 17.216C32.6075 17.592 32.2515 17.888 31.7875 18.104C31.3235 18.32 30.7875 18.428 30.1795 18.428ZM30.1795 17.156C30.6035 17.156 30.9475 17.048 31.2115 16.832C31.4755 16.608 31.6075 16.32 31.6075 15.968C31.6075 15.624 31.4755 15.34 31.2115 15.116C30.9475 14.892 30.6035 14.78 30.1795 14.78C29.7555 14.78 29.4115 14.892 29.1475 15.116C28.8835 15.34 28.7515 15.624 28.7515 15.968C28.7515 16.32 28.8835 16.608 29.1475 16.832C29.4115 17.048 29.7555 17.156 30.1795 17.156ZM35.2315 18.86V20.216H25.1155V18.86H35.2315ZM34.2715 20.864V24.968H26.0995V20.864H34.2715ZM32.6155 22.22H27.7555V23.612H32.6155V22.22ZM41.5991 18.068C41.0151 18.068 40.4911 17.968 40.0271 17.768C39.5711 17.568 39.2151 17.292 38.9591 16.94C38.7111 16.588 38.5871 16.192 38.5871 15.752C38.5871 15.312 38.7111 14.916 38.9591 14.564C39.2151 14.212 39.5711 13.936 40.0271 13.736C40.4911 13.536 41.0151 13.436 41.5991 13.436C42.1831 13.436 42.7031 13.536 43.1591 13.736C43.6231 13.936 43.9791 14.212 44.2271 14.564C44.4831 14.916 44.6111 15.312 44.6111 15.752C44.6111 16.192 44.4831 16.588 44.2271 16.94C43.9791 17.292 43.6231 17.568 43.1591 17.768C42.7031 17.968 42.1831 18.068 41.5991 18.068ZM41.5991 16.82C42.0071 16.82 42.3391 16.72 42.5951 16.52C42.8591 16.32 42.9911 16.064 42.9911 15.752C42.9911 15.44 42.8591 15.184 42.5951 14.984C42.3391 14.784 42.0071 14.684 41.5991 14.684C41.1911 14.684 40.8551 14.788 40.5911 14.996C40.3351 15.196 40.2071 15.448 40.2071 15.752C40.2071 16.056 40.3351 16.312 40.5911 16.52C40.8551 16.72 41.1911 16.82 41.5991 16.82ZM46.6631 18.524V19.808H36.5351V18.524H46.6631ZM45.9191 23.78V25.064H37.4471V22.076H44.0831V21.596H37.4471V20.312H45.7151V23.276H39.0791V23.78H45.9191ZM59.7313 18.704V20.132H51.4033V14.144H59.7073V15.572H53.0593V18.704H59.7313ZM60.6193 22.7V24.14H50.4913V22.7H60.6193ZM71.8108 13.52V24.92H70.1548V20.54H68.2828V19.112H70.1548V17.348H68.2828V15.92H70.1548V13.52H71.8108ZM62.1268 17.708H65.9668V15.392H62.1268V13.964H67.6228V19.124H63.7828V21.584L64.3348 21.596C64.9668 21.596 65.6028 21.568 66.2428 21.512C66.8908 21.448 67.4788 21.36 68.0068 21.248V22.64C67.5028 22.768 66.8548 22.868 66.0628 22.94C65.2788 23.012 64.4468 23.048 63.5668 23.048C63.0868 23.048 62.6068 23.036 62.1268 23.012V17.708ZM78.3824 20.228C77.6464 20.228 76.9984 20.084 76.4384 19.796C75.8864 19.5 75.4584 19.108 75.1544 18.62C74.8584 18.124 74.7104 17.588 74.7104 17.012C74.7104 16.436 74.8584 15.904 75.1544 15.416C75.4584 14.92 75.8864 14.528 76.4384 14.24C76.9984 13.944 77.6464 13.796 78.3824 13.796C79.1184 13.796 79.7624 13.944 80.3144 14.24C80.8744 14.528 81.3024 14.92 81.5984 15.416C81.9024 15.904 82.0544 16.436 82.0544 17.012C82.0544 17.588 81.9024 18.124 81.5984 18.62C81.3024 19.108 80.8744 19.5 80.3144 19.796C79.7624 20.084 79.1184 20.228 78.3824 20.228ZM78.3824 18.8C78.7824 18.8 79.1344 18.724 79.4384 18.572C79.7424 18.412 79.9744 18.196 80.1344 17.924C80.3024 17.652 80.3864 17.348 80.3864 17.012C80.3864 16.676 80.3024 16.372 80.1344 16.1C79.9744 15.828 79.7424 15.616 79.4384 15.464C79.1344 15.304 78.7824 15.224 78.3824 15.224C77.9824 15.224 77.6304 15.304 77.3264 15.464C77.0224 15.616 76.7864 15.828 76.6184 16.1C76.4584 16.372 76.3784 16.676 76.3784 17.012C76.3784 17.348 76.4584 17.652 76.6184 17.924C76.7864 18.196 77.0224 18.412 77.3264 18.572C77.6304 18.724 77.9824 18.8 78.3824 18.8ZM83.4584 22.748V24.176H73.3304V22.748H75.5744V20.444H77.2304V22.748H79.5584V20.444H81.2144V22.748H83.4584Z" fill="#95003D"/>
<g filter="url(#filter1_d_167_2535)">
<path d="M46.2922 99.6737C46.0688 99.7526 45.7009 99.7526 45.4775 99.6737C43.572 99.0232 39.3142 96.3095 39.3142 91.7101C39.3142 89.6798 40.9503 88.0371 42.9675 88.0371C44.1633 88.0371 45.2212 88.6153 45.8848 89.5089C46.5485 88.6153 47.6129 88.0371 48.8022 88.0371C50.8194 88.0371 52.4555 89.6798 52.4555 91.7101C52.4555 96.3095 48.1977 99.0232 46.2922 99.6737Z" fill="url(#paint7_linear_167_2535)" stroke="#F23180" stroke-width="0.7" stroke-linecap="round" stroke-linejoin="round"/>
</g>
<path d="M43 90C42.3333 90 41 91 41 92.5" stroke="white" stroke-width="0.7" stroke-linecap="round"/>
</g>
<defs>
<filter id="filter0_i_167_2535" x="9.4002" y="25.68" width="75.9001" height="81.5085" filterUnits="userSpaceOnUse" color-interpolation-filters="sRGB">
<feFlood flood-opacity="0" result="BackgroundImageFix"/>
<feBlend mode="normal" in="SourceGraphic" in2="BackgroundImageFix" result="shape"/>
<feColorMatrix in="SourceAlpha" type="matrix" values="0 0 0 0 0 0 0 0 0 0 0 0 0 0 0 0 0 0 127 0" result="hardAlpha"/>
<feOffset dx="-3.3" dy="-1.32"/>
<feGaussianBlur stdDeviation="6.6"/>
<feComposite in2="hardAlpha" operator="arithmetic" k2="-1" k3="1"/>
<feColorMatrix type="matrix" values="0 0 0 0 0.92549 0 0 0 0 0.827451 0 0 0 0 0.666667 0 0 0 1 0"/>
<feBlend mode="normal" in2="shape" result="effect1_innerShadow_167_2535"/>
</filter>
<filter id="filter1_d_167_2535" x="34.9641" y="87.6875" width="21.8413" height="20.3955" filterUnits="userSpaceOnUse" color-interpolation-filters="sRGB">
<feFlood flood-opacity="0" result="BackgroundImageFix"/>
<feColorMatrix in="SourceAlpha" type="matrix" values="0 0 0 0 0 0 0 0 0 0 0 0 0 0 0 0 0 0 127 0" result="hardAlpha"/>
<feOffset dy="4"/>
<feGaussianBlur stdDeviation="2"/>
<feComposite in2="hardAlpha" operator="out"/>
<feColorMatrix type="matrix" values="0 0 0 0 0 0 0 0 0 0 0 0 0 0 0 0 0 0 0.25 0"/>
<feBlend mode="normal" in2="BackgroundImageFix" result="effect1_dropShadow_167_2535"/>
<feBlend mode="normal" in="SourceGraphic" in2="effect1_dropShadow_167_2535" result="shape"/>
</filter>
<linearGradient id="paint0_linear_167_2535" x1="49" y1="0" x2="49" y2="127" gradientUnits="userSpaceOnUse">
<stop stop-color="#F8D5E3"/>
<stop offset="1" stop-color="#FF98C1"/>
</linearGradient>
<linearGradient id="paint1_linear_167_2535" x1="47.35" y1="91.0205" x2="47.35" y2="139.201" gradientUnits="userSpaceOnUse">
<stop stop-color="#FFFBEC"/>
<stop offset="1" stop-color="#FDECCC"/>
</linearGradient>
<linearGradient id="paint2_linear_167_2535" x1="48.9834" y1="45.1501" x2="49.0002" y2="107.188" gradientUnits="userSpaceOnUse">
<stop stop-color="#FFFBEC"/>
<stop offset="1" stop-color="#FDECCC"/>
</linearGradient>
<linearGradient id="paint3_linear_167_2535" x1="39.7591" y1="101.58" x2="39.7591" y2="119.4" gradientUnits="userSpaceOnUse">
<stop stop-color="#FFFBEC"/>
<stop offset="1" stop-color="#FDECCC"/>
</linearGradient>
<linearGradient id="paint4_linear_167_2535" x1="54.9394" y1="101.58" x2="54.9394" y2="119.4" gradientUnits="userSpaceOnUse">
<stop stop-color="#FFFBEC"/>
<stop offset="1" stop-color="#FDECCC"/>
</linearGradient>
<linearGradient id="paint5_linear_167_2535" x1="68.3909" y1="11.3013" x2="72.1917" y2="21.2821" gradientUnits="userSpaceOnUse">
<stop stop-color="#FF94C0"/>
<stop offset="1" stop-color="#FF579C"/>
</linearGradient>
<linearGradient id="paint6_linear_167_2535" x1="27.6615" y1="20.6594" x2="20.6142" y2="31.6169" gradientUnits="userSpaceOnUse">
<stop stop-color="#FF94C0"/>
<stop offset="1" stop-color="#FF579C"/>
</linearGradient>
<linearGradient id="paint7_linear_167_2535" x1="45.8848" y1="88.0371" x2="45.8848" y2="99.7328" gradientUnits="userSpaceOnUse">
<stop stop-color="#FF94C0"/>
<stop offset="1" stop-color="#FF579C"/>
</linearGradient>
<clipPath id="clip0_167_2535">
<path d="M0 8C0 3.58172 3.58172 0 8 0H90C94.4183 0 98 3.58172 98 8V119C98 123.418 94.4183 127 90 127H8C3.58172 127 0 123.418 0 119V8Z" fill="white"/>
</clipPath>
</defs>
</svg>
