<svg width="86" height="70" viewBox="0 0 86 70" fill="none" xmlns="http://www.w3.org/2000/svg">
<g id="Frame 2147226046">
<g clip-path="url(#clip0_179_4014)">
<circle id="Ellipse 1659" cx="56" cy="57" r="48" fill="#00C38C"/>
<g id="Group 2147225816">
<g id="Union">
<mask id="path-3-inside-1_179_4014" fill="white">
<path d="M45.446 62.5669C45.446 71.2592 52.6602 78.3057 33.6365 78.3057C14.6128 78.3057 21.8269 71.2592 21.8269 62.5669C21.8269 53.8746 25.9585 46.8281 33.6365 46.8281C41.3145 46.8281 45.446 53.8746 45.446 62.5669Z"/>
</mask>
<path d="M45.446 62.5669C45.446 71.2592 52.6602 78.3057 33.6365 78.3057C14.6128 78.3057 21.8269 71.2592 21.8269 62.5669C21.8269 53.8746 25.9585 46.8281 33.6365 46.8281C41.3145 46.8281 45.446 53.8746 45.446 62.5669Z" fill="url(#paint0_linear_179_4014)"/>
<path d="M45.0148 62.5669C45.0148 64.7917 45.4766 66.9076 45.8532 68.7783C46.2364 70.6812 46.5193 72.2874 46.2524 73.6107C46.122 74.2572 45.8605 74.8287 45.4118 75.3302C44.9604 75.8346 44.3015 76.2883 43.3477 76.6683C41.4276 77.4334 38.3792 77.8745 33.6365 77.8745V78.7369C38.4056 78.7369 41.5893 78.2973 43.6669 77.4695C44.712 77.0531 45.4934 76.5323 46.0544 75.9053C46.618 75.2755 46.941 74.5588 47.0978 73.7812C47.4054 72.2563 47.0737 70.4711 46.6987 68.6081C46.3171 66.7128 45.8772 64.6883 45.8772 62.5669H45.0148ZM33.6365 77.8745C28.8937 77.8745 25.8454 77.4334 23.9252 76.6683C22.9714 76.2883 22.3125 75.8346 21.8612 75.3302C21.4124 74.8287 21.1509 74.2572 21.0205 73.6107C20.7536 72.2874 21.0366 70.6812 21.4197 68.7783C21.7963 66.9076 22.2581 64.7917 22.2581 62.5669H21.3957C21.3957 64.6883 20.9558 66.7128 20.5742 68.6081C20.1992 70.4711 19.8676 72.2563 20.1751 73.7812C20.3319 74.5588 20.6549 75.2755 21.2185 75.9053C21.7795 76.5323 22.5609 77.0531 23.606 77.4695C25.6836 78.2973 28.8673 78.7369 33.6365 78.7369V77.8745ZM22.2581 62.5669C22.2581 58.2822 23.2774 54.4414 25.2058 51.6851C27.1242 48.943 29.9492 47.2593 33.6365 47.2593V46.3969C29.6458 46.3969 26.5659 48.2365 24.4991 51.1907C22.4422 54.1307 21.3957 58.1594 21.3957 62.5669H22.2581ZM33.6365 47.2593C37.3238 47.2593 40.1487 48.943 42.0672 51.6851C43.9955 54.4414 45.0148 58.2822 45.0148 62.5669H45.8772C45.8772 58.1594 44.8307 54.1307 42.7738 51.1907C40.707 48.2365 37.6272 46.3969 33.6365 46.3969V47.2593Z" fill="#9A7660" mask="url(#path-3-inside-1_179_4014)"/>
</g>
<g id="Union_2">
<mask id="path-5-inside-2_179_4014" fill="white">
<path fill-rule="evenodd" clip-rule="evenodd" d="M32.7759 9.20531C32.0816 9.57355 31.4045 9.93267 30.7534 10.2887C19.5883 12.1804 11.0838 21.9299 11.0838 33.6728C11.0838 34.8358 11.0619 35.9793 11.0405 37.0976C10.8208 48.5727 10.652 57.3888 34.716 57.3888C58.78 57.3888 58.6112 48.5727 58.3915 37.0976C58.3701 35.9793 58.3482 34.8358 58.3482 33.6728C58.3482 28.7773 56.8701 24.2283 54.3374 20.4506C56.264 18.866 57.2395 17.2332 56.854 15.854C56.4121 14.2733 54.2689 13.3346 51.1875 13.1068C52.268 11.0693 52.5121 9.1301 51.6909 7.61725C49.6851 3.92168 42.0826 4.16971 34.7103 8.17123C34.0556 8.52655 33.4087 8.8697 32.776 9.20526L32.7759 9.20531Z"/>
</mask>
<g filter="url(#filter0_i_179_4014)">
<path fill-rule="evenodd" clip-rule="evenodd" d="M32.7759 9.20531C32.0816 9.57355 31.4045 9.93267 30.7534 10.2887C19.5883 12.1804 11.0838 21.9299 11.0838 33.6728C11.0838 34.8358 11.0619 35.9793 11.0405 37.0976C10.8208 48.5727 10.652 57.3888 34.716 57.3888C58.78 57.3888 58.6112 48.5727 58.3915 37.0976C58.3701 35.9793 58.3482 34.8358 58.3482 33.6728C58.3482 28.7773 56.8701 24.2283 54.3374 20.4506C56.264 18.866 57.2395 17.2332 56.854 15.854C56.4121 14.2733 54.2689 13.3346 51.1875 13.1068C52.268 11.0693 52.5121 9.1301 51.6909 7.61725C49.6851 3.92168 42.0826 4.16971 34.7103 8.17123C34.0556 8.52655 33.4087 8.8697 32.776 9.20526L32.7759 9.20531Z" fill="url(#paint1_linear_179_4014)"/>
</g>
<path d="M30.7534 10.2887L30.8254 10.7139L30.8967 10.7018L30.9602 10.6671L30.7534 10.2887ZM32.7759 9.20531L32.9779 9.58625L32.9788 9.58578L32.7759 9.20531ZM11.0405 37.0976L10.6094 37.0893L11.0405 37.0976ZM58.3915 37.0976L58.8226 37.0893L58.3915 37.0976ZM54.3374 20.4506L54.0635 20.1175L53.7615 20.3659L53.9793 20.6907L54.3374 20.4506ZM56.854 15.854L56.4387 15.9701L56.854 15.854ZM51.1875 13.1068L50.8066 12.9048L50.4972 13.4882L51.1557 13.5368L51.1875 13.1068ZM51.6909 7.61725L51.312 7.82295V7.82295L51.6909 7.61725ZM34.7103 8.17123L34.5046 7.79226L34.7103 8.17123ZM32.776 9.20526L32.5739 8.82433L32.573 8.82479L32.776 9.20526ZM30.9602 10.6671C31.6085 10.3126 32.2831 9.95475 32.9779 9.58625L32.5738 8.82437C31.88 9.19236 31.2004 9.55279 30.5465 9.91041L30.9602 10.6671ZM11.515 33.6728C11.515 22.1427 19.8653 12.5708 30.8254 10.7139L30.6813 9.86359C19.3112 11.79 10.6526 21.7172 10.6526 33.6728H11.515ZM11.4716 37.1058C11.493 35.9882 11.515 34.8406 11.515 33.6728H10.6526C10.6526 34.831 10.6308 35.9705 10.6094 37.0893L11.4716 37.1058ZM34.716 56.9576C22.6997 56.9576 16.912 54.7483 14.1073 51.2754C12.7045 49.5384 12.0135 47.4452 11.6905 45.0515C11.3665 42.6504 11.4166 39.983 11.4716 37.1058L10.6094 37.0893C10.5546 39.9497 10.5012 42.6875 10.8358 45.1668C11.1714 47.6535 11.9009 49.9159 13.4364 51.8173C16.5084 55.6212 22.6683 57.82 34.716 57.82V56.9576ZM57.9604 37.1058C58.0154 39.983 58.0655 42.6504 57.7415 45.0515C57.4185 47.4452 56.7275 49.5384 55.3247 51.2754C52.52 54.7483 46.7323 56.9576 34.716 56.9576V57.82C46.7637 57.82 52.9236 55.6212 55.9956 51.8173C57.5311 49.9159 58.2606 47.6535 58.5962 45.1668C58.9308 42.6875 58.8774 39.9497 58.8226 37.0893L57.9604 37.1058ZM57.917 33.6728C57.917 34.8406 57.9389 35.9882 57.9604 37.1058L58.8226 37.0893C58.8012 35.9705 58.7794 34.831 58.7794 33.6728H57.917ZM53.9793 20.6907C56.4658 24.3995 57.917 28.8654 57.917 33.6728H58.7794C58.7794 28.6892 57.2745 24.057 54.6956 20.2104L53.9793 20.6907ZM56.4387 15.9701C56.5914 16.5165 56.4869 17.1504 56.0866 17.8644C55.6852 18.5805 55.0023 19.3454 54.0635 20.1175L54.6113 20.7836C55.5991 19.9712 56.3673 19.1274 56.8389 18.2861C57.3116 17.4429 57.502 16.5707 57.2692 15.7379L56.4387 15.9701ZM51.1557 13.5368C52.6662 13.6485 53.9151 13.9329 54.8265 14.363C55.7392 14.7938 56.2639 15.3446 56.4387 15.9701L57.2692 15.7379C57.0022 14.7827 56.2343 14.0738 55.1946 13.5831C54.1536 13.0918 52.7902 12.7929 51.2193 12.6768L51.1557 13.5368ZM51.312 7.82295C52.0347 9.15454 51.8546 10.9285 50.8066 12.9048L51.5685 13.3088C52.6815 11.2101 52.9894 9.10566 52.0699 7.41155L51.312 7.82295ZM34.916 8.55021C38.5559 6.57453 42.2344 5.53644 45.2271 5.4388C48.2483 5.34024 50.4286 6.19553 51.312 7.82295L52.0699 7.41155C50.9474 5.3434 48.3236 4.47492 45.1989 4.57686C42.0459 4.67973 38.2369 5.76642 34.5046 7.79226L34.916 8.55021ZM32.978 9.5862C33.6104 9.25078 34.2592 8.90668 34.916 8.55021L34.5046 7.79226C33.8521 8.14643 33.2069 8.48862 32.5739 8.82433L32.978 9.5862ZM32.9788 9.58578L32.9789 9.58574L32.573 8.82479L32.573 8.82484L32.9788 9.58578Z" fill="#9A7660" mask="url(#path-5-inside-2_179_4014)"/>
</g>
<path id="Ellipse 1650" d="M49.8404 8.79536C49.4123 8.67995 49.4465 9.6024 49.1798 10.5915C48.9131 11.5805 48.4467 12.2617 48.8748 12.3771C49.3028 12.4925 49.7533 11.7539 50.0199 10.7648C50.2866 9.77573 50.2685 8.91077 49.8404 8.79536Z" fill="#ECD3AA"/>
<path id="Ellipse 1651" d="M48.2147 7.73691C47.8555 7.47699 47.6842 8.17945 47.2282 8.80956C46.7722 9.43966 46.2042 9.7588 46.5634 10.0187C46.9226 10.2786 47.4888 9.9101 47.9448 9.28C48.4008 8.64989 48.5738 7.99684 48.2147 7.73691Z" fill="#ECD3AA"/>
<path id="Ellipse 1652" d="M54.8314 16.4187C54.5731 16.0583 54.1881 16.6703 53.5559 17.1234C52.9238 17.5766 52.2839 17.6993 52.5422 18.0596C52.8005 18.42 53.4544 18.2498 54.0865 17.7967C54.7187 17.3436 55.0897 16.779 54.8314 16.4187Z" fill="#ECD3AA"/>
<circle id="Ellipse 1611" cx="20.271" cy="42.9219" r="6.6836" fill="#FFC3D8"/>
<circle id="Ellipse 1612" cx="49.5918" cy="43.3535" r="6.6836" fill="#FFC3D8"/>
<g id="Group 2147225805">
<path id="Ellipse 1613" d="M27.3862 38.1406C27.3862 39.9266 26.4209 40.5514 25.2302 40.5514C24.0395 40.5514 23.0742 39.9266 23.0742 38.1406C23.0742 36.3545 24.0395 35.377 25.2302 35.377C26.4209 35.377 27.3862 36.3545 27.3862 38.1406Z" fill="black"/>
<path id="Ellipse 1592" d="M26.6536 38.3551C26.1959 38.9539 25.722 38.3313 25.0677 37.831C24.4133 37.3308 23.8263 37.1424 24.284 36.5436C24.7417 35.9449 25.5227 36.0227 26.177 36.523C26.8314 37.0232 27.1113 37.7564 26.6536 38.3551Z" fill="white"/>
<path id="Ellipse 1639" d="M23.975 38.3006C24.311 37.8526 24.634 38.2869 25.0872 38.6267C25.5403 38.9666 25.9521 39.0832 25.6161 39.5313C25.2801 39.9794 24.7288 39.9491 24.2756 39.6093C23.8225 39.2694 23.639 38.7487 23.975 38.3006Z" fill="white"/>
</g>
<g id="Group 2147225806">
<path id="Ellipse 1613_2" d="M46.79 38.3788C46.79 40.1649 45.8248 40.7896 44.634 40.7896C43.4433 40.7896 42.478 40.1649 42.478 38.3788C42.478 36.5927 43.4433 35.6152 44.634 35.6152C45.8248 35.6152 46.79 36.5927 46.79 38.3788Z" fill="black"/>
<path id="Ellipse 1592_2" d="M46.0574 38.5915C45.5997 39.1902 45.1259 38.5676 44.4715 38.0674C43.8171 37.5671 43.2301 37.3787 43.6878 36.7799C44.1455 36.1812 44.9265 36.259 45.5808 36.7593C46.2352 37.2595 46.5152 37.9927 46.0574 38.5915Z" fill="white"/>
<path id="Ellipse 1639_2" d="M43.3788 38.5389C43.7148 38.0909 44.0378 38.5252 44.491 38.865C44.9441 39.2048 45.3559 39.3215 45.0199 39.7696C44.6839 40.2177 44.1326 40.1874 43.6795 39.8476C43.2263 39.5077 43.0428 38.987 43.3788 38.5389Z" fill="white"/>
</g>
<path id="Ellipse 1615" d="M45.2918 27.0168C44.9688 27.7748 43.8727 27.621 42.66 27.1042C41.4473 26.5874 40.5772 25.9034 40.9001 25.1454C41.2231 24.3875 42.383 24.3916 43.5957 24.9084C44.8084 25.4251 45.6147 26.2589 45.2918 27.0168Z" fill="#C6A590"/>
<path id="Ellipse 1622" d="M29.4703 25.3538C29.7229 26.138 28.794 26.7399 27.5392 27.1439C26.2844 27.548 25.1789 27.6012 24.9264 26.817C24.6739 26.0327 25.5528 25.276 26.8076 24.8719C28.0624 24.4679 29.2178 24.5695 29.4703 25.3538Z" fill="#C6A590"/>
<path id="Ellipse 1617" d="M39.0278 41.3298C39.0278 42.8182 35.5166 45.1028 34.9314 45.1028C33.761 45.1028 30.835 42.8182 30.835 41.3298C30.835 39.8414 32.669 38.6348 34.9314 38.6348C37.1937 38.6348 39.0278 39.8414 39.0278 41.3298Z" fill="#F5A327"/>
<path id="Ellipse 1618" d="M39.016 40.9036C39.016 41.8711 35.5048 43.356 34.9196 43.356C33.7492 43.356 30.8232 41.8711 30.8232 40.9036C30.8232 39.9361 32.6573 38.1816 34.9196 38.1816C37.182 38.1816 39.016 39.9361 39.016 40.9036Z" fill="#FFCB52"/>
<path id="Ellipse 1656" d="M43.1596 61.7478C43.1463 57.771 38.4266 57.623 33.1219 57.6406C27.8172 57.6583 23.9364 57.835 23.9496 61.8118C23.9629 65.7885 28.2704 67.9506 33.5751 67.933C38.8798 67.9153 43.1728 65.7245 43.1596 61.7478Z" fill="#F3E0C1"/>
<g id="Group 2147225808">
<path id="Ellipse 1583" d="M28.6134 56.3076L28.6134 56.3076C27.9067 56.6681 27.2304 56.8382 26.6215 56.9473C26.3861 56.9895 26.1583 57.0229 25.9447 57.0543C25.8836 57.0633 25.8237 57.0721 25.765 57.0809C25.4985 57.1208 25.2583 57.1606 25.0414 57.2153C24.6101 57.3241 24.2968 57.4859 24.0817 57.7968C23.8612 58.1154 23.72 58.625 23.72 59.4836C23.72 62.8968 25.8925 65.1534 28.5154 65.1534C29.865 65.1534 31.1397 64.8044 32.0757 63.9384C33.0083 63.0756 33.6376 61.6689 33.6376 59.4836C33.6376 57.1272 33.4734 55.681 33.1975 54.8501C33.0599 54.4354 32.9023 54.1991 32.747 54.0738C32.6011 53.956 32.4384 53.9211 32.2405 53.9537C32.033 53.9878 31.7915 54.0962 31.514 54.2669C31.2387 54.4362 30.9441 54.6565 30.6303 54.8994C30.552 54.9601 30.4724 55.0223 30.3917 55.0853C29.8355 55.5196 29.228 55.994 28.6134 56.3076Z" fill="url(#paint2_linear_179_4014)" stroke="#9A7660" stroke-width="0.4312"/>
<path id="Ellipse 1632" d="M38.662 56.3076L38.662 56.3076C39.3687 56.6681 40.045 56.8382 40.6539 56.9473C40.8893 56.9895 41.1171 57.0229 41.3307 57.0543C41.3918 57.0633 41.4517 57.0721 41.5103 57.0809C41.7769 57.1208 42.0171 57.1606 42.234 57.2153C42.6653 57.3241 42.9786 57.4859 43.1937 57.7968C43.4142 58.1154 43.5554 58.625 43.5554 59.4836C43.5554 62.8968 41.3828 65.1534 38.76 65.1534C37.4104 65.1534 36.1357 64.8044 35.1997 63.9384C34.2671 63.0756 33.6378 61.6689 33.6378 59.4836C33.6378 57.1272 33.802 55.681 34.0779 54.8501C34.2155 54.4354 34.3731 54.1991 34.5284 54.0738C34.6743 53.956 34.837 53.9211 35.0349 53.9537C35.2424 53.9878 35.4839 54.0962 35.7613 54.2669C36.0367 54.4362 36.3313 54.6565 36.645 54.8994C36.7234 54.9601 36.803 55.0223 36.8837 55.0853C37.4399 55.5196 38.0474 55.994 38.662 56.3076Z" fill="url(#paint3_linear_179_4014)" stroke="#9A7660" stroke-width="0.4312"/>
<path id="Ellipse 1633" d="M31.9142 56.9244C31.6863 56.6106 31.3963 57.1164 30.8963 57.4794C30.3963 57.8424 29.8757 57.9253 30.1035 58.2391C30.3314 58.5529 30.8614 58.4303 31.3614 58.0673C31.8614 57.7043 32.142 57.2382 31.9142 56.9244Z" fill="#ECD3AA"/>
<path id="Ellipse 1635" d="M35.4994 56.9244C35.7272 56.6106 36.0173 57.1164 36.5173 57.4794C37.0173 57.8424 37.5379 57.9253 37.3101 58.2391C37.0822 58.5529 36.5522 58.4303 36.0522 58.0673C35.5522 57.7043 35.2716 57.2382 35.4994 56.9244Z" fill="#ECD3AA"/>
<path id="Ellipse 1634" d="M32.3453 59.5123C32.1175 59.1985 31.8274 59.7043 31.3274 60.0673C30.8274 60.4303 30.3068 60.5131 30.5347 60.8269C30.7625 61.1408 31.2925 61.0182 31.7925 60.6552C32.2925 60.2921 32.5732 59.8261 32.3453 59.5123Z" fill="#ECD3AA"/>
<path id="Ellipse 1636" d="M35.0683 59.5123C35.2961 59.1985 35.5862 59.7043 36.0862 60.0673C36.5862 60.4303 37.1067 60.5131 36.8789 60.8269C36.6511 61.1408 36.121 61.0182 35.621 60.6552C35.121 60.2921 34.8404 59.8261 35.0683 59.5123Z" fill="#ECD3AA"/>
</g>
</g>
</g>
</g>
<defs>
<filter id="filter0_i_179_4014" x="8.844" y="4.1376" width="49.5881" height="53.2511" filterUnits="userSpaceOnUse" color-interpolation-filters="sRGB">
<feFlood flood-opacity="0" result="BackgroundImageFix"/>
<feBlend mode="normal" in="SourceGraphic" in2="BackgroundImageFix" result="shape"/>
<feColorMatrix in="SourceAlpha" type="matrix" values="0 0 0 0 0 0 0 0 0 0 0 0 0 0 0 0 0 0 127 0" result="hardAlpha"/>
<feOffset dx="-2.156" dy="-0.8624"/>
<feGaussianBlur stdDeviation="4.312"/>
<feComposite in2="hardAlpha" operator="arithmetic" k2="-1" k3="1"/>
<feColorMatrix type="matrix" values="0 0 0 0 0.92549 0 0 0 0 0.827451 0 0 0 0 0.666667 0 0 0 1 0"/>
<feBlend mode="normal" in2="shape" result="effect1_innerShadow_179_4014"/>
</filter>
<linearGradient id="paint0_linear_179_4014" x1="33.6365" y1="46.8281" x2="33.6365" y2="78.3057" gradientUnits="userSpaceOnUse">
<stop stop-color="#FFFBEC"/>
<stop offset="1" stop-color="#FDECCC"/>
</linearGradient>
<linearGradient id="paint1_linear_179_4014" x1="34.7051" y1="16.8579" x2="34.716" y2="57.3888" gradientUnits="userSpaceOnUse">
<stop stop-color="#FFFBEC"/>
<stop offset="1" stop-color="#FDECCC"/>
</linearGradient>
<linearGradient id="paint2_linear_179_4014" x1="28.6788" y1="53.7266" x2="28.6788" y2="65.369" gradientUnits="userSpaceOnUse">
<stop stop-color="#FFFBEC"/>
<stop offset="1" stop-color="#FDECCC"/>
</linearGradient>
<linearGradient id="paint3_linear_179_4014" x1="38.5966" y1="53.7266" x2="38.5966" y2="65.369" gradientUnits="userSpaceOnUse">
<stop stop-color="#FFFBEC"/>
<stop offset="1" stop-color="#FDECCC"/>
</linearGradient>
<clipPath id="clip0_179_4014">
<path d="M0 0H86V58C86 64.6274 80.6274 70 74 70H0V0Z" fill="white"/>
</clipPath>
</defs>
</svg>
