<svg width="86" height="70" viewBox="0 0 86 70" fill="none" xmlns="http://www.w3.org/2000/svg">
<g id="Frame 2147226046">
<g clip-path="url(#clip0_167_2765)">
<circle id="Ellipse 1659" cx="56" cy="57" r="48" fill="#00C38C"/>
<g id="Group 2147225815">
<g id="Group 2147225804">
<g id="Union">
<mask id="path-3-inside-1_167_2765" fill="white">
<path fill-rule="evenodd" clip-rule="evenodd" d="M49.4248 67.0494C49.5444 67.7488 49.6822 68.4296 49.8156 69.0881C50.9643 74.7598 51.7776 78.7757 37.6377 78.7757C23.4977 78.7757 24.3111 74.7598 25.4598 69.0881C25.6946 67.9287 25.9434 66.7001 26.0814 65.4224C25.7887 65.534 25.4887 65.6364 25.1821 65.7289C19.9899 67.294 14.527 66.6218 13.0819 61.8278C10.1716 52.1733 13.5943 52.7206 17.8803 53.4061C19.0872 53.5991 20.3625 53.803 21.5841 53.7932C22.9189 53.7825 24.1761 53.6852 25.332 53.5959C26.5642 53.5006 27.6812 53.4142 28.6537 53.451C30.5775 50.2696 33.6023 48.2617 37.6377 48.2617C41.7882 48.2617 44.8696 50.3858 46.7836 53.7262C47.5667 53.8602 48.4204 54.0622 49.34 54.2798C50.4681 54.5467 51.6952 54.8371 53.0122 55.054C54.2177 55.2525 55.5092 55.2481 56.7314 55.2439C61.0719 55.2291 64.5381 55.2173 60.1707 64.306C58.267 68.2677 53.7953 68.6129 49.4248 67.0494Z"/>
</mask>
<path fill-rule="evenodd" clip-rule="evenodd" d="M49.4248 67.0494C49.5444 67.7488 49.6822 68.4296 49.8156 69.0881C50.9643 74.7598 51.7776 78.7757 37.6377 78.7757C23.4977 78.7757 24.3111 74.7598 25.4598 69.0881C25.6946 67.9287 25.9434 66.7001 26.0814 65.4224C25.7887 65.534 25.4887 65.6364 25.1821 65.7289C19.9899 67.294 14.527 66.6218 13.0819 61.8278C10.1716 52.1733 13.5943 52.7206 17.8803 53.4061C19.0872 53.5991 20.3625 53.803 21.5841 53.7932C22.9189 53.7825 24.1761 53.6852 25.332 53.5959C26.5642 53.5006 27.6812 53.4142 28.6537 53.451C30.5775 50.2696 33.6023 48.2617 37.6377 48.2617C41.7882 48.2617 44.8696 50.3858 46.7836 53.7262C47.5667 53.8602 48.4204 54.0622 49.34 54.2798C50.4681 54.5467 51.6952 54.8371 53.0122 55.054C54.2177 55.2525 55.5092 55.2481 56.7314 55.2439C61.0719 55.2291 64.5381 55.2173 60.1707 64.306C58.267 68.2677 53.7953 68.6129 49.4248 67.0494Z" fill="url(#paint0_linear_167_2765)"/>
<path d="M49.4248 67.0494L49.5656 66.6558L48.8924 66.415L49.0128 67.1198L49.4248 67.0494ZM49.8156 69.0881L49.4059 69.171L49.8156 69.0881ZM25.4598 69.0881L25.0501 69.0051V69.0051L25.4598 69.0881ZM26.0814 65.4224L26.497 65.4673L26.5703 64.7886L25.9324 65.0318L26.0814 65.4224ZM25.1821 65.7289L25.0614 65.3287V65.3287L25.1821 65.7289ZM13.0819 61.8278L12.6816 61.9484L13.0819 61.8278ZM17.8803 53.4061L17.9463 52.9933L17.8803 53.4061ZM21.5841 53.7932L21.5875 54.2112H21.5875L21.5841 53.7932ZM25.332 53.5959L25.2997 53.1791L25.332 53.5959ZM28.6537 53.451L28.6379 53.8687L28.884 53.8781L29.0114 53.6673L28.6537 53.451ZM46.7836 53.7262L46.421 53.934L46.5189 54.105L46.7131 54.1382L46.7836 53.7262ZM49.34 54.2798L49.4362 53.873L49.34 54.2798ZM53.0122 55.054L52.9443 55.4665L52.9443 55.4665L53.0122 55.054ZM56.7314 55.2439L56.7329 55.6619L56.7314 55.2439ZM60.1707 64.306L59.7939 64.125V64.125L60.1707 64.306ZM49.0128 67.1198C49.1336 67.8265 49.2727 68.5135 49.4059 69.171L50.2253 69.0051C50.0917 68.3457 49.9551 67.6711 49.8369 66.979L49.0128 67.1198ZM49.4059 69.171C49.6953 70.5999 49.9517 71.8732 49.9679 73.0005C49.9839 74.1161 49.7629 75.0386 49.1381 75.792C48.5073 76.5527 47.4162 77.1998 45.5676 77.6537C43.7202 78.1073 41.1578 78.3577 37.6377 78.3577V79.1937C41.1876 79.1937 43.8259 78.9422 45.767 78.4656C47.7069 77.9892 48.9919 77.2779 49.7816 76.3256C50.5774 75.3661 50.8215 74.2212 50.8038 72.9885C50.7863 71.7677 50.5102 70.4121 50.2253 69.0051L49.4059 69.171ZM37.6377 78.3577C34.1176 78.3577 31.5552 78.1073 29.7077 77.6537C27.8592 77.1998 26.7681 76.5527 26.1372 75.792C25.5125 75.0386 25.2915 74.1161 25.3075 73.0005C25.3237 71.8732 25.58 70.5999 25.8694 69.171L25.0501 69.0051C24.7651 70.4121 24.4891 71.7677 24.4716 72.9885C24.4539 74.2212 24.6979 75.3661 25.4937 76.3256C26.2834 77.2779 27.5684 77.9892 29.5084 78.4656C31.4494 78.9422 34.0878 79.1937 37.6377 79.1937V78.3577ZM25.8694 69.1711C26.1037 68.0142 26.3566 66.7671 26.497 65.4673L25.6658 65.3775C25.5302 66.633 25.2854 67.8431 25.0501 69.0051L25.8694 69.1711ZM25.3027 66.1291C25.6189 66.0338 25.9283 65.9281 26.2303 65.813L25.9324 65.0318C25.649 65.1399 25.3585 65.2391 25.0614 65.3287L25.3027 66.1291ZM12.6816 61.9484C13.4528 64.5066 15.3083 65.9652 17.6215 66.5675C19.9148 67.1647 22.6606 66.9255 25.3027 66.1291L25.0614 65.3287C22.5114 66.0973 19.9297 66.3047 17.8322 65.7585C15.7546 65.2175 14.1561 63.943 13.4821 61.7071L12.6816 61.9484ZM17.9463 52.9933C16.8848 52.8236 15.8307 52.6538 14.9116 52.6571C13.9945 52.6604 13.1228 52.8347 12.4933 53.4376C11.8594 54.0447 11.5609 54.999 11.5832 56.3494C11.6055 57.7018 11.9498 59.5208 12.6816 61.9484L13.4821 61.7071C12.7587 59.3075 12.4395 57.5744 12.4191 56.3356C12.3985 55.0947 12.6778 54.4184 13.0716 54.0413C13.4698 53.6599 14.0755 53.4961 14.9146 53.4931C15.7518 53.4901 16.7327 53.6458 17.8143 53.8188L17.9463 52.9933ZM21.5808 53.3752C20.4002 53.3847 19.16 53.1874 17.9463 52.9933L17.8143 53.8188C19.0143 54.0107 20.3248 54.2213 21.5875 54.2112L21.5808 53.3752ZM25.2997 53.1791C24.1424 53.2686 22.899 53.3646 21.5808 53.3752L21.5875 54.2112C22.9388 54.2003 24.2099 54.1019 25.3642 54.0126L25.2997 53.1791ZM28.6695 53.0333C27.668 52.9954 26.5249 53.0844 25.2997 53.1791L25.3642 54.0126C26.6036 53.9168 27.6944 53.833 28.6379 53.8687L28.6695 53.0333ZM29.0114 53.6673C30.8685 50.5963 33.7652 48.6797 37.6377 48.6797V47.8437C33.4395 47.8437 30.2866 49.9429 28.296 53.2347L29.0114 53.6673ZM37.6377 48.6797C41.6194 48.6797 44.5715 50.7063 46.421 53.934L47.1463 53.5184C45.1677 50.0653 41.957 47.8437 37.6377 47.8437V48.6797ZM46.7131 54.1382C47.4807 54.2696 48.3208 54.4682 49.2437 54.6866L49.4362 53.873C48.52 53.6562 47.6526 53.4508 46.8541 53.3142L46.7131 54.1382ZM49.2437 54.6866C50.3704 54.9532 51.611 55.2469 52.9443 55.4665L53.0802 54.6416C51.7795 54.4274 50.5658 54.1403 49.4362 53.873L49.2437 54.6866ZM52.9443 55.4665C54.1903 55.6716 55.5176 55.6661 56.7329 55.6619L56.73 54.8259C55.5009 54.8301 54.2451 54.8334 53.0802 54.6416L52.9443 55.4665ZM56.7329 55.6619C57.8282 55.6582 58.8214 55.6559 59.648 55.7883C60.4766 55.9209 61.0497 56.1764 61.3842 56.6147C61.7149 57.0482 61.8863 57.7595 61.6743 58.9823C61.4626 60.2031 60.8794 61.866 59.7939 64.125L60.5474 64.4871C61.6456 62.2017 62.2669 60.4578 62.498 59.1251C62.7288 57.7944 62.5813 56.8054 62.0488 56.1076C61.5201 55.4147 60.6858 55.1078 59.7802 54.9628C58.8726 54.8175 57.805 54.8223 56.73 54.8259L56.7329 55.6619ZM59.7939 64.125C58.9038 65.9773 57.4255 66.9776 55.6397 67.34C53.8361 67.7061 51.7062 67.4216 49.5656 66.6558L49.284 67.443C51.514 68.2407 53.8052 68.5654 55.8059 68.1593C57.8245 67.7496 59.5338 66.5965 60.5474 64.4871L59.7939 64.125Z" fill="#9A7660" mask="url(#path-3-inside-1_167_2765)"/>
</g>
</g>
<path id="Ellipse 1631" d="M49.3594 54.5168C49.3487 51.3277 44.6184 53.3076 39.1154 53.326C33.6125 53.3443 29.4207 51.3941 29.4313 54.5832C29.4419 57.7722 33.9088 59.5027 39.4118 59.4844C44.9148 59.466 49.37 57.7058 49.3594 54.5168Z" fill="#F3E0C1"/>
<g id="Union_2">
<mask id="path-6-inside-2_167_2765" fill="white">
<path fill-rule="evenodd" clip-rule="evenodd" d="M36.044 9.07654C35.3702 9.43391 34.7131 9.78242 34.0813 10.128C23.2592 11.9627 15.0163 21.4132 15.0163 32.7958C15.0163 33.9232 14.9951 35.0317 14.9743 36.1157C14.7614 47.2396 14.5977 55.7858 37.9251 55.7858C61.2524 55.7858 61.0888 47.2396 60.8758 36.1157V36.1156C60.855 35.0316 60.8338 33.9232 60.8338 32.7958C60.8338 28.05 59.4009 23.64 56.9456 19.9779C58.8131 18.4419 59.7587 16.859 59.385 15.5221C58.9567 13.9897 56.879 13.0797 53.8918 12.8589C54.9394 10.8837 55.176 9.00374 54.38 7.53713C52.4355 3.95469 45.0658 4.19513 37.9191 8.07416C37.2846 8.4186 36.6574 8.75124 36.044 9.07653L36.044 9.07654Z"/>
</mask>
<g filter="url(#filter0_i_167_2765)">
<path fill-rule="evenodd" clip-rule="evenodd" d="M36.044 9.07654C35.3702 9.43391 34.7131 9.78242 34.0813 10.128C23.2592 11.9627 15.0163 21.4132 15.0163 32.7958C15.0163 33.9232 14.9951 35.0317 14.9743 36.1157C14.7614 47.2396 14.5977 55.7858 37.9251 55.7858C61.2524 55.7858 61.0888 47.2396 60.8758 36.1157V36.1156C60.855 35.0316 60.8338 33.9232 60.8338 32.7958C60.8338 28.05 59.4009 23.64 56.9456 19.9779C58.8131 18.4419 59.7587 16.859 59.385 15.5221C58.9567 13.9897 56.879 13.0797 53.8918 12.8589C54.9394 10.8837 55.176 9.00374 54.38 7.53713C52.4355 3.95469 45.0658 4.19513 37.9191 8.07416C37.2846 8.4186 36.6574 8.75124 36.044 9.07653L36.044 9.07654Z" fill="url(#paint1_linear_167_2765)"/>
</g>
<path d="M34.0813 10.128L34.1512 10.5401L34.2203 10.5284L34.2819 10.4947L34.0813 10.128ZM36.044 9.07654L35.857 8.70256L35.8482 8.70727L36.044 9.07654ZM14.9743 36.1157L15.3923 36.1237L14.9743 36.1157ZM60.8758 36.1157H60.4577L60.4579 36.1237L60.8758 36.1157ZM60.8758 36.1156H61.2939L61.2937 36.1076L60.8758 36.1156ZM56.9456 19.9779L56.68 19.655L56.3873 19.8958L56.5984 20.2106L56.9456 19.9779ZM59.385 15.5221L58.9824 15.6346V15.6346L59.385 15.5221ZM53.8918 12.8589L53.5225 12.6631L53.2226 13.2286L53.861 13.2758L53.8918 12.8589ZM54.38 7.53713L54.0126 7.73653L54.38 7.53713ZM37.9191 8.07416L37.7197 7.70678L37.9191 8.07416ZM36.044 9.07653L36.231 9.45051L36.2399 9.44581L36.044 9.07653ZM34.2819 10.4947C34.9109 10.1507 35.5656 9.80344 36.2399 9.44582L35.8482 8.70727C35.1748 9.06439 34.5153 9.41417 33.8807 9.76123L34.2819 10.4947ZM15.4343 32.7958C15.4343 21.6194 23.5278 12.3412 34.1512 10.5401L34.0114 9.71585C22.9906 11.5843 14.5983 21.207 14.5983 32.7958H15.4343ZM15.3923 36.1237C15.413 35.0403 15.4343 33.9279 15.4343 32.7958H14.5983C14.5983 33.9186 14.5772 35.0231 14.5564 36.1077L15.3923 36.1237ZM37.9251 55.3678C26.2766 55.3678 20.6661 53.2261 17.9473 49.8596C16.5874 48.1757 15.9175 46.1465 15.6044 43.8261C15.2903 41.4986 15.3389 38.9128 15.3923 36.1237L14.5564 36.1077C14.5033 38.8805 14.4516 41.5345 14.7759 43.9379C15.1012 46.3485 15.8084 48.5417 17.2969 50.3848C20.2749 54.0723 26.2461 56.2038 37.9251 56.2038V55.3678ZM60.4579 36.1237C60.5113 38.9128 60.5598 41.4986 60.2457 43.8261C59.9326 46.1465 59.2627 48.1757 57.9028 49.8596C55.1841 53.2261 49.5735 55.3678 37.9251 55.3678V56.2038C49.604 56.2038 55.5753 54.0723 58.5532 50.3848C60.0417 48.5417 60.749 46.3485 61.0742 43.9379C61.3986 41.5345 61.3468 38.8805 61.2937 36.1077L60.4579 36.1237ZM60.4578 36.1156V36.1157H61.2938V36.1156H60.4578ZM60.4158 32.7958C60.4158 33.9278 60.4371 35.0402 60.4579 36.1236L61.2937 36.1076C61.2729 35.023 61.2518 33.9185 61.2518 32.7958H60.4158ZM56.5984 20.2106C59.0089 23.806 60.4158 28.1353 60.4158 32.7958H61.2518C61.2518 27.9646 59.7928 23.474 57.2927 19.7451L56.5984 20.2106ZM58.9824 15.6346C59.1305 16.1643 59.0292 16.7787 58.6411 17.4709C58.252 18.1651 57.5901 18.9066 56.68 19.655L57.2111 20.3007C58.1686 19.5132 58.9132 18.6952 59.3704 17.8797C59.8286 17.0623 60.0132 16.2168 59.7876 15.4095L58.9824 15.6346ZM53.861 13.2758C55.3253 13.384 56.536 13.6597 57.4196 14.0767C58.3044 14.4942 58.813 15.0282 58.9824 15.6346L59.7876 15.4095C59.5287 14.4835 58.7843 13.7963 57.7764 13.3206C56.7672 12.8444 55.4455 12.5546 53.9226 12.4421L53.861 13.2758ZM54.0126 7.73653C54.7133 9.02743 54.5386 10.7472 53.5225 12.6631L54.2611 13.0548C55.3402 11.0202 55.6388 8.98006 54.7474 7.33772L54.0126 7.73653ZM38.1185 8.44153C41.6471 6.52633 45.2129 5.52002 48.114 5.42537C51.0427 5.32982 53.1563 6.15893 54.0126 7.73653L54.7474 7.33772C53.6592 5.33288 51.1157 4.491 48.0867 4.58981C45.0302 4.68953 41.3378 5.74295 37.7197 7.70678L38.1185 8.44153ZM36.2399 9.44581C36.853 9.12065 37.4819 8.78708 38.1185 8.44153L37.7197 7.70678C37.0872 8.05011 36.4618 8.38182 35.8482 8.70726L36.2399 9.44581ZM36.231 9.45041L36.231 9.4504L35.8571 8.70266L35.8571 8.70267L36.231 9.45041Z" fill="#9A7660" mask="url(#path-6-inside-2_167_2765)"/>
</g>
<circle id="Ellipse 1593" cx="23.5054" cy="43.0366" r="6.479" fill="#FFC3D8"/>
<circle id="Ellipse 1596" cx="51.9292" cy="43.4546" r="6.479" fill="#FFC3D8"/>
<path id="Ellipse 1585" d="M30.4022 38.4007C30.4022 40.1321 29.4664 40.7377 28.3122 40.7377C27.1579 40.7377 26.2222 40.1321 26.2222 38.4007C26.2222 36.6693 27.1579 35.7217 28.3122 35.7217C29.4664 35.7217 30.4022 36.6693 30.4022 38.4007Z" fill="black"/>
<path id="Ellipse 1590" d="M49.2117 38.4007C49.2117 40.1321 48.276 40.7377 47.1217 40.7377C45.9675 40.7377 45.0317 40.1321 45.0317 38.4007C45.0317 36.6693 45.9675 35.7217 47.1217 35.7217C48.276 35.7217 49.2117 36.6693 49.2117 38.4007Z" fill="black"/>
<path id="Ellipse 1591" d="M32.7646 34.4341C32.1998 34.9989 31.2698 34.4639 30.3662 33.5603C29.4626 32.6567 28.9276 31.7267 29.4924 31.1619C30.0571 30.5972 31.0987 31.0206 32.0023 31.9242C32.9059 32.8278 33.3293 33.8694 32.7646 34.4341Z" fill="#C6A590"/>
<path id="Ellipse 1627" d="M14.1576 58.6391C14.2088 58.2123 15.026 58.5769 16.0119 58.6952C16.9979 58.8134 17.7793 58.6405 17.7281 59.0673C17.6769 59.494 16.8496 59.6317 15.8637 59.5134C14.8777 59.3952 14.1065 59.0658 14.1576 58.6391Z" fill="#ECD3AA"/>
<path id="Ellipse 1647" d="M52.9947 8.67805C52.5797 8.56617 52.6128 9.46038 52.3543 10.4192C52.0958 11.378 51.6436 12.0383 52.0586 12.1501C52.4736 12.262 52.9102 11.546 53.1687 10.5872C53.4272 9.62841 53.4097 8.78993 52.9947 8.67805Z" fill="#ECD3AA"/>
<path id="Ellipse 1648" d="M51.4199 7.65208C51.0717 7.40012 50.9057 8.08108 50.4636 8.69189C50.0216 9.30271 49.471 9.61207 49.8192 9.86404C50.1674 10.116 50.7162 9.75874 51.1583 9.14793C51.6003 8.53711 51.7681 7.90405 51.4199 7.65208Z" fill="#ECD3AA"/>
<path id="Ellipse 1649" d="M57.8341 16.068C57.5837 15.7187 57.2105 16.3119 56.5977 16.7512C55.9849 17.1905 55.3646 17.3094 55.615 17.6587C55.8654 18.008 56.4992 17.8431 57.112 17.4038C57.7248 16.9646 58.0845 16.4173 57.8341 16.068Z" fill="#ECD3AA"/>
<path id="Ellipse 1629" d="M59.087 60.0024C59.0358 59.5756 58.2186 59.9402 57.2327 60.0585C56.2467 60.1767 55.4653 60.0038 55.5165 60.4305C55.5677 60.8573 56.395 60.995 57.3809 60.8767C58.3669 60.7585 59.1382 60.4291 59.087 60.0024Z" fill="#ECD3AA"/>
<path id="Ellipse 1628" d="M15.374 62.5651C15.3124 62.1397 16.1963 62.279 17.179 62.1365C18.1618 61.9939 18.8712 61.6236 18.9329 62.0489C18.9946 62.4742 18.2317 62.8226 17.2489 62.9651C16.2662 63.1076 15.4357 62.9904 15.374 62.5651Z" fill="#ECD3AA"/>
<path id="Ellipse 1630" d="M57.8716 63.9283C57.9333 63.503 57.0493 63.6423 56.0666 63.4997C55.0838 63.3572 54.3744 62.9869 54.3127 63.4122C54.251 63.8375 55.014 64.1859 55.9967 64.3284C56.9794 64.4709 57.8099 64.3537 57.8716 63.9283Z" fill="#ECD3AA"/>
<path id="Ellipse 1598" d="M42.5621 34.4341C43.1268 34.9989 44.0569 34.4639 44.9604 33.5603C45.864 32.6567 46.399 31.7267 45.8343 31.1619C45.2695 30.5972 44.2279 31.0206 43.3243 31.9242C42.4208 32.8278 41.9973 33.8694 42.5621 34.4341Z" fill="#C6A590"/>
<path id="Ellipse 1587" d="M41.7677 41.4276C41.7677 43.0629 38.364 45.5728 37.7967 45.5728C36.6621 45.5728 33.8257 43.0629 33.8257 41.4276C33.8257 39.7924 35.6036 38.4668 37.7967 38.4668C39.9898 38.4668 41.7677 39.7924 41.7677 41.4276Z" fill="#F5A327"/>
<g id="Group 2147225802">
<path id="Vector 17744" d="M30.487 46.27C32.3611 44.372 38.2498 41.1167 46.8108 43.2797" stroke="url(#paint2_linear_167_2765)" stroke-width="1.1704" stroke-linecap="round"/>
<g id="Union_3">
<mask id="path-23-outside-3_167_2765" maskUnits="userSpaceOnUse" x="24.2141" y="40.9799" width="10.8497" height="11.7663" fill="black">
<rect fill="white" x="24.2141" y="40.9799" width="10.8497" height="11.7663"/>
<path fill-rule="evenodd" clip-rule="evenodd" d="M30.0138 43.6602C29.8643 43.4012 29.6989 43.1778 29.5321 43.0141C28.7362 42.2325 27.3959 42.3066 26.5387 43.1796C25.6815 44.0526 25.6318 45.3939 26.4278 46.1755C26.6241 46.3683 26.903 46.5577 27.2248 46.7206C26.8568 46.9023 26.5371 47.1199 26.3213 47.3397C25.5397 48.1357 25.6138 49.4759 26.4868 50.3331C27.3598 51.1904 28.7011 51.24 29.4828 50.4441C29.6963 50.2266 29.9057 49.9077 30.0795 49.5415C30.2397 49.8402 30.4227 50.0978 30.608 50.2798C31.3911 51.0488 32.7209 50.9644 33.5782 50.0914C34.4354 49.2184 34.4955 47.8873 33.7124 47.1183C33.5564 46.9651 33.3469 46.8145 33.1046 46.6785C33.2316 46.5995 33.3412 46.5145 33.4275 46.4265C34.0579 45.7846 33.8611 44.5693 32.9881 43.7121C32.1151 42.8548 30.8964 42.6803 30.2661 43.3222C30.1773 43.4126 30.0922 43.5273 30.0138 43.6602Z"/>
</mask>
<path fill-rule="evenodd" clip-rule="evenodd" d="M30.0138 43.6602C29.8643 43.4012 29.6989 43.1778 29.5321 43.0141C28.7362 42.2325 27.3959 42.3066 26.5387 43.1796C25.6815 44.0526 25.6318 45.3939 26.4278 46.1755C26.6241 46.3683 26.903 46.5577 27.2248 46.7206C26.8568 46.9023 26.5371 47.1199 26.3213 47.3397C25.5397 48.1357 25.6138 49.4759 26.4868 50.3331C27.3598 51.1904 28.7011 51.24 29.4828 50.4441C29.6963 50.2266 29.9057 49.9077 30.0795 49.5415C30.2397 49.8402 30.4227 50.0978 30.608 50.2798C31.3911 51.0488 32.7209 50.9644 33.5782 50.0914C34.4354 49.2184 34.4955 47.8873 33.7124 47.1183C33.5564 46.9651 33.3469 46.8145 33.1046 46.6785C33.2316 46.5995 33.3412 46.5145 33.4275 46.4265C34.0579 45.7846 33.8611 44.5693 32.9881 43.7121C32.1151 42.8548 30.8964 42.6803 30.2661 43.3222C30.1773 43.4126 30.0922 43.5273 30.0138 43.6602Z" fill="#EABA34"/>
<path d="M29.5321 43.0141L29.2393 43.3123L29.2393 43.3123L29.5321 43.0141ZM30.0138 43.6602L29.6518 43.8692L30.0099 44.4897L30.3739 43.8726L30.0138 43.6602ZM26.5387 43.1796L26.2404 42.8867L26.5387 43.1796ZM26.4278 46.1755L26.1349 46.4738L26.1349 46.4738L26.4278 46.1755ZM27.2248 46.7206L27.4099 47.0954L28.1595 46.7253L27.4136 46.3477L27.2248 46.7206ZM26.3213 47.3397L26.6195 47.6326L26.6195 47.6326L26.3213 47.3397ZM26.4868 50.3331L26.7797 50.0349L26.7797 50.0349L26.4868 50.3331ZM29.4828 50.4441L29.781 50.7369L29.781 50.7369L29.4828 50.4441ZM30.0795 49.5415L30.448 49.344L30.057 48.6144L29.7019 49.3622L30.0795 49.5415ZM30.608 50.2798L30.3151 50.578L30.608 50.2798ZM33.5782 50.0914L33.2799 49.7986L33.5782 50.0914ZM33.7124 47.1183L34.0052 46.82L34.0052 46.82L33.7124 47.1183ZM33.1046 46.6785L32.8839 46.3235L32.2834 46.6968L32.8999 47.043L33.1046 46.6785ZM33.4275 46.4265L33.7258 46.7194L33.7258 46.7194L33.4275 46.4265ZM32.9881 43.7121L32.6952 44.0103L32.6952 44.0103L32.9881 43.7121ZM30.2661 43.3222L29.9678 43.0293L29.9678 43.0293L30.2661 43.3222ZM29.2393 43.3123C29.3719 43.4425 29.5154 43.6329 29.6518 43.8692L30.3758 43.4513C30.2132 43.1696 30.0259 42.9131 29.825 42.7158L29.2393 43.3123ZM26.837 43.4724C27.5585 42.7376 28.6333 42.7173 29.2393 43.3123L29.825 42.7158C28.839 41.7476 27.2334 41.8755 26.2404 42.8867L26.837 43.4724ZM26.7206 45.8773C26.1147 45.2823 26.1154 44.2073 26.837 43.4724L26.2404 42.8867C25.2475 43.8979 25.1489 45.5056 26.1349 46.4738L26.7206 45.8773ZM27.4136 46.3477C27.1174 46.1977 26.8775 46.0313 26.7206 45.8773L26.1349 46.4738C26.3706 46.7052 26.6886 46.9177 27.036 47.0935L27.4136 46.3477ZM26.6195 47.6326C26.7928 47.4561 27.0693 47.2635 27.4099 47.0954L27.0398 46.3458C26.6443 46.5411 26.2815 46.7836 26.023 47.0468L26.6195 47.6326ZM26.7797 50.0349C26.0448 49.3133 26.0245 48.2385 26.6195 47.6326L26.023 47.0468C25.0548 48.0329 25.1827 49.6384 26.1939 50.6314L26.7797 50.0349ZM29.1845 50.1512C28.5895 50.7571 27.5145 50.7564 26.7797 50.0349L26.1939 50.6314C27.2051 51.6243 28.8128 51.723 29.781 50.7369L29.1845 50.1512ZM29.7019 49.3622C29.5411 49.7009 29.3558 49.9767 29.1845 50.1512L29.781 50.7369C30.0367 50.4765 30.2702 50.1145 30.4572 49.7207L29.7019 49.3622ZM30.9009 49.9815C30.7542 49.8375 30.5947 49.6178 30.448 49.344L29.7111 49.7389C29.8846 50.0627 30.0912 50.3581 30.3151 50.578L30.9009 49.9815ZM33.2799 49.7986C32.5537 50.5382 31.4896 50.5597 30.9009 49.9815L30.3151 50.578C31.2926 51.5379 32.8882 51.3907 33.8764 50.3843L33.2799 49.7986ZM33.4195 47.4165C34.0083 47.9947 34.0062 49.059 33.2799 49.7986L33.8764 50.3843C34.8647 49.3778 34.9827 47.7799 34.0052 46.82L33.4195 47.4165ZM32.8999 47.043C33.1196 47.1663 33.2967 47.296 33.4195 47.4165L34.0052 46.82C33.816 46.6342 33.5741 46.4627 33.3092 46.314L32.8999 47.043ZM33.1293 46.1337C33.0712 46.1928 32.9895 46.2578 32.8839 46.3235L33.3253 47.0335C33.4737 46.9412 33.6111 46.8362 33.7258 46.7194L33.1293 46.1337ZM32.6952 44.0103C33.0748 44.383 33.2951 44.8223 33.359 45.2168C33.4229 45.6116 33.3291 45.9302 33.1293 46.1337L33.7258 46.7194C34.1563 46.2809 34.2793 45.6709 34.1842 45.0832C34.089 44.4953 33.7744 43.8983 33.281 43.4138L32.6952 44.0103ZM30.5643 43.615C30.7641 43.4116 31.0809 43.312 31.4768 43.3687C31.8724 43.4254 32.3157 43.6376 32.6952 44.0103L33.281 43.4138C32.7875 42.9293 32.1849 42.6256 31.5953 42.5412C31.006 42.4567 30.3983 42.5909 29.9678 43.0293L30.5643 43.615ZM30.3739 43.8726C30.4393 43.7617 30.5046 43.6758 30.5643 43.615L29.9678 43.0293C29.85 43.1493 29.7451 43.293 29.6537 43.4479L30.3739 43.8726Z" fill="#9A7660" mask="url(#path-23-outside-3_167_2765)"/>
</g>
<g id="&#234;&#189;&#131;2">
<path id="Ellipse 1522" d="M26.3206 47.3391C27.1022 46.5432 29.2447 45.777 30.1177 46.6343C30.9907 47.4915 30.2637 49.6475 29.4821 50.4435C28.7005 51.2395 27.3592 51.1898 26.4862 50.3326C25.6131 49.4753 25.539 48.1351 26.3206 47.3391Z" fill="#FFFA67"/>
<path id="Ellipse 1523" d="M29.5315 43.0135C30.3274 43.7951 31.0936 45.9375 30.2364 46.8105C29.3791 47.6836 27.2231 46.9566 26.4271 46.175C25.6311 45.3934 25.6808 44.052 26.538 43.179C27.3953 42.306 28.7355 42.2319 29.5315 43.0135Z" fill="#FFE252"/>
<path id="Ellipse 1524" d="M33.4259 46.4268C32.7956 47.0687 30.9309 47.5521 30.0579 46.6949C29.1848 45.8376 29.6341 43.9644 30.2645 43.3225C30.8948 42.6805 32.1135 42.8551 32.9865 43.7123C33.8595 44.5696 34.0563 45.7849 33.4259 46.4268Z" fill="#FFFA67"/>
<path id="Ellipse 1525" d="M30.6065 50.2788C29.8234 49.5098 29.0808 47.3906 29.938 46.5176C30.7953 45.6445 32.9277 46.3484 33.7109 47.1174C34.494 47.8864 34.434 49.2175 33.5767 50.0905C32.7195 50.9635 31.3897 51.0478 30.6065 50.2788Z" fill="#FFE252"/>
<path id="Ellipse 1526" d="M28.8864 45.8544C29.2743 45.6508 29.5678 45.6833 29.6624 45.8637C29.757 46.044 29.6015 46.3121 29.229 46.5075C28.9667 46.6451 28.6733 46.6126 28.5787 46.4322C28.4841 46.2519 28.6086 46.0001 28.8864 45.8544Z" fill="#EABA34"/>
<path id="Ellipse 1527" d="M30.1183 47.4208C30.099 46.9831 30.2532 46.7313 30.4566 46.7223C30.6601 46.7134 30.8366 46.9681 30.8551 47.3883C30.8681 47.6842 30.714 47.936 30.5105 47.9449C30.307 47.9539 30.1321 47.7341 30.1183 47.4208Z" fill="#EABA34"/>
<path id="Ellipse 1528" d="M28.5883 47.4162C28.9448 47.0532 29.2641 46.9684 29.4124 47.114C29.5606 47.2595 29.4674 47.5948 29.1252 47.9434C28.8842 48.1888 28.5649 48.2736 28.4166 48.128C28.2684 47.9825 28.3331 47.6761 28.5883 47.4162Z" fill="#EABA34"/>
</g>
</g>
<path id="Ellipse 1597" d="M41.6881 40.9117C41.6881 42.1622 38.2844 44.0816 37.7171 44.0816C36.5825 44.0816 33.7461 42.1622 33.7461 40.9117C33.7461 39.6613 35.524 37.3936 37.7171 37.3936C39.9102 37.3936 41.6881 39.6613 41.6881 40.9117Z" fill="#FFCB52"/>
</g>
</g>
</g>
<defs>
<filter id="filter0_i_167_2765" x="12.8451" y="4.164" width="48.07" height="51.6221" filterUnits="userSpaceOnUse" color-interpolation-filters="sRGB">
<feFlood flood-opacity="0" result="BackgroundImageFix"/>
<feBlend mode="normal" in="SourceGraphic" in2="BackgroundImageFix" result="shape"/>
<feColorMatrix in="SourceAlpha" type="matrix" values="0 0 0 0 0 0 0 0 0 0 0 0 0 0 0 0 0 0 127 0" result="hardAlpha"/>
<feOffset dx="-2.09" dy="-0.836"/>
<feGaussianBlur stdDeviation="4.18"/>
<feComposite in2="hardAlpha" operator="arithmetic" k2="-1" k3="1"/>
<feColorMatrix type="matrix" values="0 0 0 0 0.92549 0 0 0 0 0.827451 0 0 0 0 0.666667 0 0 0 1 0"/>
<feBlend mode="normal" in2="shape" result="effect1_innerShadow_167_2765"/>
</filter>
<linearGradient id="paint0_linear_167_2765" x1="21.4135" y1="48.2617" x2="21.4135" y2="64.9442" gradientUnits="userSpaceOnUse">
<stop stop-color="#FFFBEC"/>
<stop offset="1" stop-color="#FDECCC"/>
</linearGradient>
<linearGradient id="paint1_linear_167_2765" x1="37.9144" y1="16.495" x2="37.9251" y2="55.7855" gradientUnits="userSpaceOnUse">
<stop stop-color="#FFFBEC"/>
<stop offset="1" stop-color="#FDECCC"/>
</linearGradient>
<linearGradient id="paint2_linear_167_2765" x1="40.4228" y1="43.6652" x2="32.7898" y2="41.5467" gradientUnits="userSpaceOnUse">
<stop stop-color="#00C38C"/>
<stop offset="1" stop-color="#00A375"/>
</linearGradient>
<clipPath id="clip0_167_2765">
<path d="M0 0H86V58C86 64.6274 80.6274 70 74 70H0V0Z" fill="white"/>
</clipPath>
</defs>
</svg>
