<svg width="179" height="66" viewBox="0 0 179 66" fill="none" xmlns="http://www.w3.org/2000/svg">
<path d="M0 33C0 14.7746 14.7746 0 33 0H149C165.569 0 179 13.4315 179 30V66H33C14.7746 66 0 51.2254 0 33Z" fill="#E7FFF8"/>
<path d="M33.3503 30.724C33.761 31.1533 34.1717 31.4707 34.5823 31.676C35.0117 31.8813 35.5997 31.984 36.3463 31.984H40.8823V30.668C39.8743 30.3133 39.0717 29.7067 38.4743 28.848C37.8957 27.9893 37.6063 26.972 37.6063 25.796C37.6063 24.9187 37.7743 24.144 38.1103 23.472H34.5543V20.476H40.8263V18.684H44.7743V20.476H51.0463V23.472H47.5183C47.8357 24.1627 47.9943 24.9373 47.9943 25.796C47.9943 26.9533 47.6957 27.9613 47.0983 28.82C46.5197 29.66 45.7263 30.2573 44.7183 30.612V31.956H53.3983V35.036H36.0383C35.441 35.036 34.8717 34.9613 34.3303 34.812C33.789 34.644 33.285 34.4293 32.8183 34.168C32.3517 33.888 31.9223 33.58 31.5303 33.244C31.1383 32.8893 30.793 32.516 30.4943 32.124L33.3503 30.724ZM52.0263 41.112C51.709 41.504 51.345 41.868 50.9343 42.204C50.5237 42.5587 50.0757 42.8667 49.5903 43.128C49.105 43.3893 48.5823 43.5947 48.0223 43.744C47.4623 43.912 46.8837 43.996 46.2863 43.996H37.6623C37.3823 43.996 37.1117 43.94 36.8503 43.828C36.589 43.7347 36.3557 43.5947 36.1503 43.408C35.945 43.2213 35.777 42.9973 35.6463 42.736C35.5343 42.4747 35.4783 42.1853 35.4783 41.868V36.156H39.1463V39.908C39.1463 40.1693 39.2023 40.3747 39.3143 40.524C39.4263 40.6547 39.641 40.72 39.9583 40.72H46.0063C46.6037 40.72 47.1357 40.6267 47.6023 40.44C48.069 40.2347 48.489 39.9453 48.8623 39.572L52.0263 41.112ZM40.9103 25.684C40.9103 26.244 41.0877 26.692 41.4423 27.028C41.797 27.364 42.2357 27.532 42.7583 27.532C43.2623 27.5133 43.701 27.336 44.0743 27C44.4663 26.664 44.6623 26.2253 44.6623 25.684C44.6623 25.1427 44.4757 24.6947 44.1023 24.34C43.729 23.9667 43.2717 23.78 42.7303 23.78C42.189 23.78 41.7503 23.9667 41.4143 24.34C41.0783 24.6947 40.9103 25.1427 40.9103 25.684ZM69.1354 21.176V24.284H64.5994C64.7861 26.0573 65.2154 27.5787 65.8874 28.848C66.5594 30.0987 67.6421 31.0787 69.1354 31.788V35.484C67.6794 35.0547 66.3821 34.3733 65.2434 33.44C64.1047 32.488 63.2367 31.3773 62.6394 30.108C62.3781 30.7427 62.0141 31.3493 61.5474 31.928C61.0994 32.488 60.5767 33.0013 59.9794 33.468C59.4007 33.9347 58.7661 34.3453 58.0754 34.7C57.4034 35.0547 56.7034 35.3347 55.9754 35.54V31.788C57.4874 31.0787 58.5981 30.0987 59.3074 28.848C60.0167 27.5787 60.4741 26.0573 60.6794 24.284H55.9754V21.176H69.1354ZM76.1634 35.428C76.1634 35.652 76.1634 35.9507 76.1634 36.324C76.1634 36.6787 76.1354 37.0707 76.0794 37.5C76.0421 37.9107 75.9767 38.34 75.8834 38.788C75.7901 39.2173 75.6594 39.6 75.4914 39.936L72.2714 38.368C72.3087 38.1067 72.3554 37.7333 72.4114 37.248C72.4674 36.7627 72.4954 36.212 72.4954 35.596V29.352H68.2674V26.16H72.4954V20.196H76.1634V35.428ZM84.7786 25.124C84.7786 24.3027 84.9186 23.556 85.1986 22.884C85.4973 22.212 85.8986 21.6427 86.4026 21.176C86.9253 20.6907 87.5506 20.3173 88.2786 20.056C89.0253 19.7947 89.8466 19.664 90.7426 19.664C91.6386 19.664 92.4506 19.7947 93.1786 20.056C93.9253 20.3173 94.5506 20.6907 95.0546 21.176C95.5773 21.6427 95.9786 22.212 96.2586 22.884C96.5573 23.556 96.7066 24.3027 96.7066 25.124C96.7066 26.4867 96.3333 27.6347 95.5866 28.568C94.8586 29.4827 93.8506 30.0987 92.5626 30.416V31.368H101.187V34.42H83.8266C82.7066 34.42 81.6706 34.1493 80.7186 33.608C79.7853 33.0667 78.9733 32.3667 78.2826 31.508L81.1106 30.136C81.5586 30.6213 82.0066 30.948 82.4546 31.116C82.9213 31.284 83.4813 31.368 84.1346 31.368H88.6986V30.36C87.4666 30.024 86.5053 29.3987 85.8146 28.484C85.1239 27.5693 84.7786 26.4493 84.7786 25.124ZM83.3786 35.204H87.1026V37.024H94.2706V35.204H97.9946V44.444H85.5626C84.9653 44.444 84.4519 44.2667 84.0226 43.912C83.5933 43.5573 83.3786 43.0253 83.3786 42.316V35.204ZM88.1106 25.152C88.1106 25.8613 88.3346 26.4587 88.7826 26.944C89.2306 27.4107 89.8466 27.644 90.6306 27.644C91.4146 27.644 92.0399 27.4107 92.5066 26.944C92.9919 26.4587 93.2346 25.8613 93.2346 25.152C93.2346 24.4613 93.0106 23.864 92.5626 23.36C92.1333 22.856 91.5079 22.604 90.6866 22.604C89.8653 22.604 89.2306 22.856 88.7826 23.36C88.3346 23.8453 88.1106 24.4427 88.1106 25.152ZM87.1026 39.908V40.636C87.1026 40.916 87.1493 41.1213 87.2426 41.252C87.3546 41.3827 87.5786 41.448 87.9146 41.448H94.2706V39.908H87.1026ZM103.344 31.788C104.296 31.228 105.098 30.64 105.752 30.024C106.424 29.3893 106.956 28.6427 107.348 27.784C107.758 26.9253 108.048 25.9267 108.216 24.788C108.402 23.6307 108.496 22.268 108.496 20.7H112.108C112.108 22.268 112.201 23.6307 112.388 24.788C112.574 25.9267 112.873 26.9253 113.284 27.784C113.713 28.624 114.254 29.3613 114.908 29.996C115.58 30.6307 116.392 31.228 117.344 31.788V35.484C116.616 35.2787 115.888 34.9613 115.16 34.532C114.45 34.084 113.778 33.58 113.144 33.02C112.528 32.4413 111.968 31.8347 111.464 31.2C110.978 30.5467 110.586 29.9027 110.288 29.268C110.026 29.9027 109.653 30.5467 109.168 31.2C108.682 31.8533 108.122 32.4693 107.488 33.048C106.872 33.6267 106.209 34.14 105.5 34.588C104.79 35.0173 104.072 35.3347 103.344 35.54V31.788ZM123.028 35.428C123.028 35.652 123.028 35.9507 123.028 36.324C123.028 36.6787 123 37.0707 122.944 37.5C122.906 37.9107 122.841 38.34 122.748 38.788C122.654 39.2173 122.524 39.6 122.356 39.936L119.136 38.368C119.173 38.1067 119.22 37.7333 119.276 37.248C119.332 36.7627 119.36 36.212 119.36 35.596V28.148H115.356V24.984H119.36V20.196H123.028V35.428ZM131.973 21.792C132.925 21.792 133.775 21.9693 134.521 22.324C135.287 22.66 135.931 23.1267 136.453 23.724H139.141V20.196H142.725V36.044C142.725 36.436 142.716 36.772 142.697 37.052C142.697 37.332 142.688 37.5933 142.669 37.836C142.651 38.0787 142.613 38.3213 142.557 38.564C142.52 38.788 142.464 39.0587 142.389 39.376L138.973 37.948C139.067 37.444 139.113 37.0613 139.113 36.8C139.132 36.52 139.141 36.296 139.141 36.128V31.76H136.257C135.735 32.3013 135.109 32.7213 134.381 33.02C133.672 33.3 132.869 33.44 131.973 33.44C131.096 33.44 130.303 33.3 129.593 33.02C128.884 32.74 128.268 32.348 127.745 31.844C127.241 31.34 126.849 30.7333 126.569 30.024C126.289 29.296 126.149 28.4933 126.149 27.616C126.149 26.7573 126.289 25.9733 126.569 25.264C126.849 24.536 127.241 23.92 127.745 23.416C128.268 22.8933 128.884 22.492 129.593 22.212C130.303 21.932 131.096 21.792 131.973 21.792ZM143.593 38.368C143.631 38.1067 143.677 37.7333 143.733 37.248C143.789 36.7627 143.817 36.212 143.817 35.596V20.196H147.401V35.428C147.401 35.652 147.401 35.9507 147.401 36.324C147.401 36.6787 147.373 37.0707 147.317 37.5C147.28 37.9107 147.215 38.34 147.121 38.788C147.028 39.2173 146.897 39.6 146.729 39.936L143.593 38.368ZM131.973 30.136C132.72 30.136 133.327 29.912 133.793 29.464C134.26 29.016 134.493 28.4 134.493 27.616C134.493 26.8507 134.26 26.2347 133.793 25.768C133.327 25.3013 132.72 25.068 131.973 25.068C131.208 25.068 130.592 25.3013 130.125 25.768C129.677 26.2347 129.453 26.8507 129.453 27.616C129.453 28.4 129.677 29.016 130.125 29.464C130.592 29.912 131.208 30.136 131.973 30.136ZM137.797 27.616C137.797 27.8213 137.788 28.0267 137.769 28.232C137.751 28.4373 137.723 28.6333 137.685 28.82H139.141V26.664H137.713C137.769 26.9813 137.797 27.2987 137.797 27.616Z" fill="#004531"/>
</svg>
