<svg width="351" height="170" viewBox="0 0 351 170" fill="none" xmlns="http://www.w3.org/2000/svg">
<g clip-path="url(#clip0_167_2428)">
<rect width="351" height="170" fill="#252730"/>
<circle cx="248.765" cy="86.5941" r="72.765" fill="#00A073"/>
<g clip-path="url(#clip1_167_2428)">
<mask id="path-3-inside-1_167_2428" fill="white">
<path d="M273.9 139.066C273.9 159.022 290.463 175.201 246.786 175.201C203.109 175.201 219.673 159.022 219.673 139.066C219.673 119.109 229.158 102.931 246.786 102.931C264.414 102.931 273.9 119.109 273.9 139.066Z"/>
</mask>
<path d="M273.9 139.066C273.9 159.022 290.463 175.201 246.786 175.201C203.109 175.201 219.673 159.022 219.673 139.066C219.673 119.109 229.158 102.931 246.786 102.931C264.414 102.931 273.9 119.109 273.9 139.066Z" fill="url(#paint0_linear_167_2428)"/>
<path d="M272.91 139.066C272.91 144.174 273.97 149.032 274.835 153.326C275.715 157.695 276.364 161.383 275.752 164.421C275.452 165.906 274.852 167.218 273.821 168.369C272.785 169.527 271.272 170.569 269.083 171.441C264.674 173.198 257.675 174.211 246.786 174.211V176.191C257.736 176.191 265.045 175.181 269.815 173.281C272.215 172.325 274.009 171.129 275.297 169.69C276.591 168.243 277.332 166.598 277.692 164.813C278.399 161.312 277.637 157.213 276.776 152.936C275.9 148.584 274.89 143.936 274.89 139.066H272.91ZM246.786 174.211C235.897 174.211 228.899 173.198 224.49 171.441C222.3 170.569 220.787 169.527 219.751 168.369C218.721 167.218 218.12 165.906 217.821 164.421C217.208 161.383 217.858 157.695 218.738 153.326C219.602 149.032 220.663 144.174 220.663 139.066H218.683C218.683 143.936 217.673 148.584 216.797 152.936C215.935 157.213 215.174 161.312 215.88 164.813C216.24 166.598 216.982 168.243 218.276 169.69C219.564 171.129 221.358 172.325 223.757 173.281C228.527 175.181 235.837 176.191 246.786 176.191V174.211ZM220.663 139.066C220.663 129.228 223.003 120.41 227.43 114.082C231.835 107.786 238.321 103.921 246.786 103.921V101.941C237.624 101.941 230.553 106.164 225.808 112.947C221.085 119.697 218.683 128.946 218.683 139.066H220.663ZM246.786 103.921C255.252 103.921 261.738 107.786 266.143 114.082C270.57 120.41 272.91 129.228 272.91 139.066H274.89C274.89 128.946 272.487 119.697 267.765 112.947C263.02 106.164 255.949 101.941 246.786 101.941V103.921Z" fill="#9A7660" mask="url(#path-3-inside-1_167_2428)"/>
<mask id="path-5-inside-2_167_2428" fill="white">
<path fill-rule="evenodd" clip-rule="evenodd" d="M244.807 16.5556C243.212 17.4013 241.657 18.226 240.162 19.0437C214.529 23.3876 195.004 45.7713 195.004 72.7313C195.004 75.4016 194.954 78.0269 194.905 80.5943C194.401 106.94 194.013 127.181 249.262 127.181C304.511 127.181 304.123 106.94 303.619 80.5943V80.5937C303.57 78.0265 303.52 75.4014 303.52 72.7313C303.52 61.4911 300.126 51.0463 294.31 42.3728C298.733 38.735 300.972 34.9865 300.087 31.8201C299.073 28.1911 294.153 26.0361 287.079 25.5129C289.56 20.835 290.12 16.3828 288.235 12.9094C283.629 4.42466 266.175 4.99411 249.249 14.1813C247.746 14.9971 246.26 15.7849 244.808 16.5553L244.807 16.5556Z"/>
</mask>
<g filter="url(#filter0_i_167_2428)">
<path fill-rule="evenodd" clip-rule="evenodd" d="M244.807 16.5556C243.212 17.4013 241.657 18.226 240.162 19.0437C214.529 23.3876 195.004 45.7713 195.004 72.7313C195.004 75.4016 194.954 78.0269 194.905 80.5943C194.401 106.94 194.013 127.181 249.262 127.181C304.511 127.181 304.123 106.94 303.619 80.5943V80.5937C303.57 78.0265 303.52 75.4014 303.52 72.7313C303.52 61.4911 300.126 51.0463 294.31 42.3728C298.733 38.735 300.972 34.9865 300.087 31.8201C299.073 28.1911 294.153 26.0361 287.079 25.5129C289.56 20.835 290.12 16.3828 288.235 12.9094C283.629 4.42466 266.175 4.99411 249.249 14.1813C247.746 14.9971 246.26 15.7849 244.808 16.5553L244.807 16.5556Z" fill="url(#paint1_linear_167_2428)"/>
</g>
<path d="M240.162 19.0437L240.328 20.0198L240.491 19.9921L240.637 19.9123L240.162 19.0437ZM244.807 16.5556L244.346 15.6793L244.343 15.681L244.807 16.5556ZM194.905 80.5943L195.895 80.6133L194.905 80.5943ZM303.619 80.5943H302.629V80.6038L302.629 80.6133L303.619 80.5943ZM303.619 80.5937H304.609V80.5843L304.609 80.5748L303.619 80.5937ZM294.31 42.3728L293.681 41.6082L292.988 42.1784L293.488 42.9241L294.31 42.3728ZM300.087 31.8201L301.041 31.5536V31.5536L300.087 31.8201ZM287.079 25.5129L286.204 25.0491L285.494 26.3884L287.006 26.5002L287.079 25.5129ZM288.235 12.9094L289.105 12.4371V12.4371L288.235 12.9094ZM249.249 14.1813L248.776 13.3112L249.249 14.1813ZM244.808 16.5553L245.268 17.4317L245.271 17.4299L244.808 16.5553ZM240.637 19.9123C242.126 19.0982 243.675 18.2765 245.271 17.4302L244.343 15.681C242.75 16.5261 241.189 17.3539 239.687 18.1751L240.637 19.9123ZM195.994 72.7313C195.994 46.2597 215.165 24.284 240.328 20.0198L239.997 18.0677C213.893 22.4913 194.014 45.2828 194.014 72.7313H195.994ZM195.895 80.6133C195.944 78.0473 195.994 75.4126 195.994 72.7313H194.014C194.014 75.3905 193.964 78.0066 193.915 80.5754L195.895 80.6133ZM249.262 126.191C221.674 126.191 208.385 121.119 201.946 113.146C198.725 109.157 197.139 104.352 196.397 98.8559C195.653 93.3433 195.768 87.219 195.895 80.6133L193.915 80.5754C193.79 87.1426 193.667 93.4282 194.435 99.1206C195.205 104.83 196.88 110.024 200.406 114.39C207.459 123.123 221.601 128.171 249.262 128.171V126.191ZM302.629 80.6133C302.756 87.219 302.871 93.3433 302.127 98.8559C301.385 104.352 299.799 109.157 296.578 113.146C290.139 121.119 276.85 126.191 249.262 126.191V128.171C276.923 128.171 291.065 123.123 298.118 114.39C301.644 110.024 303.319 104.83 304.089 99.1206C304.857 93.4282 304.735 87.1426 304.609 80.5754L302.629 80.6133ZM302.629 80.5937V80.5943H304.609V80.5937H302.629ZM302.53 72.7313C302.53 75.4124 302.58 78.0469 302.629 80.6127L304.609 80.5748C304.56 78.0062 304.51 75.3904 304.51 72.7313H302.53ZM293.488 42.9241C299.197 51.4395 302.53 61.6932 302.53 72.7313H304.51C304.51 61.2889 301.054 50.6532 295.133 41.8214L293.488 42.9241ZM299.134 32.0866C299.484 33.3411 299.244 34.7963 298.326 36.4356C297.404 38.0796 295.837 39.8356 293.681 41.6082L294.939 43.1373C297.207 41.2722 298.97 39.3351 300.053 37.4037C301.138 35.4678 301.575 33.4655 301.041 31.5536L299.134 32.0866ZM287.006 26.5002C290.474 26.7567 293.34 27.4096 295.433 28.3971C297.528 29.3861 298.732 30.6507 299.134 32.0866L301.041 31.5536C300.428 29.3606 298.665 27.7332 296.278 26.6066C293.888 25.4786 290.758 24.7923 287.152 24.5256L287.006 26.5002ZM287.365 13.3816C289.024 16.4389 288.611 20.5118 286.204 25.0491L287.954 25.9767C290.509 21.1582 291.216 16.3266 289.105 12.4371L287.365 13.3816ZM249.721 15.0514C258.078 10.5154 266.523 8.13201 273.394 7.90784C280.331 7.68155 285.337 9.64523 287.365 13.3816L289.105 12.4371C286.528 7.6888 280.504 5.69485 273.33 5.9289C266.09 6.16507 257.345 8.66002 248.776 13.3112L249.721 15.0514ZM245.271 17.4299C246.723 16.6598 248.213 15.8698 249.721 15.0514L248.776 13.3112C247.278 14.1243 245.797 14.91 244.344 15.6807L245.271 17.4299ZM245.267 17.432L245.268 17.4317L244.347 15.679L244.346 15.6793L245.267 17.432Z" fill="#9A7660" mask="url(#path-5-inside-2_167_2428)"/>
<path d="M283.987 15.6098C283.005 15.3448 283.083 17.4627 282.471 19.7335C281.858 22.0043 280.787 23.5682 281.77 23.8332C282.753 24.0981 283.787 22.4023 284.4 20.1315C285.012 17.8607 284.97 15.8748 283.987 15.6098Z" fill="#ECD3AA"/>
<path d="M280.254 13.1815C279.43 12.5848 279.037 14.1976 277.99 15.6442C276.943 17.0909 275.639 17.8236 276.463 18.4204C277.288 19.0171 278.588 18.171 279.635 16.7243C280.682 15.2777 281.079 13.7783 280.254 13.1815Z" fill="#ECD3AA"/>
<path d="M295.447 33.1125C294.854 32.2852 293.97 33.6903 292.519 34.7306C291.067 35.771 289.598 36.0527 290.191 36.8801C290.784 37.7074 292.285 37.3168 293.737 36.2764C295.188 35.236 296.04 33.9398 295.447 33.1125Z" fill="#ECD3AA"/>
<circle cx="216.097" cy="93.9651" r="15.345" fill="#FFC3D8"/>
<circle cx="283.416" cy="94.9554" r="15.345" fill="#FFC3D8"/>
<path d="M232.431 82.9846C232.431 87.0854 230.215 88.5196 227.481 88.5196C224.747 88.5196 222.531 87.0854 222.531 82.9846C222.531 78.8839 224.747 76.6396 227.481 76.6396C230.215 76.6396 232.431 78.8839 232.431 82.9846Z" fill="black"/>
<path d="M230.75 83.4756C229.699 84.8502 228.611 83.4208 227.108 82.2723C225.606 81.1238 224.258 80.6911 225.309 79.3164C226.36 77.9418 228.153 78.1205 229.655 79.269C231.158 80.4175 231.8 82.1009 230.75 83.4756Z" fill="white"/>
<path d="M224.599 83.3542C225.371 82.3255 226.112 83.3226 227.153 84.1028C228.193 84.8831 229.138 85.151 228.367 86.1797C227.596 87.2085 226.33 87.139 225.289 86.3587C224.249 85.5785 223.828 84.383 224.599 83.3542Z" fill="white"/>
<path d="M276.981 83.5354C276.981 87.6361 274.765 89.0704 272.031 89.0704C269.297 89.0704 267.081 87.6361 267.081 83.5354C267.081 79.4347 269.297 77.1904 272.031 77.1904C274.765 77.1904 276.981 79.4347 276.981 83.5354Z" fill="black"/>
<path d="M275.3 84.0264C274.249 85.401 273.161 83.9716 271.659 82.8231C270.156 81.6746 268.808 81.2419 269.859 79.8672C270.91 78.4926 272.703 78.6713 274.206 79.8198C275.708 80.9683 276.351 82.6517 275.3 84.0264Z" fill="white"/>
<path d="M269.15 83.905C269.921 82.8763 270.662 83.8734 271.703 84.6536C272.743 85.4339 273.689 85.7018 272.917 86.7305C272.146 87.7592 270.88 87.6898 269.84 86.9095C268.799 86.1293 268.378 84.9337 269.15 83.905Z" fill="white"/>
<path d="M273.544 57.4492C272.803 59.1893 270.286 58.8362 267.502 57.6497C264.718 56.4632 262.72 54.8927 263.461 53.1525C264.203 51.4123 266.866 51.4218 269.65 52.6083C272.435 53.7948 274.286 55.709 273.544 57.4492Z" fill="#C6A590"/>
<path d="M237.22 53.6268C237.8 55.4274 235.667 56.8092 232.786 57.7368C229.905 58.6645 227.367 58.7867 226.787 56.9862C226.207 55.1856 228.226 53.4482 231.106 52.5205C233.987 51.5929 236.64 51.8263 237.22 53.6268Z" fill="#C6A590"/>
<path d="M259.162 90.3076C259.162 93.7249 251.101 98.9701 249.757 98.9701C247.07 98.9701 240.352 93.7249 240.352 90.3076C240.352 86.8904 244.563 84.1201 249.757 84.1201C254.951 84.1201 259.162 86.8904 259.162 90.3076Z" fill="#F5A327"/>
<path d="M259.136 89.3285C259.136 91.5497 251.075 94.9591 249.731 94.9591C247.044 94.9591 240.326 91.5497 240.326 89.3285C240.326 87.1073 244.537 83.0791 249.731 83.0791C254.925 83.0791 259.136 87.1073 259.136 89.3285Z" fill="#FFCB52"/>
<path d="M268.649 137.186C268.618 128.056 257.782 127.716 245.603 127.756C233.424 127.797 224.514 128.203 224.544 137.333C224.574 146.463 234.464 151.427 246.643 151.387C258.822 151.346 268.679 146.316 268.649 137.186Z" fill="#F3E0C1"/>
<path d="M235.252 124.696L235.252 124.696C233.63 125.524 232.077 125.915 230.679 126.165C230.139 126.262 229.616 126.339 229.125 126.411C228.985 126.431 228.847 126.452 228.713 126.472C228.101 126.563 227.549 126.655 227.051 126.78C226.061 127.03 225.342 127.402 224.848 128.115C224.342 128.847 224.017 130.017 224.017 131.988C224.017 139.825 229.005 145.006 235.027 145.006C238.126 145.006 241.052 144.204 243.201 142.216C245.343 140.235 246.787 137.005 246.787 131.988C246.787 126.578 246.41 123.258 245.777 121.35C245.461 120.398 245.099 119.855 244.743 119.568C244.408 119.297 244.034 119.217 243.58 119.292C243.103 119.37 242.549 119.619 241.912 120.011C241.28 120.4 240.603 120.905 239.883 121.463C239.703 121.603 239.52 121.745 239.335 121.89C238.058 122.887 236.663 123.976 235.252 124.696Z" fill="url(#paint2_linear_167_2428)" stroke="#9A7660" stroke-width="0.99"/>
<path d="M258.322 124.696L258.322 124.696C259.945 125.524 261.498 125.915 262.896 126.165C263.436 126.262 263.959 126.339 264.45 126.411C264.59 126.431 264.727 126.452 264.862 126.472C265.474 126.563 266.025 126.655 266.523 126.78C267.514 127.03 268.233 127.402 268.727 128.115C269.233 128.847 269.557 130.017 269.557 131.988C269.557 139.825 264.569 145.006 258.547 145.006C255.449 145.006 252.522 144.204 250.373 142.216C248.232 140.235 246.787 137.005 246.787 131.988C246.787 126.578 247.164 123.258 247.798 121.35C248.114 120.398 248.475 119.855 248.832 119.568C249.167 119.297 249.54 119.217 249.995 119.292C250.471 119.37 251.026 119.619 251.663 120.011C252.295 120.4 252.971 120.905 253.692 121.463C253.872 121.603 254.054 121.745 254.24 121.89C255.517 122.887 256.911 123.976 258.322 124.696Z" fill="url(#paint3_linear_167_2428)" stroke="#9A7660" stroke-width="0.99"/>
<path d="M242.829 126.112C242.306 125.392 241.64 126.553 240.492 127.386C239.344 128.22 238.148 128.41 238.672 129.13C239.195 129.851 240.412 129.569 241.56 128.736C242.707 127.902 243.352 126.832 242.829 126.112Z" fill="#ECD3AA"/>
<path d="M251.062 126.112C251.585 125.392 252.251 126.553 253.399 127.386C254.547 128.22 255.742 128.41 255.219 129.13C254.696 129.851 253.479 129.569 252.331 128.736C251.183 127.902 250.539 126.832 251.062 126.112Z" fill="#ECD3AA"/>
<path d="M243.819 132.052C243.296 131.332 242.63 132.493 241.482 133.327C240.334 134.16 239.139 134.35 239.662 135.071C240.185 135.791 241.402 135.51 242.55 134.676C243.698 133.843 244.342 132.773 243.819 132.052Z" fill="#ECD3AA"/>
<path d="M250.072 132.052C250.595 131.332 251.261 132.493 252.409 133.327C253.557 134.16 254.752 134.35 254.229 135.071C253.706 135.791 252.489 135.51 251.341 134.676C250.193 133.843 249.549 132.773 250.072 132.052Z" fill="#ECD3AA"/>
</g>
<path d="M18 44C18 32.402 27.402 23 39 23H177C188.046 23 197 31.9543 197 43V65H39C27.402 65 18 55.598 18 44Z" fill="white"/>
<path d="M42.5527 39.9219C42.5527 41.5762 43.8105 43.0938 45.5742 43.6953L44.9863 44.543C43.6396 44.0508 42.5801 43.0459 42.0469 41.7812C41.5273 43.21 40.4473 44.3379 39.0254 44.8848L38.4512 44.0234C40.2695 43.3398 41.4863 41.7129 41.5 39.8398V38.582H42.5527V39.9219ZM47.9941 37.9531V41.125H49.8262V42.0273H47.9941V45.3496H46.9277V37.9531H47.9941ZM44.0977 45.6641C46.5996 45.6641 48.1035 46.4707 48.1035 47.8652C48.1035 49.2871 46.5996 50.0801 44.0977 50.0801C41.5957 50.0801 40.0645 49.2871 40.0645 47.8652C40.0645 46.4707 41.5957 45.6641 44.0977 45.6641ZM44.0977 46.5254C42.2656 46.5254 41.1309 47.0312 41.1445 47.8652C41.1309 48.7266 42.2656 49.2188 44.0977 49.2324C45.9434 49.2188 47.0645 48.7266 47.0645 47.8652C47.0645 47.0312 45.9434 46.5254 44.0977 46.5254ZM60.8824 37.9531V50.1074H59.857V43.7363H58.066V49.4785H57.0816V38.2266H58.066V42.8477H59.857V37.9531H60.8824ZM55.4957 39.4434V40.332H52.0094V46.1836C53.6842 46.1768 54.8463 46.1152 56.193 45.8418L56.2887 46.7441C54.8258 47.0449 53.5816 47.0996 51.7223 47.0996H50.943V39.4434H55.4957ZM68.0969 45.5957C70.5988 45.5957 72.1027 46.416 72.1027 47.8379C72.1027 49.2734 70.5988 50.0938 68.0969 50.1074C65.5949 50.0938 64.0637 49.2734 64.0637 47.8379C64.0637 46.416 65.5949 45.5957 68.0969 45.5957ZM68.0969 46.4434C66.2648 46.457 65.1301 46.9629 65.1437 47.8379C65.1301 48.7129 66.2648 49.2324 68.0969 49.2324C69.9426 49.2324 71.0637 48.7129 71.0637 47.8379C71.0637 46.9629 69.9426 46.457 68.0969 46.4434ZM71.9934 37.9531V41.0156H73.8254V41.9316H71.9934V45.2676H70.927V37.9531H71.9934ZM64.0637 38.7188V40.5781H67.6047V38.7188H68.6711V44.3242H63.0109V38.7188H64.0637ZM64.0637 43.4492H67.6047V41.4258H64.0637V43.4492ZM80.0281 38.1719C82.7352 38.1719 84.3211 38.9102 84.3211 40.2637C84.3211 41.6445 82.7352 42.3828 80.0281 42.3965C77.3211 42.3828 75.7215 41.6445 75.7215 40.2637C75.7215 38.9102 77.3211 38.1719 80.0281 38.1719ZM80.0281 38.9785C78.0047 38.9785 76.8289 39.4707 76.8426 40.2637C76.8289 41.1113 78.0047 41.5762 80.0281 41.5762C82.0379 41.5762 83.2273 41.1113 83.2273 40.2637C83.2273 39.4707 82.0379 38.9785 80.0281 38.9785ZM85.5652 43.2168V44.0918H74.491V43.2168H85.5652ZM84.1434 45.1445V47.8652H76.9246V49.123H84.5125V49.9707H75.8582V47.0723H83.0906V45.9648H75.8309V45.1445H84.1434ZM99.9531 37.9531V50.1074H98.873V37.9531H99.9531ZM96.3574 39.2793C96.3438 42.7793 94.7168 45.8691 90.6426 47.8242L90.0547 46.9492C93.3428 45.3906 95.0176 43.0596 95.2637 40.1543H90.6152V39.2793H96.3574ZM111.31 37.9531V42.7656H113.347V43.668H111.31V50.1348H110.244V37.9531H111.31ZM108.111 39.1426V40.0312H103.504V46.1836C105.705 46.1836 107.263 46.0811 109.068 45.7461L109.205 46.6758C107.304 47.0176 105.705 47.0859 103.394 47.0859H102.437V39.1426H108.111ZM123.939 37.9531V50.1348H122.872V37.9531H123.939ZM120.247 39.0879V43.4082H115.708V46.2793C117.725 46.2793 119.523 46.1904 121.696 45.8418L121.806 46.7441C119.564 47.0996 117.718 47.1816 115.626 47.1816H114.614V42.5332H119.167V39.9766H114.587V39.0879H120.247ZM135.651 39.1836V40.4004C135.637 41.8906 135.637 43.5586 135.2 46.0059L134.106 45.8828C134.571 43.5586 134.571 41.8496 134.571 40.4004V40.0723H127.079V39.1836H135.651ZM136.977 47.4961V48.3848H125.903V47.4961H130.251V43.1484H131.304V47.4961H136.977ZM145.432 46.1152C145.432 47.1885 146.006 48.3301 147.168 48.9863C148.316 48.2686 148.932 47.0586 148.932 46.1152V45.4453H149.984V46.1152C149.984 47.3594 150.9 48.6172 152.459 49.1504L151.926 49.9434C150.709 49.5127 149.854 48.665 149.438 47.6465C149.062 48.6309 148.316 49.5605 147.195 50.0391C146.013 49.5879 145.261 48.6924 144.898 47.6738C144.468 48.6582 143.627 49.5059 142.465 49.9434L141.918 49.1504C143.449 48.5762 144.379 47.2773 144.393 46.1152V45.4453H145.432V46.1152ZM151.352 37.9668V44.9121H150.285V37.9668H151.352ZM144.789 38.6777C146.635 38.6777 147.975 39.8262 147.975 41.5215C147.975 43.1895 146.635 44.3379 144.789 44.3379C142.943 44.3379 141.604 43.1895 141.604 41.5215C141.604 39.8262 142.943 38.6777 144.789 38.6777ZM144.789 39.5938C143.545 39.5801 142.643 40.3867 142.656 41.5215C142.643 42.6426 143.545 43.4355 144.789 43.4492C146.02 43.4355 146.922 42.6426 146.922 41.5215C146.922 40.3867 146.02 39.5801 144.789 39.5938ZM156.584 38.8965C158.238 38.9102 159.427 40.3252 159.605 42.6016H162.326V37.9531H163.392V50.1348H162.326V43.4902H159.619C159.489 45.8691 158.279 47.3594 156.584 47.3594C154.793 47.3594 153.535 45.7188 153.535 43.1348C153.535 40.5508 154.793 38.9102 156.584 38.8965ZM156.584 39.8535C155.38 39.8672 154.56 41.1523 154.56 43.1348C154.56 45.1172 155.38 46.4023 156.584 46.4023C157.773 46.4023 158.607 45.1172 158.607 43.1348C158.607 41.1523 157.773 39.8672 156.584 39.8535ZM176.445 47.6465V48.5488H165.316V47.6465H168.077V44.3652C167.038 43.8252 166.409 42.9502 166.409 41.8496C166.409 39.9629 168.255 38.7324 170.853 38.7188C173.45 38.7324 175.296 39.9629 175.296 41.8496C175.296 42.9297 174.688 43.7979 173.683 44.3379V47.6465H176.445ZM170.853 39.6074C168.857 39.5938 167.448 40.4961 167.448 41.8496C167.448 43.2031 168.857 44.1191 170.853 44.1191C172.835 44.1191 174.257 43.2031 174.257 41.8496C174.257 40.4961 172.835 39.5938 170.853 39.6074ZM169.13 47.6465H172.603V44.748C172.076 44.8916 171.488 44.9668 170.853 44.9668C170.231 44.9668 169.65 44.8984 169.13 44.7617V47.6465Z" fill="black"/>
</g>
<defs>
<filter id="filter0_i_167_2428" x="189.862" y="4.92039" width="113.85" height="122.261" filterUnits="userSpaceOnUse" color-interpolation-filters="sRGB">
<feFlood flood-opacity="0" result="BackgroundImageFix"/>
<feBlend mode="normal" in="SourceGraphic" in2="BackgroundImageFix" result="shape"/>
<feColorMatrix in="SourceAlpha" type="matrix" values="0 0 0 0 0 0 0 0 0 0 0 0 0 0 0 0 0 0 127 0" result="hardAlpha"/>
<feOffset dx="-4.95" dy="-1.98"/>
<feGaussianBlur stdDeviation="9.9"/>
<feComposite in2="hardAlpha" operator="arithmetic" k2="-1" k3="1"/>
<feColorMatrix type="matrix" values="0 0 0 0 0.92549 0 0 0 0 0.827451 0 0 0 0 0.666667 0 0 0 1 0"/>
<feBlend mode="normal" in2="shape" result="effect1_innerShadow_167_2428"/>
</filter>
<linearGradient id="paint0_linear_167_2428" x1="246.786" y1="102.931" x2="246.786" y2="175.201" gradientUnits="userSpaceOnUse">
<stop stop-color="#FFFBEC"/>
<stop offset="1" stop-color="#FDECCC"/>
</linearGradient>
<linearGradient id="paint1_linear_167_2428" x1="249.237" y1="34.1252" x2="249.262" y2="127.181" gradientUnits="userSpaceOnUse">
<stop stop-color="#FFFBEC"/>
<stop offset="1" stop-color="#FDECCC"/>
</linearGradient>
<linearGradient id="paint2_linear_167_2428" x1="235.402" y1="118.771" x2="235.402" y2="145.501" gradientUnits="userSpaceOnUse">
<stop stop-color="#FFFBEC"/>
<stop offset="1" stop-color="#FDECCC"/>
</linearGradient>
<linearGradient id="paint3_linear_167_2428" x1="258.172" y1="118.771" x2="258.172" y2="145.501" gradientUnits="userSpaceOnUse">
<stop stop-color="#FFFBEC"/>
<stop offset="1" stop-color="#FDECCC"/>
</linearGradient>
<clipPath id="clip0_167_2428">
<rect width="351" height="170" fill="white"/>
</clipPath>
<clipPath id="clip1_167_2428">
<rect x="176" y="-3" width="145.53" height="162.36" rx="72.765" fill="white"/>
</clipPath>
</defs>
</svg>
